<svg width="1200px" height="800px"
 viewBox="0.00 0.00 1016.00 673.00" xmlns="http://www.w3.org/2000/svg" xmlns:xlink="http://www.w3.org/1999/xlink">
<g id="graph0" class="graph" transform="scale(1.0 1.0) rotate(0.0) translate(4.0 669.0)">
<title>microservices</title>
<polygon fill="white" stroke="none" points="-4,4 -4,-669 1012.38,-669 1012.38,4 -4,4"/>
<text xml:space="preserve" text-anchor="middle" x="504.19" y="-649.6" font-family="Arial" font-size="12.00">Microservices Dependency Graph</text>
<text xml:space="preserve" text-anchor="middle" x="504.19" y="-635.35" font-family="Arial" font-size="12.00">(Generated with GraphViz Java &#45; Pure Maven)</text>
<!-- product&#45;service -->
<g id="node1" class="node">
<title>product&#45;service</title>
<path fill="lightblue" stroke="black" d="M98.38,-154.5C98.38,-154.5 39.62,-154.5 39.62,-154.5 33.63,-154.5 27.62,-148.5 27.62,-142.5 27.62,-142.5 27.62,-130.5 27.62,-130.5 27.62,-124.5 33.62,-118.5 39.62,-118.5 39.62,-118.5 98.38,-118.5 98.38,-118.5 104.38,-118.5 110.38,-124.5 110.38,-130.5 110.38,-130.5 110.38,-142.5 110.38,-142.5 110.38,-148.5 104.38,-154.5 98.38,-154.5"/>
<text xml:space="preserve" text-anchor="middle" x="69" y="-139" font-family="Arial" font-size="10.00">product&#45;service</text>
<text xml:space="preserve" text-anchor="middle" x="69" y="-127" font-family="Arial" font-size="10.00">Port: 8082</text>
</g>
<!-- config&#45;service -->
<g id="node2" class="node">
<title>config&#45;service</title>
<path fill="lightyellow" stroke="black" d="M547.38,-628.5C547.38,-628.5 494.62,-628.5 494.62,-628.5 488.62,-628.5 482.62,-622.5 482.62,-616.5 482.62,-616.5 482.62,-604.5 482.62,-604.5 482.62,-598.5 488.62,-592.5 494.62,-592.5 494.62,-592.5 547.38,-592.5 547.38,-592.5 553.38,-592.5 559.38,-598.5 559.38,-604.5 559.38,-604.5 559.38,-616.5 559.38,-616.5 559.38,-622.5 553.38,-628.5 547.38,-628.5"/>
<text xml:space="preserve" text-anchor="middle" x="521" y="-613" font-family="Arial" font-size="10.00">config&#45;service</text>
<text xml:space="preserve" text-anchor="middle" x="521" y="-601" font-family="Arial" font-size="10.00">Port: 8761</text>
</g>
<!-- notification&#45;service -->
<g id="node3" class="node">
<title>notification&#45;service</title>
<path fill="lightcyan" stroke="black" d="M553.88,-510C553.88,-510 480.12,-510 480.12,-510 474.12,-510 468.12,-504 468.12,-498 468.12,-498 468.12,-486 468.12,-486 468.12,-480 474.12,-474 480.12,-474 480.12,-474 553.88,-474 553.88,-474 559.88,-474 565.88,-480 565.88,-486 565.88,-486 565.88,-498 565.88,-498 565.88,-504 559.88,-510 553.88,-510"/>
<text xml:space="preserve" text-anchor="middle" x="517" y="-494.5" font-family="Arial" font-size="10.00">notification&#45;service</text>
<text xml:space="preserve" text-anchor="middle" x="517" y="-482.5" font-family="Arial" font-size="10.00">Port: 8086</text>
</g>
<!-- dependency&#45;analyzer&#45;enhanced -->
<g id="node4" class="node">
<title>dependency&#45;analyzer&#45;enhanced</title>
<path fill="lightgray" stroke="black" d="M725.62,-510C725.62,-510 596.38,-510 596.38,-510 590.38,-510 584.38,-504 584.38,-498 584.38,-498 584.38,-486 584.38,-486 584.38,-480 590.38,-474 596.38,-474 596.38,-474 725.62,-474 725.62,-474 731.62,-474 737.62,-480 737.62,-486 737.62,-486 737.62,-498 737.62,-498 737.62,-504 731.62,-510 725.62,-510"/>
<text xml:space="preserve" text-anchor="middle" x="661" y="-494.5" font-family="Arial" font-size="10.00">dependency&#45;analyzer&#45;enhanced</text>
<text xml:space="preserve" text-anchor="middle" x="661" y="-482.5" font-family="Arial" font-size="10.00">Port: null</text>
</g>
<!-- payment&#45;service -->
<g id="node5" class="node">
<title>payment&#45;service</title>
<path fill="lightcyan" stroke="black" d="M222,-391.5C222,-391.5 158,-391.5 158,-391.5 152,-391.5 146,-385.5 146,-379.5 146,-379.5 146,-367.5 146,-367.5 146,-361.5 152,-355.5 158,-355.5 158,-355.5 222,-355.5 222,-355.5 228,-355.5 234,-361.5 234,-367.5 234,-367.5 234,-379.5 234,-379.5 234,-385.5 228,-391.5 222,-391.5"/>
<text xml:space="preserve" text-anchor="middle" x="190" y="-376" font-family="Arial" font-size="10.00">payment&#45;service</text>
<text xml:space="preserve" text-anchor="middle" x="190" y="-364" font-family="Arial" font-size="10.00">Port: 8084</text>
</g>
<!-- order&#45;service -->
<g id="node6" class="node">
<title>order&#45;service</title>
<path fill="lightblue" stroke="black" d="M297.12,-273C297.12,-273 248.88,-273 248.88,-273 242.88,-273 236.88,-267 236.88,-261 236.88,-261 236.88,-249 236.88,-249 236.88,-243 242.88,-237 248.88,-237 248.88,-237 297.12,-237 297.12,-237 303.12,-237 309.12,-243 309.12,-249 309.12,-249 309.12,-261 309.12,-261 309.12,-267 303.12,-273 297.12,-273"/>
<text xml:space="preserve" text-anchor="middle" x="273" y="-257.5" font-family="Arial" font-size="10.00">order&#45;service</text>
<text xml:space="preserve" text-anchor="middle" x="273" y="-245.5" font-family="Arial" font-size="10.00">Port: 8083</text>
</g>
<!-- payment&#45;service&#45;&gt;order&#45;service -->
<g id="edge1" class="edge">
<title>payment&#45;service&#45;&gt;order&#45;service</title>
<path fill="none" stroke="blue" d="M195.94,-355.15C200.95,-341.85 208.91,-323.39 219,-309 226.03,-298.98 235.1,-289.22 243.79,-280.88"/>
<polygon fill="blue" stroke="blue" points="251.04,-274.17 246.76,-284.26 248.26,-276.74 243.7,-280.96 243.7,-280.96 243.7,-280.96 248.26,-276.74 240.64,-277.66 251.04,-274.17"/>
<text xml:space="preserve" text-anchor="middle" x="241.5" y="-310.95" font-family="Arial" font-size="9.00" fill="blue">feign&#45;client</text>
</g>
<!-- email&#45;service -->
<g id="node10" class="node">
<title>email&#45;service</title>
<path fill="lightgray" stroke="black" d="M185.88,-36C185.88,-36 136.12,-36 136.12,-36 130.12,-36 124.12,-30 124.12,-24 124.12,-24 124.12,-12 124.12,-12 124.12,-6 130.12,0 136.12,0 136.12,0 185.88,0 185.88,0 191.88,0 197.88,-6 197.88,-12 197.88,-12 197.88,-24 197.88,-24 197.88,-30 191.88,-36 185.88,-36"/>
<text xml:space="preserve" text-anchor="middle" x="161" y="-20.5" font-family="Arial" font-size="10.00">email&#45;service</text>
<text xml:space="preserve" text-anchor="middle" x="161" y="-8.5" font-family="Arial" font-size="10.00">Port: 8087</text>
</g>
<!-- payment&#45;service&#45;&gt;email&#45;service -->
<g id="edge2" class="edge">
<title>payment&#45;service&#45;&gt;email&#45;service</title>
<path fill="none" stroke="blue" d="M178.72,-355.42C159.79,-325.59 122.34,-261.43 108.75,-201 107.73,-196.45 108.06,-195.12 108.75,-190.5 109.83,-183.25 137.64,-93.73 152.23,-47"/>
<polygon fill="blue" stroke="blue" points="155.19,-37.54 156.5,-48.43 154.06,-41.15 152.21,-47.09 152.21,-47.09 152.21,-47.09 154.06,-41.15 147.91,-45.75 155.19,-37.54"/>
<text xml:space="preserve" text-anchor="middle" x="135.38" y="-192.45" font-family="Arial" font-size="9.00" fill="blue">rest&#45;template</text>
</g>
<!-- order&#45;service&#45;&gt;product&#45;service -->
<g id="edge4" class="edge">
<title>order&#45;service&#45;&gt;product&#45;service</title>
<path fill="none" stroke="blue" d="M244.55,-236.74C223.08,-223.81 192.84,-205.79 166,-190.5 148.16,-180.34 128.29,-169.41 111.2,-160.13"/>
<polygon fill="blue" stroke="blue" points="102.56,-155.46 113.5,-156.26 105.89,-157.26 111.36,-160.22 111.36,-160.22 111.36,-160.22 105.89,-157.26 109.22,-164.18 102.56,-155.46"/>
<text xml:space="preserve" text-anchor="middle" x="206.15" y="-192.45" font-family="Arial" font-size="9.00" fill="blue">feign&#45;client</text>
</g>
<!-- common&#45;lib -->
<g id="node7" class="node">
<title>common&#45;lib</title>
<path fill="lightgray" stroke="black" d="M403.12,-36C403.12,-36 360.88,-36 360.88,-36 354.88,-36 348.88,-30 348.88,-24 348.88,-24 348.88,-12 348.88,-12 348.88,-6 354.88,0 360.88,0 360.88,0 403.12,0 403.12,0 409.12,0 415.12,-6 415.12,-12 415.12,-12 415.12,-24 415.12,-24 415.12,-30 409.12,-36 403.12,-36"/>
<text xml:space="preserve" text-anchor="middle" x="382" y="-20.5" font-family="Arial" font-size="10.00">common&#45;lib</text>
<text xml:space="preserve" text-anchor="middle" x="382" y="-8.5" font-family="Arial" font-size="10.00">Port: null</text>
</g>
<!-- order&#45;service&#45;&gt;common&#45;lib -->
<g id="edge3" class="edge">
<title>order&#45;service&#45;&gt;common&#45;lib</title>
<path fill="none" stroke="black" d="M269.13,-236.66C262.43,-202.03 252.49,-123.26 287,-72 299.1,-54.02 319.44,-41.51 338.2,-33.18"/>
<polygon fill="black" stroke="black" points="347.28,-29.44 339.75,-37.41 343.78,-30.88 338.03,-33.25 338.03,-33.25 338.03,-33.25 343.78,-30.88 336.32,-29.09 347.28,-29.44"/>
<text xml:space="preserve" text-anchor="middle" x="308.41" y="-133.2" font-family="Arial" font-size="9.00">maven&#45;dependency</text>
</g>
<!-- user&#45;service -->
<g id="node8" class="node">
<title>user&#45;service</title>
<path fill="lightblue" stroke="black" d="M429.62,-154.5C429.62,-154.5 384.38,-154.5 384.38,-154.5 378.38,-154.5 372.38,-148.5 372.38,-142.5 372.38,-142.5 372.38,-130.5 372.38,-130.5 372.38,-124.5 378.38,-118.5 384.38,-118.5 384.38,-118.5 429.62,-118.5 429.62,-118.5 435.62,-118.5 441.62,-124.5 441.62,-130.5 441.62,-130.5 441.62,-142.5 441.62,-142.5 441.62,-148.5 435.62,-154.5 429.62,-154.5"/>
<text xml:space="preserve" text-anchor="middle" x="407" y="-139" font-family="Arial" font-size="10.00">user&#45;service</text>
<text xml:space="preserve" text-anchor="middle" x="407" y="-127" font-family="Arial" font-size="10.00">Port: 8081</text>
</g>
<!-- order&#45;service&#45;&gt;user&#45;service -->
<g id="edge5" class="edge">
<title>order&#45;service&#45;&gt;user&#45;service</title>
<path fill="none" stroke="blue" d="M291.81,-236.52C305.78,-223.63 325.39,-205.76 343,-190.5 353.9,-181.05 366.05,-170.9 376.81,-162.03"/>
<polygon fill="blue" stroke="blue" points="384.52,-155.7 379.65,-165.52 381.6,-158.1 376.79,-162.05 376.79,-162.05 376.79,-162.05 381.6,-158.1 373.94,-158.57 384.52,-155.7"/>
<text xml:space="preserve" text-anchor="middle" x="365.5" y="-192.45" font-family="Arial" font-size="9.00" fill="blue">feign&#45;client</text>
</g>
<!-- order&#45;service&#45;&gt;email&#45;service -->
<g id="edge6" class="edge">
<title>order&#45;service&#45;&gt;email&#45;service</title>
<path fill="none" stroke="blue" d="M262.69,-236.76C254.84,-223.84 243.6,-205.82 233,-190.5 221.59,-174 215.08,-172.27 205.75,-154.5 187.33,-119.41 174.46,-75.27 167.39,-47.09"/>
<polygon fill="blue" stroke="blue" points="165.09,-37.6 171.82,-46.25 165.98,-41.27 167.45,-47.32 167.45,-47.32 167.45,-47.32 165.98,-41.27 163.07,-48.38 165.09,-37.6"/>
<text xml:space="preserve" text-anchor="middle" x="232.38" y="-133.2" font-family="Arial" font-size="9.00" fill="blue">rest&#45;template</text>
</g>
<!-- user&#45;service&#45;&gt;common&#45;lib -->
<g id="edge7" class="edge">
<title>user&#45;service&#45;&gt;common&#45;lib</title>
<path fill="none" stroke="black" d="M397.24,-118.45C392.01,-108.34 386.07,-95.09 383.25,-82.5 380.74,-71.28 380.06,-58.66 380.15,-47.65"/>
<polygon fill="black" stroke="black" points="380.45,-37.69 384.64,-47.82 380.33,-41.47 380.15,-47.69 380.15,-47.69 380.15,-47.69 380.33,-41.47 375.65,-47.55 380.45,-37.69"/>
<text xml:space="preserve" text-anchor="middle" x="424.12" y="-73.95" font-family="Arial" font-size="9.00">maven&#45;dependency</text>
</g>
<!-- logging&#45;service -->
<g id="node9" class="node">
<title>logging&#45;service</title>
<path fill="lightgray" stroke="black" d="M652.62,-36C652.62,-36 595.38,-36 595.38,-36 589.38,-36 583.38,-30 583.38,-24 583.38,-24 583.38,-12 583.38,-12 583.38,-6 589.38,0 595.38,0 595.38,0 652.62,0 652.62,0 658.62,0 664.62,-6 664.62,-12 664.62,-12 664.62,-24 664.62,-24 664.62,-30 658.62,-36 652.62,-36"/>
<text xml:space="preserve" text-anchor="middle" x="624" y="-20.5" font-family="Arial" font-size="10.00">logging&#45;service</text>
<text xml:space="preserve" text-anchor="middle" x="624" y="-8.5" font-family="Arial" font-size="10.00">Port: 8088</text>
</g>
<!-- user&#45;service&#45;&gt;logging&#45;service -->
<g id="edge8" class="edge">
<title>user&#45;service&#45;&gt;logging&#45;service</title>
<path fill="none" stroke="blue" d="M439.49,-118.06C477.39,-97.71 540.16,-64.01 581.8,-41.65"/>
<polygon fill="blue" stroke="blue" points="590.57,-36.95 583.89,-45.64 587.24,-38.74 581.76,-41.68 581.76,-41.68 581.76,-41.68 587.24,-38.74 579.63,-37.71 590.57,-36.95"/>
<text xml:space="preserve" text-anchor="middle" x="548.63" y="-73.95" font-family="Arial" font-size="9.00" fill="blue">rest&#45;template</text>
</g>
<!-- user&#45;service&#45;&gt;email&#45;service -->
<g id="edge9" class="edge">
<title>user&#45;service&#45;&gt;email&#45;service</title>
<path fill="none" stroke="blue" d="M372.02,-118.93C329.01,-98.57 255.86,-63.92 207.98,-41.25"/>
<polygon fill="blue" stroke="blue" points="198.97,-36.98 209.94,-37.2 202.39,-38.6 208.01,-41.26 208.01,-41.26 208.01,-41.26 202.39,-38.6 206.09,-45.33 198.97,-36.98"/>
<text xml:space="preserve" text-anchor="middle" x="318" y="-73.95" font-family="Arial" font-size="9.00" fill="blue">rest&#45;template</text>
</g>
<!-- gateway&#45;service -->
<g id="node11" class="node">
<title>gateway&#45;service</title>
<path fill="lightgreen" stroke="black" d="M452.62,-628.5C452.62,-628.5 389.38,-628.5 389.38,-628.5 383.38,-628.5 377.38,-622.5 377.38,-616.5 377.38,-616.5 377.38,-604.5 377.38,-604.5 377.38,-598.5 383.38,-592.5 389.38,-592.5 389.38,-592.5 452.62,-592.5 452.62,-592.5 458.62,-592.5 464.62,-598.5 464.62,-604.5 464.62,-604.5 464.62,-616.5 464.62,-616.5 464.62,-622.5 458.62,-628.5 452.62,-628.5"/>
<text xml:space="preserve" text-anchor="middle" x="421" y="-613" font-family="Arial" font-size="10.00">gateway&#45;service</text>
<text xml:space="preserve" text-anchor="middle" x="421" y="-601" font-family="Arial" font-size="10.00">Port: 8080</text>
</g>
<!-- gateway&#45;service&#45;&gt;product&#45;service -->
<g id="edge10" class="edge">
<title>gateway&#45;service&#45;&gt;product&#45;service</title>
<path fill="none" stroke="darkgreen" d="M377.03,-604.27C283.02,-591.86 71,-556.8 71,-493 71,-493 71,-493 71,-254 71,-223.89 70.32,-189.41 69.76,-165.82"/>
<polygon fill="darkgreen" stroke="darkgreen" points="69.51,-156.09 74.26,-165.97 69.61,-159.87 69.76,-166.08 69.76,-166.08 69.76,-166.08 69.61,-159.87 65.27,-166.19 69.51,-156.09"/>
<text xml:space="preserve" text-anchor="middle" x="88.25" y="-370.2" font-family="Arial" font-size="9.00" fill="darkgreen">gateway</text>
</g>
<!-- gateway&#45;service&#45;&gt;notification&#45;service -->
<g id="edge11" class="edge">
<title>gateway&#45;service&#45;&gt;notification&#45;service</title>
<path fill="none" stroke="darkgreen" d="M435.37,-592.06C451.37,-572.64 477.38,-541.07 495.74,-518.8"/>
<polygon fill="darkgreen" stroke="darkgreen" points="502.07,-511.12 499.18,-521.7 499.66,-514.04 495.71,-518.84 495.71,-518.84 495.71,-518.84 499.66,-514.04 492.24,-515.98 502.07,-511.12"/>
<text xml:space="preserve" text-anchor="middle" x="489.13" y="-547.95" font-family="Arial" font-size="9.00" fill="darkgreen">gateway</text>
</g>
<!-- gateway&#45;service&#45;&gt;dependency&#45;analyzer&#45;enhanced -->
<g id="edge12" class="edge">
<title>gateway&#45;service&#45;&gt;dependency&#45;analyzer&#45;enhanced</title>
<path fill="none" stroke="darkgreen" d="M456.93,-592.06C499.12,-571.58 569.16,-537.58 615.2,-515.23"/>
<polygon fill="darkgreen" stroke="darkgreen" points="624.12,-510.9 617.09,-519.32 620.72,-512.55 615.12,-515.27 615.12,-515.27 615.12,-515.27 620.72,-512.55 613.16,-511.22 624.12,-510.9"/>
<text xml:space="preserve" text-anchor="middle" x="565.45" y="-547.95" font-family="Arial" font-size="9.00" fill="darkgreen">gateway</text>
</g>
<!-- gateway&#45;service&#45;&gt;payment&#45;service -->
<g id="edge13" class="edge">
<title>gateway&#45;service&#45;&gt;payment&#45;service</title>
<path fill="none" stroke="darkgreen" d="M376.9,-604.63C322.77,-596.01 233.16,-572.59 192.5,-510 171.57,-477.77 176.33,-431.52 182.52,-402.25"/>
<polygon fill="darkgreen" stroke="darkgreen" points="184.72,-392.75 186.84,-403.51 183.87,-396.43 182.46,-402.49 182.46,-402.49 182.46,-402.49 183.87,-396.43 178.08,-401.47 184.72,-392.75"/>
<text xml:space="preserve" text-anchor="middle" x="209.75" y="-488.7" font-family="Arial" font-size="9.00" fill="darkgreen">gateway</text>
</g>
<!-- gateway&#45;service&#45;&gt;order&#45;service -->
<g id="edge15" class="edge">
<title>gateway&#45;service&#45;&gt;order&#45;service</title>
<path fill="none" stroke="darkgreen" d="M408.82,-592.47C402.01,-582.37 393.76,-569.12 388,-556.5 349.19,-471.45 361.92,-441.81 326,-355.5 315.43,-330.11 300.5,-302.62 289.18,-282.98"/>
<polygon fill="darkgreen" stroke="darkgreen" points="284.24,-274.53 293.17,-280.89 286.15,-277.79 289.29,-283.16 289.29,-283.16 289.29,-283.16 286.15,-277.79 285.4,-285.43 284.24,-274.53"/>
<text xml:space="preserve" text-anchor="middle" x="369.11" y="-429.45" font-family="Arial" font-size="9.00" fill="darkgreen">gateway</text>
</g>
<!-- gateway&#45;service&#45;&gt;common&#45;lib -->
<g id="edge20" class="edge">
<title>gateway&#45;service&#45;&gt;common&#45;lib</title>
<path fill="none" stroke="darkgreen" d="M425.64,-592.12C449.54,-502.29 556.92,-94.08 541,-72 515.1,-36.06 463.77,-24.12 426.41,-20.35"/>
<polygon fill="darkgreen" stroke="darkgreen" points="416.53,-19.53 426.87,-15.87 420.3,-19.84 426.49,-20.36 426.49,-20.36 426.49,-20.36 420.3,-19.84 426.12,-24.84 416.53,-19.53"/>
<text xml:space="preserve" text-anchor="middle" x="514.08" y="-310.95" font-family="Arial" font-size="9.00" fill="darkgreen">gateway</text>
</g>
<!-- gateway&#45;service&#45;&gt;user&#45;service -->
<g id="edge19" class="edge">
<title>gateway&#45;service&#45;&gt;user&#45;service</title>
<path fill="none" stroke="darkgreen" d="M416.4,-592.27C410.78,-569.66 402,-528.66 402,-493 402,-493 402,-493 402,-254 402,-223.87 403.69,-189.39 405.11,-165.81"/>
<polygon fill="darkgreen" stroke="darkgreen" points="405.71,-156.08 409.58,-166.34 405.48,-159.85 405.09,-166.06 405.09,-166.06 405.09,-166.06 405.48,-159.85 400.6,-165.77 405.71,-156.08"/>
<text xml:space="preserve" text-anchor="middle" x="419.25" y="-370.2" font-family="Arial" font-size="9.00" fill="darkgreen">gateway</text>
</g>
<!-- gateway&#45;service&#45;&gt;logging&#45;service -->
<g id="edge14" class="edge">
<title>gateway&#45;service&#45;&gt;logging&#45;service</title>
<path fill="none" stroke="darkgreen" d="M464.94,-595.34C468.01,-594.37 471.05,-593.42 474,-592.5 604.9,-551.73 766,-630.11 766,-493 766,-493 766,-493 766,-135.5 766,-87 715.87,-55 675.18,-37.02"/>
<polygon fill="darkgreen" stroke="darkgreen" points="666.19,-33.23 677.16,-32.97 669.68,-34.7 675.41,-37.12 675.41,-37.12 675.41,-37.12 669.68,-34.7 673.65,-41.26 666.19,-33.23"/>
<text xml:space="preserve" text-anchor="middle" x="783.25" y="-310.95" font-family="Arial" font-size="9.00" fill="darkgreen">gateway</text>
</g>
<!-- gateway&#45;service&#45;&gt;email&#45;service -->
<g id="edge17" class="edge">
<title>gateway&#45;service&#45;&gt;email&#45;service</title>
<path fill="none" stroke="darkgreen" d="M377.14,-606.7C269.31,-598.61 0,-570.64 0,-493 0,-493 0,-493 0,-135.5 0,-79.05 65.77,-47.17 113.24,-31.51"/>
<polygon fill="darkgreen" stroke="darkgreen" points="122.5,-28.6 114.31,-35.89 118.89,-29.73 112.96,-31.6 112.96,-31.6 112.96,-31.6 118.89,-29.73 111.61,-27.3 122.5,-28.6"/>
<text xml:space="preserve" text-anchor="middle" x="17.25" y="-310.95" font-family="Arial" font-size="9.00" fill="darkgreen">gateway</text>
</g>
<!-- analytics&#45;service -->
<g id="node12" class="node">
<title>analytics&#45;service</title>
<path fill="lightgray" stroke="black" d="M871.75,-510C871.75,-510 806.25,-510 806.25,-510 800.25,-510 794.25,-504 794.25,-498 794.25,-498 794.25,-486 794.25,-486 794.25,-480 800.25,-474 806.25,-474 806.25,-474 871.75,-474 871.75,-474 877.75,-474 883.75,-480 883.75,-486 883.75,-486 883.75,-498 883.75,-498 883.75,-504 877.75,-510 871.75,-510"/>
<text xml:space="preserve" text-anchor="middle" x="839" y="-494.5" font-family="Arial" font-size="10.00">analytics&#45;service</text>
<text xml:space="preserve" text-anchor="middle" x="839" y="-482.5" font-family="Arial" font-size="10.00">Port: 8090</text>
</g>
<!-- gateway&#45;service&#45;&gt;analytics&#45;service -->
<g id="edge16" class="edge">
<title>gateway&#45;service&#45;&gt;analytics&#45;service</title>
<path fill="none" stroke="darkgreen" d="M465.07,-594.66C468.08,-593.87 471.07,-593.14 474,-592.5 607.82,-563.45 657.89,-618.47 780,-556.5 796.79,-547.98 811.26,-532.62 821.67,-519.14"/>
<polygon fill="darkgreen" stroke="darkgreen" points="827.49,-511.2 825.21,-521.92 825.25,-514.25 821.58,-519.27 821.58,-519.27 821.58,-519.27 825.25,-514.25 817.95,-516.61 827.49,-511.2"/>
<text xml:space="preserve" text-anchor="middle" x="812.93" y="-547.95" font-family="Arial" font-size="9.00" fill="darkgreen">gateway</text>
</g>
<!-- reporting&#45;service -->
<g id="node13" class="node">
<title>reporting&#45;service</title>
<path fill="lightgray" stroke="black" d="M312,-510C312,-510 248,-510 248,-510 242,-510 236,-504 236,-498 236,-498 236,-486 236,-486 236,-480 242,-474 248,-474 248,-474 312,-474 312,-474 318,-474 324,-480 324,-486 324,-486 324,-498 324,-498 324,-504 318,-510 312,-510"/>
<text xml:space="preserve" text-anchor="middle" x="280" y="-494.5" font-family="Arial" font-size="10.00">reporting&#45;service</text>
<text xml:space="preserve" text-anchor="middle" x="280" y="-482.5" font-family="Arial" font-size="10.00">Port: 8089</text>
</g>
<!-- gateway&#45;service&#45;&gt;reporting&#45;service -->
<g id="edge18" class="edge">
<title>gateway&#45;service&#45;&gt;reporting&#45;service</title>
<path fill="none" stroke="darkgreen" d="M376.91,-598.71C352.42,-590.69 323.04,-577.44 303.5,-556.5 294.35,-546.7 288.69,-533.02 285.22,-520.87"/>
<polygon fill="darkgreen" stroke="darkgreen" points="282.91,-511.48 289.67,-520.11 283.82,-515.15 285.3,-521.19 285.3,-521.19 285.3,-521.19 283.82,-515.15 280.93,-522.26 282.91,-511.48"/>
<text xml:space="preserve" text-anchor="middle" x="320.75" y="-547.95" font-family="Arial" font-size="9.00" fill="darkgreen">gateway</text>
</g>
<!-- inventory&#45;service -->
<g id="node14" class="node">
<title>inventory&#45;service</title>
<path fill="lightcyan" stroke="black" d="M980.12,-510C980.12,-510 913.88,-510 913.88,-510 907.88,-510 901.88,-504 901.88,-498 901.88,-498 901.88,-486 901.88,-486 901.88,-480 907.88,-474 913.88,-474 913.88,-474 980.12,-474 980.12,-474 986.12,-474 992.12,-480 992.12,-486 992.12,-486 992.12,-498 992.12,-498 992.12,-504 986.12,-510 980.12,-510"/>
<text xml:space="preserve" text-anchor="middle" x="947" y="-494.5" font-family="Arial" font-size="10.00">inventory&#45;service</text>
<text xml:space="preserve" text-anchor="middle" x="947" y="-482.5" font-family="Arial" font-size="10.00">Port: 8085</text>
</g>
<!-- gateway&#45;service&#45;&gt;inventory&#45;service -->
<g id="edge21" class="edge">
<title>gateway&#45;service&#45;&gt;inventory&#45;service</title>
<path fill="none" stroke="darkgreen" d="M465.06,-594.6C468.07,-593.82 471.07,-593.11 474,-592.5 631.43,-559.76 680.66,-604.91 834,-556.5 862.79,-547.41 892.43,-530.41 914.13,-516.29"/>
<polygon fill="darkgreen" stroke="darkgreen" points="922.2,-510.92 916.37,-520.2 919.05,-513.01 913.88,-516.46 913.88,-516.46 913.88,-516.46 919.05,-513.01 911.38,-512.71 922.2,-510.92"/>
<text xml:space="preserve" text-anchor="middle" x="877.61" y="-547.95" font-family="Arial" font-size="9.00" fill="darkgreen">gateway</text>
</g>
<!-- reporting&#45;service&#45;&gt;payment&#45;service -->
<g id="edge22" class="edge">
<title>reporting&#45;service&#45;&gt;payment&#45;service</title>
<path fill="none" stroke="blue" d="M255.48,-473.67C243.35,-464.18 229.16,-451.6 219,-438 210.89,-427.15 204.33,-413.67 199.52,-401.92"/>
<polygon fill="blue" stroke="blue" points="196.03,-392.88 203.83,-400.59 197.39,-396.41 199.63,-402.21 199.63,-402.21 199.63,-402.21 197.39,-396.41 195.43,-403.83 196.03,-392.88"/>
<text xml:space="preserve" text-anchor="middle" x="241.5" y="-429.45" font-family="Arial" font-size="9.00" fill="blue">feign&#45;client</text>
</g>
<!-- reporting&#45;service&#45;&gt;order&#45;service -->
<g id="edge23" class="edge">
<title>reporting&#45;service&#45;&gt;order&#45;service</title>
<path fill="none" stroke="blue" d="M279.49,-473.72C278.29,-433.57 275.31,-333.67 273.85,-284.4"/>
<polygon fill="blue" stroke="blue" points="273.55,-274.52 278.35,-284.38 273.66,-278.3 273.85,-284.52 273.85,-284.52 273.85,-284.52 273.66,-278.3 269.35,-284.65 273.55,-274.52"/>
<text xml:space="preserve" text-anchor="middle" x="299.47" y="-370.2" font-family="Arial" font-size="9.00" fill="blue">feign&#45;client</text>
</g>
<!-- legend_info -->
<g id="node15" class="node">
<title>legend_info</title>
<path fill="lightgrey" stroke="none" d="M996.38,-628.5C996.38,-628.5 589.62,-628.5 589.62,-628.5 583.62,-628.5 577.62,-622.5 577.62,-616.5 577.62,-616.5 577.62,-604.5 577.62,-604.5 577.62,-598.5 583.62,-592.5 589.62,-592.5 589.62,-592.5 996.38,-592.5 996.38,-592.5 1002.38,-592.5 1008.38,-598.5 1008.38,-604.5 1008.38,-604.5 1008.38,-616.5 1008.38,-616.5 1008.38,-622.5 1002.38,-628.5 996.38,-628.5"/>
<text xml:space="preserve" text-anchor="middle" x="793" y="-613" font-family="Arial" font-size="10.00">Service Types: Gateway=Green | Config=Yellow | Business=Blue | Support=Cyan | Other=Gray</text>
<text xml:space="preserve" text-anchor="middle" x="793" y="-601" font-family="Arial" font-size="10.00">Connections: →Gateway(Green) →REST/Feign(Blue) →Messaging(Purple)</text>
</g>
</g>
</svg>
