<svg width="1200px" height="800px"
 viewBox="0.00 0.00 1565.00 555.00" xmlns="http://www.w3.org/2000/svg" xmlns:xlink="http://www.w3.org/1999/xlink">
<g id="graph0" class="graph" transform="scale(1.0 1.0) rotate(0.0) translate(4.0 550.5)">
<title>microservices</title>
<polygon fill="white" stroke="none" points="-4,4 -4,-550.5 1561,-550.5 1561,4 -4,4"/>
<text xml:space="preserve" text-anchor="middle" x="778.5" y="-531.1" font-family="Arial" font-size="12.00">Microservices Dependency Graph</text>
<text xml:space="preserve" text-anchor="middle" x="778.5" y="-516.85" font-family="Arial" font-size="12.00">(Generated with GraphViz Java &#45; Pure Maven)</text>
<!-- product&#45;service -->
<g id="node1" class="node">
<title>product&#45;service</title>
<path fill="lightblue" stroke="black" d="M164,-154.5C164,-154.5 105.25,-154.5 105.25,-154.5 99.25,-154.5 93.25,-148.5 93.25,-142.5 93.25,-142.5 93.25,-130.5 93.25,-130.5 93.25,-124.5 99.25,-118.5 105.25,-118.5 105.25,-118.5 164,-118.5 164,-118.5 170,-118.5 176,-124.5 176,-130.5 176,-130.5 176,-142.5 176,-142.5 176,-148.5 170,-154.5 164,-154.5"/>
<text xml:space="preserve" text-anchor="middle" x="134.62" y="-139" font-family="Arial" font-size="10.00">product&#45;service</text>
<text xml:space="preserve" text-anchor="middle" x="134.62" y="-127" font-family="Arial" font-size="10.00">Port: 8082</text>
</g>
<!-- config&#45;service -->
<g id="node2" class="node">
<title>config&#45;service</title>
<path fill="lightyellow" stroke="black" d="M404,-510C404,-510 351.25,-510 351.25,-510 345.25,-510 339.25,-504 339.25,-498 339.25,-498 339.25,-486 339.25,-486 339.25,-480 345.25,-474 351.25,-474 351.25,-474 404,-474 404,-474 410,-474 416,-480 416,-486 416,-486 416,-498 416,-498 416,-504 410,-510 404,-510"/>
<text xml:space="preserve" text-anchor="middle" x="377.62" y="-494.5" font-family="Arial" font-size="10.00">config&#45;service</text>
<text xml:space="preserve" text-anchor="middle" x="377.62" y="-482.5" font-family="Arial" font-size="10.00">Port: 8761</text>
</g>
<!-- notification&#45;service -->
<g id="node3" class="node">
<title>notification&#45;service</title>
<path fill="lightcyan" stroke="black" d="M519.5,-510C519.5,-510 445.75,-510 445.75,-510 439.75,-510 433.75,-504 433.75,-498 433.75,-498 433.75,-486 433.75,-486 433.75,-480 439.75,-474 445.75,-474 445.75,-474 519.5,-474 519.5,-474 525.5,-474 531.5,-480 531.5,-486 531.5,-486 531.5,-498 531.5,-498 531.5,-504 525.5,-510 519.5,-510"/>
<text xml:space="preserve" text-anchor="middle" x="482.62" y="-494.5" font-family="Arial" font-size="10.00">notification&#45;service</text>
<text xml:space="preserve" text-anchor="middle" x="482.62" y="-482.5" font-family="Arial" font-size="10.00">Port: 8086</text>
</g>
<!-- dependency&#45;analyzer&#45;enhanced -->
<g id="node4" class="node">
<title>dependency&#45;analyzer&#45;enhanced</title>
<path fill="lightgray" stroke="black" d="M691.25,-510C691.25,-510 562,-510 562,-510 556,-510 550,-504 550,-498 550,-498 550,-486 550,-486 550,-480 556,-474 562,-474 562,-474 691.25,-474 691.25,-474 697.25,-474 703.25,-480 703.25,-486 703.25,-486 703.25,-498 703.25,-498 703.25,-504 697.25,-510 691.25,-510"/>
<text xml:space="preserve" text-anchor="middle" x="626.62" y="-494.5" font-family="Arial" font-size="10.00">dependency&#45;analyzer&#45;enhanced</text>
<text xml:space="preserve" text-anchor="middle" x="626.62" y="-482.5" font-family="Arial" font-size="10.00">Port: null</text>
</g>
<!-- payment&#45;service -->
<g id="node5" class="node">
<title>payment&#45;service</title>
<path fill="lightcyan" stroke="black" d="M269.62,-391.5C269.62,-391.5 205.62,-391.5 205.62,-391.5 199.62,-391.5 193.62,-385.5 193.62,-379.5 193.62,-379.5 193.62,-367.5 193.62,-367.5 193.62,-361.5 199.62,-355.5 205.62,-355.5 205.62,-355.5 269.62,-355.5 269.62,-355.5 275.62,-355.5 281.62,-361.5 281.62,-367.5 281.62,-367.5 281.62,-379.5 281.62,-379.5 281.62,-385.5 275.62,-391.5 269.62,-391.5"/>
<text xml:space="preserve" text-anchor="middle" x="237.62" y="-376" font-family="Arial" font-size="10.00">payment&#45;service</text>
<text xml:space="preserve" text-anchor="middle" x="237.62" y="-364" font-family="Arial" font-size="10.00">Port: 8084</text>
</g>
<!-- order&#45;service -->
<g id="node6" class="node">
<title>order&#45;service</title>
<path fill="lightblue" stroke="black" d="M205.75,-273C205.75,-273 157.5,-273 157.5,-273 151.5,-273 145.5,-267 145.5,-261 145.5,-261 145.5,-249 145.5,-249 145.5,-243 151.5,-237 157.5,-237 157.5,-237 205.75,-237 205.75,-237 211.75,-237 217.75,-243 217.75,-249 217.75,-249 217.75,-261 217.75,-261 217.75,-267 211.75,-273 205.75,-273"/>
<text xml:space="preserve" text-anchor="middle" x="181.62" y="-257.5" font-family="Arial" font-size="10.00">order&#45;service</text>
<text xml:space="preserve" text-anchor="middle" x="181.62" y="-245.5" font-family="Arial" font-size="10.00">Port: 8083</text>
</g>
<!-- payment&#45;service&#45;&gt;order&#45;service -->
<g id="edge1" class="edge">
<title>payment&#45;service&#45;&gt;order&#45;service</title>
<path fill="none" stroke="blue" d="M229.24,-355.06C220.07,-335.99 205.27,-305.19 194.6,-283"/>
<polygon fill="blue" stroke="blue" points="190.41,-274.28 198.8,-281.34 192.05,-277.69 194.74,-283.29 194.74,-283.29 194.74,-283.29 192.05,-277.69 190.69,-285.24 190.41,-274.28"/>
<text xml:space="preserve" text-anchor="middle" x="233.8" y="-310.95" font-family="Arial" font-size="9.00" fill="blue">feign&#45;client</text>
</g>
<!-- email&#45;service -->
<g id="node9" class="node">
<title>email&#45;service</title>
<path fill="lightgray" stroke="black" d="M236.5,-36C236.5,-36 186.75,-36 186.75,-36 180.75,-36 174.75,-30 174.75,-24 174.75,-24 174.75,-12 174.75,-12 174.75,-6 180.75,0 186.75,0 186.75,0 236.5,0 236.5,0 242.5,0 248.5,-6 248.5,-12 248.5,-12 248.5,-24 248.5,-24 248.5,-30 242.5,-36 236.5,-36"/>
<text xml:space="preserve" text-anchor="middle" x="211.62" y="-20.5" font-family="Arial" font-size="10.00">email&#45;service</text>
<text xml:space="preserve" text-anchor="middle" x="211.62" y="-8.5" font-family="Arial" font-size="10.00">Port: 8087</text>
</g>
<!-- payment&#45;service&#45;&gt;email&#45;service -->
<g id="edge2" class="edge">
<title>payment&#45;service&#45;&gt;email&#45;service</title>
<path fill="none" stroke="blue" d="M247.05,-355.4C252.11,-345.29 257.86,-332.04 260.62,-319.5 279.85,-232.24 286.27,-205.19 264.62,-118.5 258,-91.98 242.83,-64.78 230.41,-45.54"/>
<polygon fill="blue" stroke="blue" points="224.9,-37.26 234.19,-43.09 227,-40.41 230.44,-45.59 230.44,-45.59 230.44,-45.59 227,-40.41 226.7,-48.08 224.9,-37.26"/>
<text xml:space="preserve" text-anchor="middle" x="304.69" y="-192.45" font-family="Arial" font-size="9.00" fill="blue">rest&#45;template</text>
</g>
<!-- order&#45;service&#45;&gt;product&#45;service -->
<g id="edge3" class="edge">
<title>order&#45;service&#45;&gt;product&#45;service</title>
<path fill="none" stroke="blue" d="M170.94,-236.82C164.96,-226.68 157.71,-213.43 152.62,-201 147.97,-189.63 144.06,-176.64 141.08,-165.38"/>
<polygon fill="blue" stroke="blue" points="138.72,-156.01 145.53,-164.61 139.64,-159.68 141.16,-165.71 141.16,-165.71 141.16,-165.71 139.64,-159.68 136.8,-166.81 138.72,-156.01"/>
<text xml:space="preserve" text-anchor="middle" x="175.12" y="-192.45" font-family="Arial" font-size="9.00" fill="blue">feign&#45;client</text>
</g>
<!-- user&#45;service -->
<g id="node7" class="node">
<title>user&#45;service</title>
<path fill="lightblue" stroke="black" d="M63.25,-154.5C63.25,-154.5 18,-154.5 18,-154.5 12,-154.5 6,-148.5 6,-142.5 6,-142.5 6,-130.5 6,-130.5 6,-124.5 12,-118.5 18,-118.5 18,-118.5 63.25,-118.5 63.25,-118.5 69.25,-118.5 75.25,-124.5 75.25,-130.5 75.25,-130.5 75.25,-142.5 75.25,-142.5 75.25,-148.5 69.25,-154.5 63.25,-154.5"/>
<text xml:space="preserve" text-anchor="middle" x="40.62" y="-139" font-family="Arial" font-size="10.00">user&#45;service</text>
<text xml:space="preserve" text-anchor="middle" x="40.62" y="-127" font-family="Arial" font-size="10.00">Port: 8081</text>
</g>
<!-- order&#45;service&#45;&gt;user&#45;service -->
<g id="edge4" class="edge">
<title>order&#45;service&#45;&gt;user&#45;service</title>
<path fill="none" stroke="blue" d="M145.34,-253.9C106.33,-251.6 45.96,-241.24 16.62,-201 8.63,-190.03 12.69,-176.07 19.57,-164.04"/>
<polygon fill="blue" stroke="blue" points="24.86,-155.92 23.18,-166.75 22.8,-159.09 19.4,-164.3 19.4,-164.3 19.4,-164.3 22.8,-159.09 15.63,-161.84 24.86,-155.92"/>
<text xml:space="preserve" text-anchor="middle" x="39.12" y="-192.45" font-family="Arial" font-size="9.00" fill="blue">feign&#45;client</text>
</g>
<!-- order&#45;service&#45;&gt;email&#45;service -->
<g id="edge5" class="edge">
<title>order&#45;service&#45;&gt;email&#45;service</title>
<path fill="none" stroke="blue" d="M187.93,-236.57C191.36,-226.34 195.36,-213.09 197.62,-201 207.65,-147.41 210.53,-83.64 211.33,-47.59"/>
<polygon fill="blue" stroke="blue" points="211.51,-37.7 215.83,-47.78 211.44,-41.48 211.33,-47.69 211.33,-47.69 211.33,-47.69 211.44,-41.48 206.83,-47.61 211.51,-37.7"/>
<text xml:space="preserve" text-anchor="middle" x="234.3" y="-133.2" font-family="Arial" font-size="9.00" fill="blue">rest&#45;template</text>
</g>
<!-- user&#45;service&#45;&gt;order&#45;service -->
<g id="edge6" class="edge">
<title>user&#45;service&#45;&gt;order&#45;service</title>
<path fill="none" stroke="blue" d="M54.62,-154.78C65.97,-168.21 82.79,-186.88 99.62,-201 112.5,-211.8 127.7,-222.18 141.49,-230.85"/>
<polygon fill="blue" stroke="blue" points="149.73,-235.92 138.86,-234.51 146.51,-233.94 141.21,-230.68 141.21,-230.68 141.21,-230.68 146.51,-233.94 143.57,-226.85 149.73,-235.92"/>
<text xml:space="preserve" text-anchor="middle" x="122.12" y="-192.45" font-family="Arial" font-size="9.00" fill="blue">feign&#45;client</text>
</g>
<!-- logging&#45;service -->
<g id="node8" class="node">
<title>logging&#45;service</title>
<path fill="lightgray" stroke="black" d="M69.25,-36C69.25,-36 12,-36 12,-36 6,-36 0,-30 0,-24 0,-24 0,-12 0,-12 0,-6 6,0 12,0 12,0 69.25,0 69.25,0 75.25,0 81.25,-6 81.25,-12 81.25,-12 81.25,-24 81.25,-24 81.25,-30 75.25,-36 69.25,-36"/>
<text xml:space="preserve" text-anchor="middle" x="40.62" y="-20.5" font-family="Arial" font-size="10.00">logging&#45;service</text>
<text xml:space="preserve" text-anchor="middle" x="40.62" y="-8.5" font-family="Arial" font-size="10.00">Port: 8088</text>
</g>
<!-- user&#45;service&#45;&gt;logging&#45;service -->
<g id="edge7" class="edge">
<title>user&#45;service&#45;&gt;logging&#45;service</title>
<path fill="none" stroke="blue" d="M40.62,-118.06C40.62,-99.33 40.62,-69.3 40.62,-47.21"/>
<polygon fill="blue" stroke="blue" points="40.63,-37.4 45.13,-47.4 40.63,-41.18 40.63,-47.4 40.63,-47.4 40.63,-47.4 40.63,-41.18 36.13,-47.4 40.63,-37.4"/>
<text xml:space="preserve" text-anchor="middle" x="67.25" y="-73.95" font-family="Arial" font-size="9.00" fill="blue">rest&#45;template</text>
</g>
<!-- user&#45;service&#45;&gt;email&#45;service -->
<g id="edge8" class="edge">
<title>user&#45;service&#45;&gt;email&#45;service</title>
<path fill="none" stroke="blue" d="M66.23,-118.06C95.65,-98.01 144.1,-65 176.9,-42.65"/>
<polygon fill="blue" stroke="blue" points="185.12,-37.06 179.39,-46.41 182,-39.19 176.86,-42.69 176.86,-42.69 176.86,-42.69 182,-39.19 174.32,-38.97 185.12,-37.06"/>
<text xml:space="preserve" text-anchor="middle" x="157.88" y="-73.95" font-family="Arial" font-size="9.00" fill="blue">rest&#45;template</text>
</g>
<!-- gateway&#45;service -->
<g id="node10" class="node">
<title>gateway&#45;service</title>
<path fill="lightgreen" stroke="black" d="M796.25,-510C796.25,-510 733,-510 733,-510 727,-510 721,-504 721,-498 721,-498 721,-486 721,-486 721,-480 727,-474 733,-474 733,-474 796.25,-474 796.25,-474 802.25,-474 808.25,-480 808.25,-486 808.25,-486 808.25,-498 808.25,-498 808.25,-504 802.25,-510 796.25,-510"/>
<text xml:space="preserve" text-anchor="middle" x="764.62" y="-494.5" font-family="Arial" font-size="10.00">gateway&#45;service</text>
<text xml:space="preserve" text-anchor="middle" x="764.62" y="-482.5" font-family="Arial" font-size="10.00">Port: 8080</text>
</g>
<!-- analytics&#45;service -->
<g id="node11" class="node">
<title>analytics&#45;service</title>
<path fill="lightgray" stroke="black" d="M903.38,-510C903.38,-510 837.88,-510 837.88,-510 831.88,-510 825.88,-504 825.88,-498 825.88,-498 825.88,-486 825.88,-486 825.88,-480 831.88,-474 837.88,-474 837.88,-474 903.38,-474 903.38,-474 909.38,-474 915.38,-480 915.38,-486 915.38,-486 915.38,-498 915.38,-498 915.38,-504 909.38,-510 903.38,-510"/>
<text xml:space="preserve" text-anchor="middle" x="870.62" y="-494.5" font-family="Arial" font-size="10.00">analytics&#45;service</text>
<text xml:space="preserve" text-anchor="middle" x="870.62" y="-482.5" font-family="Arial" font-size="10.00">Port: 8090</text>
</g>
<!-- reporting&#45;service -->
<g id="node12" class="node">
<title>reporting&#45;service</title>
<path fill="lightgray" stroke="black" d="M309.62,-510C309.62,-510 245.62,-510 245.62,-510 239.62,-510 233.62,-504 233.62,-498 233.62,-498 233.62,-486 233.62,-486 233.62,-480 239.62,-474 245.62,-474 245.62,-474 309.62,-474 309.62,-474 315.62,-474 321.62,-480 321.62,-486 321.62,-486 321.62,-498 321.62,-498 321.62,-504 315.62,-510 309.62,-510"/>
<text xml:space="preserve" text-anchor="middle" x="277.62" y="-494.5" font-family="Arial" font-size="10.00">reporting&#45;service</text>
<text xml:space="preserve" text-anchor="middle" x="277.62" y="-482.5" font-family="Arial" font-size="10.00">Port: 8089</text>
</g>
<!-- reporting&#45;service&#45;&gt;payment&#45;service -->
<g id="edge9" class="edge">
<title>reporting&#45;service&#45;&gt;payment&#45;service</title>
<path fill="none" stroke="blue" d="M271.36,-473.85C267.6,-463.49 262.76,-450.01 258.62,-438 254.6,-426.31 250.29,-413.35 246.62,-402.21"/>
<polygon fill="blue" stroke="blue" points="243.59,-392.95 250.98,-401.05 244.77,-396.54 246.7,-402.45 246.7,-402.45 246.7,-402.45 244.77,-396.54 242.43,-403.85 243.59,-392.95"/>
<text xml:space="preserve" text-anchor="middle" x="281.12" y="-429.45" font-family="Arial" font-size="9.00" fill="blue">feign&#45;client</text>
</g>
<!-- reporting&#45;service&#45;&gt;order&#45;service -->
<g id="edge10" class="edge">
<title>reporting&#45;service&#45;&gt;order&#45;service</title>
<path fill="none" stroke="blue" d="M288.67,-473.61C294.36,-463.62 300.71,-450.58 303.62,-438 309.28,-413.64 311.85,-409.31 290.62,-355.5 281.6,-332.62 277.86,-326.55 260.62,-309 249.64,-297.81 235.93,-287.63 223.04,-279.25"/>
<polygon fill="blue" stroke="blue" points="214.87,-274.13 225.73,-275.63 218.07,-276.14 223.34,-279.44 223.34,-279.44 223.34,-279.44 218.07,-276.14 220.95,-283.25 214.87,-274.13"/>
<text xml:space="preserve" text-anchor="middle" x="326.06" y="-370.2" font-family="Arial" font-size="9.00" fill="blue">feign&#45;client</text>
</g>
<!-- common&#45;lib -->
<g id="node13" class="node">
<title>common&#45;lib</title>
<path fill="lightgray" stroke="black" d="M987.75,-510C987.75,-510 945.5,-510 945.5,-510 939.5,-510 933.5,-504 933.5,-498 933.5,-498 933.5,-486 933.5,-486 933.5,-480 939.5,-474 945.5,-474 945.5,-474 987.75,-474 987.75,-474 993.75,-474 999.75,-480 999.75,-486 999.75,-486 999.75,-498 999.75,-498 999.75,-504 993.75,-510 987.75,-510"/>
<text xml:space="preserve" text-anchor="middle" x="966.62" y="-494.5" font-family="Arial" font-size="10.00">common&#45;lib</text>
<text xml:space="preserve" text-anchor="middle" x="966.62" y="-482.5" font-family="Arial" font-size="10.00">Port: null</text>
</g>
<!-- inventory&#45;service -->
<g id="node14" class="node">
<title>inventory&#45;service</title>
<path fill="lightcyan" stroke="black" d="M1095.75,-510C1095.75,-510 1029.5,-510 1029.5,-510 1023.5,-510 1017.5,-504 1017.5,-498 1017.5,-498 1017.5,-486 1017.5,-486 1017.5,-480 1023.5,-474 1029.5,-474 1029.5,-474 1095.75,-474 1095.75,-474 1101.75,-474 1107.75,-480 1107.75,-486 1107.75,-486 1107.75,-498 1107.75,-498 1107.75,-504 1101.75,-510 1095.75,-510"/>
<text xml:space="preserve" text-anchor="middle" x="1062.62" y="-494.5" font-family="Arial" font-size="10.00">inventory&#45;service</text>
<text xml:space="preserve" text-anchor="middle" x="1062.62" y="-482.5" font-family="Arial" font-size="10.00">Port: 8085</text>
</g>
<!-- legend_info -->
<g id="node15" class="node">
<title>legend_info</title>
<path fill="lightgrey" stroke="none" d="M1545,-510C1545,-510 1138.25,-510 1138.25,-510 1132.25,-510 1126.25,-504 1126.25,-498 1126.25,-498 1126.25,-486 1126.25,-486 1126.25,-480 1132.25,-474 1138.25,-474 1138.25,-474 1545,-474 1545,-474 1551,-474 1557,-480 1557,-486 1557,-486 1557,-498 1557,-498 1557,-504 1551,-510 1545,-510"/>
<text xml:space="preserve" text-anchor="middle" x="1341.62" y="-494.5" font-family="Arial" font-size="10.00">Service Types: Gateway=Green | Config=Yellow | Business=Blue | Support=Cyan | Other=Gray</text>
<text xml:space="preserve" text-anchor="middle" x="1341.62" y="-482.5" font-family="Arial" font-size="10.00">Connections: &#160;&#45;&gt; Gateway(Green) &#160;&#45;&gt; REST/Feign(Blue) &#160;&#45;&gt; Messaging(Purple)</text>
</g>
</g>
</svg>
