<svg width="1200px" height="800px"
 viewBox="0.00 0.00 1749.00 436.00" xmlns="http://www.w3.org/2000/svg" xmlns:xlink="http://www.w3.org/1999/xlink">
<g id="graph0" class="graph" transform="scale(1.0 1.0) rotate(0.0) translate(4.0 432.0)">
<title>microservices</title>
<polygon fill="white" stroke="none" points="-4,4 -4,-432 1745.47,-432 1745.47,4 -4,4"/>
<text xml:space="preserve" text-anchor="middle" x="870.74" y="-412.6" font-family="Arial" font-size="12.00">Microservices Dependency Graph</text>
<text xml:space="preserve" text-anchor="middle" x="870.74" y="-398.35" font-family="Arial" font-size="12.00">(Generated with GraphViz Java &#45; Pure Maven)</text>
<!-- product&#45;service -->
<g id="node1" class="node">
<title>product&#45;service</title>
<path fill="lightblue" stroke="black" d="M70.75,-273C70.75,-273 12,-273 12,-273 6,-273 0,-267 0,-261 0,-261 0,-249 0,-249 0,-243 6,-237 12,-237 12,-237 70.75,-237 70.75,-237 76.75,-237 82.75,-243 82.75,-249 82.75,-249 82.75,-261 82.75,-261 82.75,-267 76.75,-273 70.75,-273"/>
<text xml:space="preserve" text-anchor="middle" x="41.38" y="-257.5" font-family="Arial" font-size="10.00">product&#45;service</text>
<text xml:space="preserve" text-anchor="middle" x="41.38" y="-245.5" font-family="Arial" font-size="10.00">Port: 8082</text>
</g>
<!-- config&#45;service -->
<g id="node2" class="node">
<title>config&#45;service</title>
<path fill="lightyellow" stroke="black" d="M929.75,-391.5C929.75,-391.5 877,-391.5 877,-391.5 871,-391.5 865,-385.5 865,-379.5 865,-379.5 865,-367.5 865,-367.5 865,-361.5 871,-355.5 877,-355.5 877,-355.5 929.75,-355.5 929.75,-355.5 935.75,-355.5 941.75,-361.5 941.75,-367.5 941.75,-367.5 941.75,-379.5 941.75,-379.5 941.75,-385.5 935.75,-391.5 929.75,-391.5"/>
<text xml:space="preserve" text-anchor="middle" x="903.38" y="-376" font-family="Arial" font-size="10.00">config&#45;service</text>
<text xml:space="preserve" text-anchor="middle" x="903.38" y="-364" font-family="Arial" font-size="10.00">Port: 8761</text>
</g>
<!-- notification&#45;service -->
<g id="node3" class="node">
<title>notification&#45;service</title>
<path fill="lightcyan" stroke="black" d="M186.25,-273C186.25,-273 112.5,-273 112.5,-273 106.5,-273 100.5,-267 100.5,-261 100.5,-261 100.5,-249 100.5,-249 100.5,-243 106.5,-237 112.5,-237 112.5,-237 186.25,-237 186.25,-237 192.25,-237 198.25,-243 198.25,-249 198.25,-249 198.25,-261 198.25,-261 198.25,-267 192.25,-273 186.25,-273"/>
<text xml:space="preserve" text-anchor="middle" x="149.38" y="-257.5" font-family="Arial" font-size="10.00">notification&#45;service</text>
<text xml:space="preserve" text-anchor="middle" x="149.38" y="-245.5" font-family="Arial" font-size="10.00">Port: 8086</text>
</g>
<!-- dependency&#45;analyzer&#45;enhanced -->
<g id="node4" class="node">
<title>dependency&#45;analyzer&#45;enhanced</title>
<path fill="lightgray" stroke="black" d="M358,-273C358,-273 228.75,-273 228.75,-273 222.75,-273 216.75,-267 216.75,-261 216.75,-261 216.75,-249 216.75,-249 216.75,-243 222.75,-237 228.75,-237 228.75,-237 358,-237 358,-237 364,-237 370,-243 370,-249 370,-249 370,-261 370,-261 370,-267 364,-273 358,-273"/>
<text xml:space="preserve" text-anchor="middle" x="293.38" y="-257.5" font-family="Arial" font-size="10.00">dependency&#45;analyzer&#45;enhanced</text>
<text xml:space="preserve" text-anchor="middle" x="293.38" y="-245.5" font-family="Arial" font-size="10.00">Port: null</text>
</g>
<!-- payment&#45;service -->
<g id="node5" class="node">
<title>payment&#45;service</title>
<path fill="lightcyan" stroke="black" d="M499.38,-154.5C499.38,-154.5 435.38,-154.5 435.38,-154.5 429.38,-154.5 423.38,-148.5 423.38,-142.5 423.38,-142.5 423.38,-130.5 423.38,-130.5 423.38,-124.5 429.38,-118.5 435.38,-118.5 435.38,-118.5 499.38,-118.5 499.38,-118.5 505.38,-118.5 511.38,-124.5 511.38,-130.5 511.38,-130.5 511.38,-142.5 511.38,-142.5 511.38,-148.5 505.38,-154.5 499.38,-154.5"/>
<text xml:space="preserve" text-anchor="middle" x="467.38" y="-139" font-family="Arial" font-size="10.00">payment&#45;service</text>
<text xml:space="preserve" text-anchor="middle" x="467.38" y="-127" font-family="Arial" font-size="10.00">Port: 8084</text>
</g>
<!-- email&#45;service -->
<g id="node6" class="node">
<title>email&#45;service</title>
<path fill="lightgray" stroke="black" d="M750.25,-36C750.25,-36 700.5,-36 700.5,-36 694.5,-36 688.5,-30 688.5,-24 688.5,-24 688.5,-12 688.5,-12 688.5,-6 694.5,0 700.5,0 700.5,0 750.25,0 750.25,0 756.25,0 762.25,-6 762.25,-12 762.25,-12 762.25,-24 762.25,-24 762.25,-30 756.25,-36 750.25,-36"/>
<text xml:space="preserve" text-anchor="middle" x="725.38" y="-20.5" font-family="Arial" font-size="10.00">email&#45;service</text>
<text xml:space="preserve" text-anchor="middle" x="725.38" y="-8.5" font-family="Arial" font-size="10.00">Port: 8087</text>
</g>
<!-- payment&#45;service&#45;&gt;email&#45;service -->
<g id="edge1" class="edge">
<title>payment&#45;service&#45;&gt;email&#45;service</title>
<path fill="none" stroke="blue" d="M466.03,-118.03C465.94,-103.75 468.29,-84.01 480.12,-72 507.17,-44.56 613.92,-29.74 677.33,-23.19"/>
<polygon fill="blue" stroke="blue" points="687.04,-22.23 677.53,-27.7 683.28,-22.6 677.09,-23.22 677.09,-23.22 677.09,-23.22 683.28,-22.6 676.64,-18.74 687.04,-22.23"/>
<text xml:space="preserve" text-anchor="middle" x="506.75" y="-73.95" font-family="Arial" font-size="9.00" fill="blue">rest&#45;template</text>
</g>
<!-- gateway&#45;service -->
<g id="node7" class="node">
<title>gateway&#45;service</title>
<path fill="lightgreen" stroke="black" d="M835,-391.5C835,-391.5 771.75,-391.5 771.75,-391.5 765.75,-391.5 759.75,-385.5 759.75,-379.5 759.75,-379.5 759.75,-367.5 759.75,-367.5 759.75,-361.5 765.75,-355.5 771.75,-355.5 771.75,-355.5 835,-355.5 835,-355.5 841,-355.5 847,-361.5 847,-367.5 847,-367.5 847,-379.5 847,-379.5 847,-385.5 841,-391.5 835,-391.5"/>
<text xml:space="preserve" text-anchor="middle" x="803.38" y="-376" font-family="Arial" font-size="10.00">gateway&#45;service</text>
<text xml:space="preserve" text-anchor="middle" x="803.38" y="-364" font-family="Arial" font-size="10.00">Port: 8080</text>
</g>
<!-- gateway&#45;service&#45;&gt;product&#45;service -->
<g id="edge2" class="edge">
<title>gateway&#45;service&#45;&gt;product&#45;service</title>
<path fill="none" stroke="darkgreen" d="M759.57,-372.12C662.16,-370.47 420.62,-362.06 223.88,-319.5 178.36,-309.66 128.56,-291.82 92.49,-277.55"/>
<polygon fill="darkgreen" stroke="darkgreen" points="83.36,-273.89 94.31,-273.44 86.87,-275.3 92.64,-277.61 92.64,-277.61 92.64,-277.61 86.87,-275.3 90.97,-281.79 83.36,-273.89"/>
<text xml:space="preserve" text-anchor="middle" x="241.12" y="-310.95" font-family="Arial" font-size="9.00" fill="darkgreen">gateway</text>
</g>
<!-- gateway&#45;service&#45;&gt;notification&#45;service -->
<g id="edge3" class="edge">
<title>gateway&#45;service&#45;&gt;notification&#45;service</title>
<path fill="none" stroke="darkgreen" d="M759.47,-372.38C670.49,-371.16 463.18,-363.39 295.88,-319.5 259.3,-309.91 220.1,-292.5 191.47,-278.34"/>
<polygon fill="darkgreen" stroke="darkgreen" points="182.89,-274.03 193.84,-274.5 186.27,-275.73 191.82,-278.52 191.82,-278.52 191.82,-278.52 186.27,-275.73 189.8,-282.54 182.89,-274.03"/>
<text xml:space="preserve" text-anchor="middle" x="313.12" y="-310.95" font-family="Arial" font-size="9.00" fill="darkgreen">gateway</text>
</g>
<!-- gateway&#45;service&#45;&gt;dependency&#45;analyzer&#45;enhanced -->
<g id="edge4" class="edge">
<title>gateway&#45;service&#45;&gt;dependency&#45;analyzer&#45;enhanced</title>
<path fill="none" stroke="darkgreen" d="M759.36,-371.31C659.81,-367.98 420.54,-356.29 349.88,-319.5 333.5,-310.97 319.63,-295.61 309.74,-282.13"/>
<polygon fill="darkgreen" stroke="darkgreen" points="304.23,-274.21 313.63,-279.86 306.39,-277.32 309.94,-282.42 309.94,-282.42 309.94,-282.42 306.39,-277.32 306.24,-284.99 304.23,-274.21"/>
<text xml:space="preserve" text-anchor="middle" x="367.12" y="-310.95" font-family="Arial" font-size="9.00" fill="darkgreen">gateway</text>
</g>
<!-- gateway&#45;service&#45;&gt;payment&#45;service -->
<g id="edge5" class="edge">
<title>gateway&#45;service&#45;&gt;payment&#45;service</title>
<path fill="none" stroke="darkgreen" d="M759.36,-364.83C684.32,-349.13 533.45,-305.57 468.38,-201 461.95,-190.68 460.88,-177.47 461.73,-165.78"/>
<polygon fill="darkgreen" stroke="darkgreen" points="462.96,-155.96 466.18,-166.44 462.49,-159.71 461.72,-165.88 461.72,-165.88 461.72,-165.88 462.49,-159.71 457.25,-165.32 462.96,-155.96"/>
<text xml:space="preserve" text-anchor="middle" x="549.92" y="-251.7" font-family="Arial" font-size="9.00" fill="darkgreen">gateway</text>
</g>
<!-- gateway&#45;service&#45;&gt;email&#45;service -->
<g id="edge10" class="edge">
<title>gateway&#45;service&#45;&gt;email&#45;service</title>
<path fill="none" stroke="darkgreen" d="M759.65,-363.84C717.07,-354.82 650.84,-339.27 595.38,-319.5 492.84,-282.95 426.44,-262.68 414.38,-154.5 412.6,-138.6 407.64,-133.01 414.38,-118.5 427.85,-89.46 440.59,-86.01 469.38,-72 536.86,-39.15 623.98,-26.63 677.21,-21.87"/>
<polygon fill="darkgreen" stroke="darkgreen" points="687.14,-21.05 677.55,-26.36 683.37,-21.36 677.18,-21.88 677.18,-21.88 677.18,-21.88 683.37,-21.36 676.8,-17.39 687.14,-21.05"/>
<text xml:space="preserve" text-anchor="middle" x="441.65" y="-192.45" font-family="Arial" font-size="9.00" fill="darkgreen">gateway</text>
</g>
<!-- .. -->
<g id="node8" class="node">
<title>..</title>
<path fill="lightgray" stroke="black" d="M870.88,-273C870.88,-273 839.88,-273 839.88,-273 833.88,-273 827.88,-267 827.88,-261 827.88,-261 827.88,-249 827.88,-249 827.88,-243 833.88,-237 839.88,-237 839.88,-237 870.88,-237 870.88,-237 876.88,-237 882.88,-243 882.88,-249 882.88,-249 882.88,-261 882.88,-261 882.88,-267 876.88,-273 870.88,-273"/>
<text xml:space="preserve" text-anchor="middle" x="855.38" y="-257.5" font-family="Arial" font-size="10.00">..</text>
<text xml:space="preserve" text-anchor="middle" x="855.38" y="-245.5" font-family="Arial" font-size="10.00">Port: null</text>
</g>
<!-- gateway&#45;service&#45;&gt;.. -->
<g id="edge6" class="edge">
<title>gateway&#45;service&#45;&gt;..</title>
<path fill="none" stroke="darkgreen" d="M811.16,-355.06C819.63,-336.08 833.29,-305.47 843.19,-283.3"/>
<polygon fill="darkgreen" stroke="darkgreen" points="847.21,-274.29 847.24,-285.26 845.67,-277.75 843.13,-283.42 843.13,-283.42 843.13,-283.42 845.67,-277.75 839.02,-281.59 847.21,-274.29"/>
<text xml:space="preserve" text-anchor="middle" x="848.18" y="-310.95" font-family="Arial" font-size="9.00" fill="darkgreen">gateway</text>
</g>
<!-- user&#45;service -->
<g id="node9" class="node">
<title>user&#45;service</title>
<path fill="lightblue" stroke="black" d="M1236,-154.5C1236,-154.5 1190.75,-154.5 1190.75,-154.5 1184.75,-154.5 1178.75,-148.5 1178.75,-142.5 1178.75,-142.5 1178.75,-130.5 1178.75,-130.5 1178.75,-124.5 1184.75,-118.5 1190.75,-118.5 1190.75,-118.5 1236,-118.5 1236,-118.5 1242,-118.5 1248,-124.5 1248,-130.5 1248,-130.5 1248,-142.5 1248,-142.5 1248,-148.5 1242,-154.5 1236,-154.5"/>
<text xml:space="preserve" text-anchor="middle" x="1213.38" y="-139" font-family="Arial" font-size="10.00">user&#45;service</text>
<text xml:space="preserve" text-anchor="middle" x="1213.38" y="-127" font-family="Arial" font-size="10.00">Port: 8081</text>
</g>
<!-- gateway&#45;service&#45;&gt;user&#45;service -->
<g id="edge12" class="edge">
<title>gateway&#45;service&#45;&gt;user&#45;service</title>
<path fill="none" stroke="darkgreen" d="M847.45,-357.69C850.46,-356.89 853.45,-356.15 856.38,-355.5 981.03,-327.88 1015.06,-338.07 1141.38,-319.5 1365.61,-286.53 1504.47,-384.59 1637.38,-201 1640.11,-197.22 1640.46,-194 1637.38,-190.5 1612.65,-162.49 1364.29,-145.74 1259.56,-139.88"/>
<polygon fill="darkgreen" stroke="darkgreen" points="1249.62,-139.33 1259.86,-135.39 1253.4,-139.54 1259.61,-139.88 1259.61,-139.88 1259.61,-139.88 1253.4,-139.54 1259.36,-144.37 1249.62,-139.33"/>
<text xml:space="preserve" text-anchor="middle" x="1623.47" y="-251.7" font-family="Arial" font-size="9.00" fill="darkgreen">gateway</text>
</g>
<!-- logging&#45;service -->
<g id="node10" class="node">
<title>logging&#45;service</title>
<path fill="lightgray" stroke="black" d="M1242,-36C1242,-36 1184.75,-36 1184.75,-36 1178.75,-36 1172.75,-30 1172.75,-24 1172.75,-24 1172.75,-12 1172.75,-12 1172.75,-6 1178.75,0 1184.75,0 1184.75,0 1242,0 1242,0 1248,0 1254,-6 1254,-12 1254,-12 1254,-24 1254,-24 1254,-30 1248,-36 1242,-36"/>
<text xml:space="preserve" text-anchor="middle" x="1213.38" y="-20.5" font-family="Arial" font-size="10.00">logging&#45;service</text>
<text xml:space="preserve" text-anchor="middle" x="1213.38" y="-8.5" font-family="Arial" font-size="10.00">Port: 8088</text>
</g>
<!-- gateway&#45;service&#45;&gt;logging&#45;service -->
<g id="edge7" class="edge">
<title>gateway&#45;service&#45;&gt;logging&#45;service</title>
<path fill="none" stroke="darkgreen" d="M847.4,-357.43C850.42,-356.69 853.43,-356.04 856.38,-355.5 1176.41,-297.33 1269.7,-389.45 1587.38,-319.5 1641.22,-307.64 1671.55,-318.71 1702.38,-273 1735.69,-223.59 1688.21,-151.58 1647.38,-118.5 1588.75,-71.02 1367.24,-38.1 1265.29,-25.14"/>
<polygon fill="darkgreen" stroke="darkgreen" points="1255.56,-23.92 1266.04,-20.7 1259.31,-24.39 1265.48,-25.16 1265.48,-25.16 1265.48,-25.16 1259.31,-24.39 1264.92,-29.63 1255.56,-23.92"/>
<text xml:space="preserve" text-anchor="middle" x="1724.22" y="-192.45" font-family="Arial" font-size="9.00" fill="darkgreen">gateway</text>
</g>
<!-- order&#45;service -->
<g id="node11" class="node">
<title>order&#45;service</title>
<path fill="lightblue" stroke="black" d="M945.5,-154.5C945.5,-154.5 897.25,-154.5 897.25,-154.5 891.25,-154.5 885.25,-148.5 885.25,-142.5 885.25,-142.5 885.25,-130.5 885.25,-130.5 885.25,-124.5 891.25,-118.5 897.25,-118.5 897.25,-118.5 945.5,-118.5 945.5,-118.5 951.5,-118.5 957.5,-124.5 957.5,-130.5 957.5,-130.5 957.5,-142.5 957.5,-142.5 957.5,-148.5 951.5,-154.5 945.5,-154.5"/>
<text xml:space="preserve" text-anchor="middle" x="921.38" y="-139" font-family="Arial" font-size="10.00">order&#45;service</text>
<text xml:space="preserve" text-anchor="middle" x="921.38" y="-127" font-family="Arial" font-size="10.00">Port: 8083</text>
</g>
<!-- gateway&#45;service&#45;&gt;order&#45;service -->
<g id="edge8" class="edge">
<title>gateway&#45;service&#45;&gt;order&#45;service</title>
<path fill="none" stroke="darkgreen" d="M796.44,-355.17C783.29,-319.16 759.68,-235.8 802.38,-190.5 812.94,-179.29 845.98,-164.99 874.57,-154.08"/>
<polygon fill="darkgreen" stroke="darkgreen" points="883.71,-150.65 875.93,-158.37 880.17,-151.98 874.34,-154.16 874.34,-154.16 874.34,-154.16 880.17,-151.98 872.76,-149.95 883.71,-150.65"/>
<text xml:space="preserve" text-anchor="middle" x="797.37" y="-251.7" font-family="Arial" font-size="9.00" fill="darkgreen">gateway</text>
</g>
<!-- inventory&#45;service -->
<g id="node12" class="node">
<title>inventory&#45;service</title>
<path fill="lightcyan" stroke="black" d="M1626.5,-154.5C1626.5,-154.5 1560.25,-154.5 1560.25,-154.5 1554.25,-154.5 1548.25,-148.5 1548.25,-142.5 1548.25,-142.5 1548.25,-130.5 1548.25,-130.5 1548.25,-124.5 1554.25,-118.5 1560.25,-118.5 1560.25,-118.5 1626.5,-118.5 1626.5,-118.5 1632.5,-118.5 1638.5,-124.5 1638.5,-130.5 1638.5,-130.5 1638.5,-142.5 1638.5,-142.5 1638.5,-148.5 1632.5,-154.5 1626.5,-154.5"/>
<text xml:space="preserve" text-anchor="middle" x="1593.38" y="-139" font-family="Arial" font-size="10.00">inventory&#45;service</text>
<text xml:space="preserve" text-anchor="middle" x="1593.38" y="-127" font-family="Arial" font-size="10.00">Port: 8085</text>
</g>
<!-- gateway&#45;service&#45;&gt;inventory&#45;service -->
<g id="edge13" class="edge">
<title>gateway&#45;service&#45;&gt;inventory&#45;service</title>
<path fill="none" stroke="darkgreen" d="M847.42,-357.52C850.43,-356.76 853.44,-356.08 856.38,-355.5 1029.16,-321.67 1522.07,-399.66 1644.38,-273 1669.96,-246.5 1667.38,-224.15 1652.38,-190.5 1647.49,-179.54 1639.09,-169.9 1630.14,-161.95"/>
<polygon fill="darkgreen" stroke="darkgreen" points="1622.43,-155.63 1633.01,-158.49 1625.35,-158.03 1630.16,-161.97 1630.16,-161.97 1630.16,-161.97 1625.35,-158.03 1627.31,-165.45 1622.43,-155.63"/>
<text xml:space="preserve" text-anchor="middle" x="1680.64" y="-251.7" font-family="Arial" font-size="9.00" fill="darkgreen">gateway</text>
</g>
<!-- analytics&#45;service -->
<g id="node13" class="node">
<title>analytics&#45;service</title>
<path fill="lightgray" stroke="black" d="M1246.12,-273C1246.12,-273 1180.62,-273 1180.62,-273 1174.62,-273 1168.62,-267 1168.62,-261 1168.62,-261 1168.62,-249 1168.62,-249 1168.62,-243 1174.62,-237 1180.62,-237 1180.62,-237 1246.12,-237 1246.12,-237 1252.12,-237 1258.12,-243 1258.12,-249 1258.12,-249 1258.12,-261 1258.12,-261 1258.12,-267 1252.12,-273 1246.12,-273"/>
<text xml:space="preserve" text-anchor="middle" x="1213.38" y="-257.5" font-family="Arial" font-size="10.00">analytics&#45;service</text>
<text xml:space="preserve" text-anchor="middle" x="1213.38" y="-245.5" font-family="Arial" font-size="10.00">Port: 8090</text>
</g>
<!-- gateway&#45;service&#45;&gt;analytics&#45;service -->
<g id="edge9" class="edge">
<title>gateway&#45;service&#45;&gt;analytics&#45;service</title>
<path fill="none" stroke="darkgreen" d="M847.29,-358.27C850.36,-357.32 853.41,-356.39 856.38,-355.5 962.27,-323.77 1086.82,-289.82 1157.29,-270.91"/>
<polygon fill="darkgreen" stroke="darkgreen" points="1166.95,-268.33 1158.46,-275.26 1163.3,-269.3 1157.29,-270.91 1157.29,-270.91 1157.29,-270.91 1163.3,-269.3 1156.13,-266.57 1166.95,-268.33"/>
<text xml:space="preserve" text-anchor="middle" x="1029.94" y="-310.95" font-family="Arial" font-size="9.00" fill="darkgreen">gateway</text>
</g>
<!-- reporting&#45;service -->
<g id="node14" class="node">
<title>reporting&#45;service</title>
<path fill="lightgray" stroke="black" d="M1397.38,-273C1397.38,-273 1333.38,-273 1333.38,-273 1327.38,-273 1321.38,-267 1321.38,-261 1321.38,-261 1321.38,-249 1321.38,-249 1321.38,-243 1327.38,-237 1333.38,-237 1333.38,-237 1397.38,-237 1397.38,-237 1403.38,-237 1409.38,-243 1409.38,-249 1409.38,-249 1409.38,-261 1409.38,-261 1409.38,-267 1403.38,-273 1397.38,-273"/>
<text xml:space="preserve" text-anchor="middle" x="1365.38" y="-257.5" font-family="Arial" font-size="10.00">reporting&#45;service</text>
<text xml:space="preserve" text-anchor="middle" x="1365.38" y="-245.5" font-family="Arial" font-size="10.00">Port: 8089</text>
</g>
<!-- gateway&#45;service&#45;&gt;reporting&#45;service -->
<g id="edge11" class="edge">
<title>gateway&#45;service&#45;&gt;reporting&#45;service</title>
<path fill="none" stroke="darkgreen" d="M847.5,-357.88C850.49,-357.03 853.47,-356.23 856.38,-355.5 941.84,-334 964.85,-336.24 1051.38,-319.5 1142.17,-301.94 1247.48,-280.4 1310.15,-267.46"/>
<polygon fill="darkgreen" stroke="darkgreen" points="1319.77,-265.48 1310.89,-271.91 1316.07,-266.24 1309.98,-267.5 1309.98,-267.5 1309.98,-267.5 1316.07,-266.24 1309.07,-263.09 1319.77,-265.48"/>
<text xml:space="preserve" text-anchor="middle" x="1120.08" y="-310.95" font-family="Arial" font-size="9.00" fill="darkgreen">gateway</text>
</g>
<!-- ..&#45;&gt;payment&#45;service -->
<g id="edge19" class="edge">
<title>..&#45;&gt;payment&#45;service</title>
<path fill="none" stroke="blue" d="M827.51,-241.21C823.18,-239.58 818.71,-238.11 814.38,-237 741.99,-218.5 535.3,-251.37 480.12,-201 470.46,-192.18 466.95,-178.25 465.99,-165.69"/>
<polygon fill="blue" stroke="blue" points="465.76,-155.94 470.5,-165.83 465.85,-159.72 466,-165.93 466,-165.93 466,-165.93 465.85,-159.72 461.5,-166.04 465.76,-155.94"/>
<text xml:space="preserve" text-anchor="middle" x="506.75" y="-192.45" font-family="Arial" font-size="9.00" fill="blue">rest&#45;template</text>
</g>
<!-- ..&#45;&gt;email&#45;service -->
<g id="edge14" class="edge">
<title>..&#45;&gt;email&#45;service</title>
<path fill="none" stroke="blue" d="M832.87,-236.55C822.14,-227.11 810.02,-214.62 802.38,-201 783.9,-168.1 796.34,-153.55 782.38,-118.5 771.98,-92.39 755.72,-64.83 743.22,-45.35"/>
<polygon fill="blue" stroke="blue" points="737.92,-37.23 747.16,-43.14 739.99,-40.4 743.39,-45.6 743.39,-45.6 743.39,-45.6 739.99,-40.4 739.62,-48.06 737.92,-37.23"/>
<text xml:space="preserve" text-anchor="middle" x="816.82" y="-133.2" font-family="Arial" font-size="9.00" fill="blue">rest&#45;template</text>
</g>
<!-- ..&#45;&gt;email&#45;service -->
<g id="edge15" class="edge">
<title>..&#45;&gt;email&#45;service</title>
<path fill="none" stroke="blue" d="M827.38,-240.26C824.38,-239.05 821.34,-237.94 818.38,-237 703.89,-200.81 614.51,-262.05 561.12,-154.5 532.35,-96.52 619.78,-54.46 677.91,-33.67"/>
<polygon fill="blue" stroke="blue" points="687.24,-30.44 679.27,-37.97 683.67,-31.68 677.79,-33.71 677.79,-33.71 677.79,-33.71 683.67,-31.68 676.32,-29.46 687.24,-30.44"/>
<text xml:space="preserve" text-anchor="middle" x="587.75" y="-133.2" font-family="Arial" font-size="9.00" fill="blue">rest&#45;template</text>
</g>
<!-- ..&#45;&gt;email&#45;service -->
<g id="edge16" class="edge">
<title>..&#45;&gt;email&#45;service</title>
<path fill="none" stroke="blue" d="M827.63,-240.87C824.53,-239.52 821.4,-238.2 818.38,-237 740.96,-206.29 687.15,-229.1 650.12,-154.5 630.53,-115.01 666.83,-70.57 695.51,-43.69"/>
<polygon fill="blue" stroke="blue" points="702.82,-37.08 698.42,-47.13 700.01,-39.62 695.4,-43.79 695.4,-43.79 695.4,-43.79 700.01,-39.62 692.38,-40.45 702.82,-37.08"/>
<text xml:space="preserve" text-anchor="middle" x="676.75" y="-133.2" font-family="Arial" font-size="9.00" fill="blue">rest&#45;template</text>
</g>
<!-- ..&#45;&gt;email&#45;service -->
<g id="edge24" class="edge">
<title>..&#45;&gt;email&#45;service</title>
<path fill="none" stroke="blue" d="M827.52,-236.93C792.65,-214.9 736.13,-176.76 725.12,-154.5 708.35,-120.58 712.76,-75.8 718.34,-47.19"/>
<polygon fill="blue" stroke="blue" points="720.41,-37.55 722.72,-48.27 719.62,-41.25 718.32,-47.33 718.32,-47.33 718.32,-47.33 719.62,-41.25 713.92,-46.38 720.41,-37.55"/>
<text xml:space="preserve" text-anchor="middle" x="751.75" y="-133.2" font-family="Arial" font-size="9.00" fill="blue">rest&#45;template</text>
</g>
<!-- ..&#45;&gt;user&#45;service -->
<g id="edge17" class="edge">
<title>..&#45;&gt;user&#45;service</title>
<path fill="none" stroke="blue" d="M883.23,-247.38C919.64,-238.41 985.17,-221.18 1039.38,-201 1049.81,-197.11 1051.8,-194.68 1062.12,-190.5 1097.31,-176.25 1137.94,-162.14 1168.23,-152.06"/>
<polygon fill="blue" stroke="blue" points="1177.33,-149.06 1169.24,-156.47 1173.74,-150.24 1167.83,-152.2 1167.83,-152.2 1167.83,-152.2 1173.74,-150.24 1166.42,-147.92 1177.33,-149.06"/>
<text xml:space="preserve" text-anchor="middle" x="1088.75" y="-192.45" font-family="Arial" font-size="9.00" fill="blue">rest&#45;template</text>
</g>
<!-- ..&#45;&gt;user&#45;service -->
<g id="edge21" class="edge">
<title>..&#45;&gt;user&#45;service</title>
<path fill="none" stroke="blue" d="M883.31,-251.74C932.02,-247.06 1034.99,-233.85 1115.38,-201 1122.23,-198.2 1153.16,-177.92 1178.47,-161.02"/>
<polygon fill="blue" stroke="blue" points="1186.47,-155.67 1180.66,-164.97 1183.33,-157.77 1178.16,-161.23 1178.16,-161.23 1178.16,-161.23 1183.33,-157.77 1175.66,-157.49 1186.47,-155.67"/>
<text xml:space="preserve" text-anchor="middle" x="1158.97" y="-192.45" font-family="Arial" font-size="9.00" fill="blue">rest&#45;template</text>
</g>
<!-- ..&#45;&gt;user&#45;service -->
<g id="edge22" class="edge">
<title>..&#45;&gt;user&#45;service</title>
<path fill="none" stroke="blue" d="M883.1,-240.9C905.04,-230.42 936.37,-215.17 963.38,-201 971.83,-196.56 973.21,-193.94 982.12,-190.5 1044.21,-166.57 1120.03,-151.74 1167.52,-144.05"/>
<polygon fill="blue" stroke="blue" points="1177.17,-142.52 1168,-148.53 1173.44,-143.11 1167.3,-144.08 1167.3,-144.08 1167.3,-144.08 1173.44,-143.11 1166.59,-139.64 1177.17,-142.52"/>
<text xml:space="preserve" text-anchor="middle" x="1008.75" y="-192.45" font-family="Arial" font-size="9.00" fill="blue">rest&#45;template</text>
</g>
<!-- ..&#45;&gt;logging&#45;service -->
<g id="edge23" class="edge">
<title>..&#45;&gt;logging&#45;service</title>
<path fill="none" stroke="blue" d="M883.07,-240.54C900.4,-231.16 922.39,-217.41 938.38,-201 955.21,-183.72 954.78,-175.65 966.38,-154.5 986.06,-118.6 975.56,-97.77 1007.38,-72 1051.29,-36.43 1116.32,-24.45 1161.52,-20.56"/>
<polygon fill="blue" stroke="blue" points="1171.34,-19.83 1161.71,-25.06 1167.57,-20.11 1161.37,-20.58 1161.37,-20.58 1161.37,-20.58 1167.57,-20.11 1161.04,-16.09 1171.34,-19.83"/>
<text xml:space="preserve" text-anchor="middle" x="1006.29" y="-133.2" font-family="Arial" font-size="9.00" fill="blue">rest&#45;template</text>
</g>
<!-- ..&#45;&gt;order&#45;service -->
<g id="edge18" class="edge">
<title>..&#45;&gt;order&#45;service</title>
<path fill="none" stroke="blue" d="M829.2,-236.64C813.69,-224.11 798.9,-206.63 809.12,-190.5 816.87,-178.27 847.4,-164.28 874.67,-153.75"/>
<polygon fill="blue" stroke="blue" points="883.76,-150.32 875.99,-158.06 880.22,-151.65 874.4,-153.85 874.4,-153.85 874.4,-153.85 880.22,-151.65 872.82,-149.64 883.76,-150.32"/>
<text xml:space="preserve" text-anchor="middle" x="835.75" y="-192.45" font-family="Arial" font-size="9.00" fill="blue">rest&#45;template</text>
</g>
<!-- ..&#45;&gt;inventory&#45;service -->
<g id="edge20" class="edge">
<title>..&#45;&gt;inventory&#45;service</title>
<path fill="none" stroke="blue" d="M883.23,-252.34C996.95,-245.45 1422.74,-218.72 1480.38,-201 1509.23,-192.13 1538.87,-175.12 1560.55,-160.93"/>
<polygon fill="blue" stroke="blue" points="1568.62,-155.54 1562.81,-164.84 1565.47,-157.64 1560.31,-161.1 1560.31,-161.1 1560.31,-161.1 1565.47,-157.64 1557.8,-157.36 1568.62,-155.54"/>
<text xml:space="preserve" text-anchor="middle" x="1533.4" y="-192.45" font-family="Arial" font-size="9.00" fill="blue">rest&#45;template</text>
</g>
<!-- user&#45;service&#45;&gt;email&#45;service -->
<g id="edge26" class="edge">
<title>user&#45;service&#45;&gt;email&#45;service</title>
<path fill="none" stroke="blue" d="M1178.29,-126.07C1130.5,-113.31 1042.18,-90.07 966.38,-72 899.69,-56.1 822.19,-39.37 773.47,-29.06"/>
<polygon fill="blue" stroke="blue" points="763.82,-27.02 774.53,-24.68 767.52,-27.8 773.6,-29.08 773.6,-29.08 773.6,-29.08 767.52,-27.8 772.67,-33.49 763.82,-27.02"/>
<text xml:space="preserve" text-anchor="middle" x="1033.55" y="-73.95" font-family="Arial" font-size="9.00" fill="blue">rest&#45;template</text>
</g>
<!-- user&#45;service&#45;&gt;logging&#45;service -->
<g id="edge25" class="edge">
<title>user&#45;service&#45;&gt;logging&#45;service</title>
<path fill="none" stroke="blue" d="M1213.38,-118.06C1213.38,-99.33 1213.38,-69.3 1213.38,-47.21"/>
<polygon fill="blue" stroke="blue" points="1213.38,-37.4 1217.88,-47.4 1213.38,-41.18 1213.38,-47.4 1213.38,-47.4 1213.38,-47.4 1213.38,-41.18 1208.88,-47.4 1213.38,-37.4"/>
<text xml:space="preserve" text-anchor="middle" x="1240" y="-73.95" font-family="Arial" font-size="9.00" fill="blue">rest&#45;template</text>
</g>
<!-- order&#45;service&#45;&gt;email&#45;service -->
<g id="edge27" class="edge">
<title>order&#45;service&#45;&gt;email&#45;service</title>
<path fill="none" stroke="blue" d="M920.27,-118.12C918.46,-103.89 913.71,-84.18 901.38,-72 867.31,-38.36 812.71,-25.95 773.36,-21.43"/>
<polygon fill="blue" stroke="blue" points="763.65,-20.46 774.05,-16.98 767.41,-20.84 773.6,-21.46 773.6,-21.46 773.6,-21.46 767.41,-20.84 773.15,-25.93 763.65,-20.46"/>
<text xml:space="preserve" text-anchor="middle" x="935.61" y="-73.95" font-family="Arial" font-size="9.00" fill="blue">rest&#45;template</text>
</g>
<!-- order&#45;service&#45;&gt;email&#45;service -->
<g id="edge28" class="edge">
<title>order&#45;service&#45;&gt;email&#45;service</title>
<path fill="none" stroke="blue" d="M896.54,-118.11C877.4,-104.95 850.12,-86.69 825.38,-72 807.58,-61.43 787.5,-50.59 770.03,-41.49"/>
<polygon fill="blue" stroke="blue" points="761.16,-36.9 772.11,-37.5 764.52,-38.64 770.04,-41.49 770.04,-41.49 770.04,-41.49 764.52,-38.64 767.98,-45.49 761.16,-36.9"/>
<text xml:space="preserve" text-anchor="middle" x="868.08" y="-73.95" font-family="Arial" font-size="9.00" fill="blue">rest&#45;template</text>
</g>
<!-- analytics&#45;service&#45;&gt;payment&#45;service -->
<g id="edge31" class="edge">
<title>analytics&#45;service&#45;&gt;payment&#45;service</title>
<path fill="none" stroke="blue" d="M1168.17,-247.14C1108.1,-237.81 998.77,-220.09 906.12,-201 886.54,-196.96 882.08,-193.9 862.38,-190.5 713.94,-164.87 673.13,-183.8 525.38,-154.5 524.41,-154.31 523.43,-154.11 522.45,-153.9"/>
<polygon fill="blue" stroke="blue" points="513.01,-151.68 523.77,-149.59 516.69,-152.54 522.74,-153.97 522.74,-153.97 522.74,-153.97 516.69,-152.54 521.71,-158.35 513.01,-151.68"/>
<text xml:space="preserve" text-anchor="middle" x="932.75" y="-192.45" font-family="Arial" font-size="9.00" fill="blue">rest&#45;template</text>
</g>
<!-- analytics&#45;service&#45;&gt;user&#45;service -->
<g id="edge29" class="edge">
<title>analytics&#45;service&#45;&gt;user&#45;service</title>
<path fill="none" stroke="blue" d="M1243.59,-236.66C1259.73,-224.94 1274.88,-208.38 1267.38,-190.5 1262.91,-179.87 1255.17,-170.3 1246.91,-162.31"/>
<polygon fill="blue" stroke="blue" points="1239.49,-155.69 1249.95,-159 1242.31,-158.21 1246.95,-162.35 1246.95,-162.35 1246.95,-162.35 1242.31,-158.21 1243.95,-165.71 1239.49,-155.69"/>
<text xml:space="preserve" text-anchor="middle" x="1295.97" y="-192.45" font-family="Arial" font-size="9.00" fill="blue">rest&#45;template</text>
</g>
<!-- analytics&#45;service&#45;&gt;order&#45;service -->
<g id="edge30" class="edge">
<title>analytics&#45;service&#45;&gt;order&#45;service</title>
<path fill="none" stroke="blue" d="M1212.15,-236.73C1210.15,-222.17 1204.94,-201.92 1191.38,-190.5 1115.58,-126.69 1067.5,-178.53 971.38,-154.5 970.4,-154.26 969.42,-154 968.43,-153.74"/>
<polygon fill="blue" stroke="blue" points="958.93,-150.99 969.79,-149.45 962.56,-152.04 968.53,-153.77 968.53,-153.77 968.53,-153.77 962.56,-152.04 967.28,-158.09 958.93,-150.99"/>
<text xml:space="preserve" text-anchor="middle" x="1226.27" y="-192.45" font-family="Arial" font-size="9.00" fill="blue">rest&#45;template</text>
</g>
<!-- analytics&#45;service&#45;&gt;inventory&#45;service -->
<g id="edge32" class="edge">
<title>analytics&#45;service&#45;&gt;inventory&#45;service</title>
<path fill="none" stroke="blue" d="M1258.17,-246C1275.13,-243.05 1294.63,-239.76 1312.38,-237 1369.8,-228.08 1526.47,-237.89 1571.38,-201 1581.87,-192.38 1587.37,-178.48 1590.24,-165.87"/>
<polygon fill="blue" stroke="blue" points="1592,-156.05 1594.67,-166.69 1591.34,-159.77 1590.24,-165.89 1590.24,-165.89 1590.24,-165.89 1591.34,-159.77 1585.81,-165.1 1592,-156.05"/>
<text xml:space="preserve" text-anchor="middle" x="1606.34" y="-192.45" font-family="Arial" font-size="9.00" fill="blue">rest&#45;template</text>
</g>
<!-- reporting&#45;service&#45;&gt;user&#45;service -->
<g id="edge33" class="edge">
<title>reporting&#45;service&#45;&gt;user&#45;service</title>
<path fill="none" stroke="blue" d="M1396.24,-236.56C1414.47,-224 1431.79,-206.51 1419.38,-190.5 1399.9,-165.38 1313.47,-150.08 1258.94,-142.75"/>
<polygon fill="blue" stroke="blue" points="1249.36,-141.5 1259.86,-138.33 1253.11,-141.99 1259.28,-142.79 1259.28,-142.79 1259.28,-142.79 1253.11,-141.99 1258.7,-147.26 1249.36,-141.5"/>
<text xml:space="preserve" text-anchor="middle" x="1450" y="-192.45" font-family="Arial" font-size="9.00" fill="blue">rest&#45;template</text>
</g>
<!-- reporting&#45;service&#45;&gt;user&#45;service -->
<g id="edge34" class="edge">
<title>reporting&#45;service&#45;&gt;user&#45;service</title>
<path fill="none" stroke="blue" d="M1358.16,-236.73C1351.6,-222.75 1340.75,-203.35 1326.38,-190.5 1306.92,-173.11 1280.76,-160.35 1258.51,-151.72"/>
<polygon fill="blue" stroke="blue" points="1249.42,-148.35 1260.36,-147.61 1252.97,-149.66 1258.8,-151.82 1258.8,-151.82 1258.8,-151.82 1252.97,-149.66 1257.23,-156.04 1249.42,-148.35"/>
<text xml:space="preserve" text-anchor="middle" x="1362.75" y="-192.45" font-family="Arial" font-size="9.00" fill="blue">rest&#45;template</text>
</g>
<!-- legend_info -->
<g id="node15" class="node">
<title>legend_info</title>
<path fill="lightgrey" stroke="none" d="M1378.75,-391.5C1378.75,-391.5 972,-391.5 972,-391.5 966,-391.5 960,-385.5 960,-379.5 960,-379.5 960,-367.5 960,-367.5 960,-361.5 966,-355.5 972,-355.5 972,-355.5 1378.75,-355.5 1378.75,-355.5 1384.75,-355.5 1390.75,-361.5 1390.75,-367.5 1390.75,-367.5 1390.75,-379.5 1390.75,-379.5 1390.75,-385.5 1384.75,-391.5 1378.75,-391.5"/>
<text xml:space="preserve" text-anchor="middle" x="1175.38" y="-376" font-family="Arial" font-size="10.00">Service Types: Gateway=Green | Config=Yellow | Business=Blue | Support=Cyan | Other=Gray</text>
<text xml:space="preserve" text-anchor="middle" x="1175.38" y="-364" font-family="Arial" font-size="10.00">Connections: →Gateway(Green) →REST/Feign(Blue) →Messaging(Purple)</text>
</g>
</g>
</svg>
