<svg width="1200px" height="800px"
 viewBox="0.00 0.00 1356.00 673.00" xmlns="http://www.w3.org/2000/svg" xmlns:xlink="http://www.w3.org/1999/xlink">
<g id="graph0" class="graph" transform="scale(1.0 1.0) rotate(0.0) translate(4.0 669.0)">
<title>microservices</title>
<polygon fill="white" stroke="none" points="-4,4 -4,-669 1351.78,-669 1351.78,4 -4,4"/>
<text xml:space="preserve" text-anchor="middle" x="673.89" y="-649.6" font-family="Arial" font-size="12.00">Microservices Dependency Graph</text>
<text xml:space="preserve" text-anchor="middle" x="673.89" y="-635.35" font-family="Arial" font-size="12.00">(Generated with GraphViz Java &#45; Pure Maven)</text>
<!-- product&#45;service -->
<g id="node1" class="node">
<title>product&#45;service</title>
<path fill="lightblue" stroke="black" d="M235.78,-154.5C235.78,-154.5 177.03,-154.5 177.03,-154.5 171.03,-154.5 165.03,-148.5 165.03,-142.5 165.03,-142.5 165.03,-130.5 165.03,-130.5 165.03,-124.5 171.03,-118.5 177.03,-118.5 177.03,-118.5 235.78,-118.5 235.78,-118.5 241.78,-118.5 247.78,-124.5 247.78,-130.5 247.78,-130.5 247.78,-142.5 247.78,-142.5 247.78,-148.5 241.78,-154.5 235.78,-154.5"/>
<text xml:space="preserve" text-anchor="middle" x="206.41" y="-139" font-family="Arial" font-size="10.00">product&#45;service</text>
<text xml:space="preserve" text-anchor="middle" x="206.41" y="-127" font-family="Arial" font-size="10.00">Port: 8082</text>
</g>
<!-- config&#45;service -->
<g id="node2" class="node">
<title>config&#45;service</title>
<path fill="lightyellow" stroke="black" d="M886.78,-628.5C886.78,-628.5 834.03,-628.5 834.03,-628.5 828.03,-628.5 822.03,-622.5 822.03,-616.5 822.03,-616.5 822.03,-604.5 822.03,-604.5 822.03,-598.5 828.03,-592.5 834.03,-592.5 834.03,-592.5 886.78,-592.5 886.78,-592.5 892.78,-592.5 898.78,-598.5 898.78,-604.5 898.78,-604.5 898.78,-616.5 898.78,-616.5 898.78,-622.5 892.78,-628.5 886.78,-628.5"/>
<text xml:space="preserve" text-anchor="middle" x="860.41" y="-613" font-family="Arial" font-size="10.00">config&#45;service</text>
<text xml:space="preserve" text-anchor="middle" x="860.41" y="-601" font-family="Arial" font-size="10.00">Port: 8761</text>
</g>
<!-- notification&#45;service -->
<g id="node3" class="node">
<title>notification&#45;service</title>
<path fill="lightcyan" stroke="black" d="M937.28,-510C937.28,-510 863.53,-510 863.53,-510 857.53,-510 851.53,-504 851.53,-498 851.53,-498 851.53,-486 851.53,-486 851.53,-480 857.53,-474 863.53,-474 863.53,-474 937.28,-474 937.28,-474 943.28,-474 949.28,-480 949.28,-486 949.28,-486 949.28,-498 949.28,-498 949.28,-504 943.28,-510 937.28,-510"/>
<text xml:space="preserve" text-anchor="middle" x="900.41" y="-494.5" font-family="Arial" font-size="10.00">notification&#45;service</text>
<text xml:space="preserve" text-anchor="middle" x="900.41" y="-482.5" font-family="Arial" font-size="10.00">Port: 8086</text>
</g>
<!-- dependency&#45;analyzer&#45;enhanced -->
<g id="node4" class="node">
<title>dependency&#45;analyzer&#45;enhanced</title>
<path fill="lightgray" stroke="black" d="M1109.03,-510C1109.03,-510 979.78,-510 979.78,-510 973.78,-510 967.78,-504 967.78,-498 967.78,-498 967.78,-486 967.78,-486 967.78,-480 973.78,-474 979.78,-474 979.78,-474 1109.03,-474 1109.03,-474 1115.03,-474 1121.03,-480 1121.03,-486 1121.03,-486 1121.03,-498 1121.03,-498 1121.03,-504 1115.03,-510 1109.03,-510"/>
<text xml:space="preserve" text-anchor="middle" x="1044.41" y="-494.5" font-family="Arial" font-size="10.00">dependency&#45;analyzer&#45;enhanced</text>
<text xml:space="preserve" text-anchor="middle" x="1044.41" y="-482.5" font-family="Arial" font-size="10.00">Port: null</text>
</g>
<!-- payment&#45;service -->
<g id="node5" class="node">
<title>payment&#45;service</title>
<path fill="lightcyan" stroke="black" d="M270.41,-391.5C270.41,-391.5 206.41,-391.5 206.41,-391.5 200.41,-391.5 194.41,-385.5 194.41,-379.5 194.41,-379.5 194.41,-367.5 194.41,-367.5 194.41,-361.5 200.41,-355.5 206.41,-355.5 206.41,-355.5 270.41,-355.5 270.41,-355.5 276.41,-355.5 282.41,-361.5 282.41,-367.5 282.41,-367.5 282.41,-379.5 282.41,-379.5 282.41,-385.5 276.41,-391.5 270.41,-391.5"/>
<text xml:space="preserve" text-anchor="middle" x="238.41" y="-376" font-family="Arial" font-size="10.00">payment&#45;service</text>
<text xml:space="preserve" text-anchor="middle" x="238.41" y="-364" font-family="Arial" font-size="10.00">Port: 8084</text>
</g>
<!-- order&#45;service -->
<g id="node6" class="node">
<title>order&#45;service</title>
<path fill="lightblue" stroke="black" d="M273.53,-273C273.53,-273 225.28,-273 225.28,-273 219.28,-273 213.28,-267 213.28,-261 213.28,-261 213.28,-249 213.28,-249 213.28,-243 219.28,-237 225.28,-237 225.28,-237 273.53,-237 273.53,-237 279.53,-237 285.53,-243 285.53,-249 285.53,-249 285.53,-261 285.53,-261 285.53,-267 279.53,-273 273.53,-273"/>
<text xml:space="preserve" text-anchor="middle" x="249.41" y="-257.5" font-family="Arial" font-size="10.00">order&#45;service</text>
<text xml:space="preserve" text-anchor="middle" x="249.41" y="-245.5" font-family="Arial" font-size="10.00">Port: 8083</text>
</g>
<!-- payment&#45;service&#45;&gt;order&#45;service -->
<g id="edge1" class="edge">
<title>payment&#45;service&#45;&gt;order&#45;service</title>
<path fill="none" stroke="blue" d="M257.88,-355.42C267.23,-345.9 277.45,-333.22 282.41,-319.5 286.99,-306.81 281.75,-293.46 274.19,-282.29"/>
<polygon fill="blue" stroke="blue" points="268.2,-274.46 277.85,-279.67 270.5,-277.46 274.27,-282.4 274.27,-282.4 274.27,-282.4 270.5,-277.46 270.7,-285.13 268.2,-274.46"/>
<text xml:space="preserve" text-anchor="middle" x="306.61" y="-310.95" font-family="Arial" font-size="9.00" fill="blue">feign&#45;client</text>
</g>
<!-- payment&#45;service&#45;&gt;order&#45;service -->
<g id="edge2" class="edge">
<title>payment&#45;service&#45;&gt;order&#45;service</title>
<path fill="none" stroke="blue" d="M197.44,-355.04C177.34,-343.73 159.39,-327.65 169.41,-309 176.89,-295.06 189.83,-284.17 203.15,-275.99"/>
<polygon fill="blue" stroke="blue" points="211.78,-271.1 205.29,-279.94 208.49,-272.96 203.08,-276.03 203.08,-276.03 203.08,-276.03 208.49,-272.96 200.86,-272.11 211.78,-271.1"/>
<text xml:space="preserve" text-anchor="middle" x="191.91" y="-310.95" font-family="Arial" font-size="9.00" fill="blue">feign&#45;client</text>
</g>
<!-- payment&#45;service&#45;&gt;order&#45;service -->
<g id="edge3" class="edge">
<title>payment&#45;service&#45;&gt;order&#45;service</title>
<path fill="none" stroke="blue" d="M234.95,-355.18C232.9,-342.37 231.11,-324.53 233.41,-309 234.63,-300.73 236.87,-291.96 239.29,-283.98"/>
<polygon fill="blue" stroke="blue" points="242.38,-274.53 243.55,-285.43 241.2,-278.13 239.27,-284.04 239.27,-284.04 239.27,-284.04 241.2,-278.13 235,-282.64 242.38,-274.53"/>
<text xml:space="preserve" text-anchor="middle" x="255.91" y="-310.95" font-family="Arial" font-size="9.00" fill="blue">feign&#45;client</text>
</g>
<!-- email&#45;service -->
<g id="node9" class="node">
<title>email&#45;service</title>
<path fill="lightgray" stroke="black" d="M118.28,-36C118.28,-36 68.53,-36 68.53,-36 62.53,-36 56.53,-30 56.53,-24 56.53,-24 56.53,-12 56.53,-12 56.53,-6 62.53,0 68.53,0 68.53,0 118.28,0 118.28,0 124.28,0 130.28,-6 130.28,-12 130.28,-12 130.28,-24 130.28,-24 130.28,-30 124.28,-36 118.28,-36"/>
<text xml:space="preserve" text-anchor="middle" x="93.41" y="-20.5" font-family="Arial" font-size="10.00">email&#45;service</text>
<text xml:space="preserve" text-anchor="middle" x="93.41" y="-8.5" font-family="Arial" font-size="10.00">Port: 8087</text>
</g>
<!-- payment&#45;service&#45;&gt;email&#45;service -->
<g id="edge4" class="edge">
<title>payment&#45;service&#45;&gt;email&#45;service</title>
<path fill="none" stroke="blue" d="M195.46,-355C140.79,-330.06 48.92,-278.55 11.16,-201 -14.54,-148.23 9.05,-122.23 39.41,-72 45.64,-61.69 54.33,-51.97 62.93,-43.73"/>
<polygon fill="blue" stroke="blue" points="70.15,-37.14 65.8,-47.21 67.36,-39.69 62.76,-43.88 62.76,-43.88 62.76,-43.88 67.36,-39.69 59.73,-40.56 70.15,-37.14"/>
<text xml:space="preserve" text-anchor="middle" x="37.78" y="-192.45" font-family="Arial" font-size="9.00" fill="blue">rest&#45;template</text>
</g>
<!-- order&#45;service&#45;&gt;product&#45;service -->
<g id="edge5" class="edge">
<title>order&#45;service&#45;&gt;product&#45;service</title>
<path fill="none" stroke="blue" d="M224.2,-236.63C213.15,-227.46 201.36,-215.17 195.41,-201 190.73,-189.86 191.96,-176.82 194.94,-165.46"/>
<polygon fill="blue" stroke="blue" points="197.98,-155.96 199.22,-166.85 196.83,-159.56 194.93,-165.48 194.93,-165.48 194.93,-165.48 196.83,-159.56 190.65,-164.11 197.98,-155.96"/>
<text xml:space="preserve" text-anchor="middle" x="217.91" y="-192.45" font-family="Arial" font-size="9.00" fill="blue">feign&#45;client</text>
</g>
<!-- order&#45;service&#45;&gt;product&#45;service -->
<g id="edge6" class="edge">
<title>order&#45;service&#45;&gt;product&#45;service</title>
<path fill="none" stroke="blue" d="M248.94,-236.53C248.11,-223.49 245.95,-205.43 240.41,-190.5 236.96,-181.22 231.7,-171.87 226.34,-163.67"/>
<polygon fill="blue" stroke="blue" points="220.79,-155.63 230.17,-161.31 222.94,-158.75 226.47,-163.86 226.47,-163.86 226.47,-163.86 222.94,-158.75 222.77,-166.42 220.79,-155.63"/>
<text xml:space="preserve" text-anchor="middle" x="266.03" y="-192.45" font-family="Arial" font-size="9.00" fill="blue">feign&#45;client</text>
</g>
<!-- order&#45;service&#45;&gt;product&#45;service -->
<g id="edge7" class="edge">
<title>order&#45;service&#45;&gt;product&#45;service</title>
<path fill="none" stroke="blue" d="M212.91,-246.23C188.62,-238.96 158.5,-225.42 143.41,-201 134.26,-186.2 145.18,-172.2 160.36,-161.12"/>
<polygon fill="blue" stroke="blue" points="168.65,-155.63 162.8,-164.9 165.5,-157.72 160.31,-161.15 160.31,-161.15 160.31,-161.15 165.5,-157.72 157.83,-157.4 168.65,-155.63"/>
<text xml:space="preserve" text-anchor="middle" x="165.91" y="-192.45" font-family="Arial" font-size="9.00" fill="blue">feign&#45;client</text>
</g>
<!-- user&#45;service -->
<g id="node7" class="node">
<title>user&#45;service</title>
<path fill="lightblue" stroke="black" d="M549.03,-154.5C549.03,-154.5 503.78,-154.5 503.78,-154.5 497.78,-154.5 491.78,-148.5 491.78,-142.5 491.78,-142.5 491.78,-130.5 491.78,-130.5 491.78,-124.5 497.78,-118.5 503.78,-118.5 503.78,-118.5 549.03,-118.5 549.03,-118.5 555.03,-118.5 561.03,-124.5 561.03,-130.5 561.03,-130.5 561.03,-142.5 561.03,-142.5 561.03,-148.5 555.03,-154.5 549.03,-154.5"/>
<text xml:space="preserve" text-anchor="middle" x="526.41" y="-139" font-family="Arial" font-size="10.00">user&#45;service</text>
<text xml:space="preserve" text-anchor="middle" x="526.41" y="-127" font-family="Arial" font-size="10.00">Port: 8081</text>
</g>
<!-- order&#45;service&#45;&gt;user&#45;service -->
<g id="edge8" class="edge">
<title>order&#45;service&#45;&gt;user&#45;service</title>
<path fill="none" stroke="blue" d="M267.51,-236.55C283.24,-222.27 307.23,-202.54 331.41,-190.5 379.49,-166.55 439.8,-152.29 480.53,-144.7"/>
<polygon fill="blue" stroke="blue" points="490.27,-142.94 481.22,-149.14 486.54,-143.61 480.42,-144.71 480.42,-144.71 480.42,-144.71 486.54,-143.61 479.63,-140.29 490.27,-142.94"/>
<text xml:space="preserve" text-anchor="middle" x="353.91" y="-192.45" font-family="Arial" font-size="9.00" fill="blue">feign&#45;client</text>
</g>
<!-- order&#45;service&#45;&gt;user&#45;service -->
<g id="edge9" class="edge">
<title>order&#45;service&#45;&gt;user&#45;service</title>
<path fill="none" stroke="blue" d="M285.95,-239.12C311.4,-228.67 346.08,-214.24 376.41,-201 386.71,-196.5 389.11,-195 399.41,-190.5 426.39,-178.71 456.84,-165.99 481.15,-155.96"/>
<polygon fill="blue" stroke="blue" points="490.38,-152.17 482.85,-160.13 486.88,-153.6 481.13,-155.97 481.13,-155.97 481.13,-155.97 486.88,-153.6 479.42,-151.81 490.38,-152.17"/>
<text xml:space="preserve" text-anchor="middle" x="421.91" y="-192.45" font-family="Arial" font-size="9.00" fill="blue">feign&#45;client</text>
</g>
<!-- order&#45;service&#45;&gt;user&#45;service -->
<g id="edge10" class="edge">
<title>order&#45;service&#45;&gt;user&#45;service</title>
<path fill="none" stroke="blue" d="M285.8,-248.52C326.16,-241.45 392.44,-226.89 444.41,-201 464.62,-190.93 484.7,-175.49 499.94,-162.36"/>
<polygon fill="blue" stroke="blue" points="507.4,-155.76 502.89,-165.76 504.56,-158.26 499.91,-162.39 499.91,-162.39 499.91,-162.39 504.56,-158.26 496.92,-159.01 507.4,-155.76"/>
<text xml:space="preserve" text-anchor="middle" x="484.1" y="-192.45" font-family="Arial" font-size="9.00" fill="blue">feign&#45;client</text>
</g>
<!-- order&#45;service&#45;&gt;email&#45;service -->
<g id="edge11" class="edge">
<title>order&#45;service&#45;&gt;email&#45;service</title>
<path fill="none" stroke="blue" d="M212.87,-242.31C189.31,-233.53 158.97,-219.79 136.41,-201 116.88,-184.74 111.78,-178.4 103.16,-154.5 90.41,-119.17 89.75,-75.36 91.07,-47.29"/>
<polygon fill="blue" stroke="blue" points="91.66,-37.52 95.55,-47.77 91.43,-41.29 91.06,-47.5 91.06,-47.5 91.06,-47.5 91.43,-41.29 86.57,-47.23 91.66,-37.52"/>
<text xml:space="preserve" text-anchor="middle" x="129.78" y="-133.2" font-family="Arial" font-size="9.00" fill="blue">rest&#45;template</text>
</g>
<!-- order&#45;service&#45;&gt;email&#45;service -->
<g id="edge12" class="edge">
<title>order&#45;service&#45;&gt;email&#45;service</title>
<path fill="none" stroke="blue" d="M212.94,-249.39C162.61,-240.81 73.93,-217.15 37.16,-154.5 15.89,-118.27 45.38,-72.48 69.05,-44.48"/>
<polygon fill="blue" stroke="blue" points="75.34,-37.31 72.13,-47.8 72.85,-40.16 68.74,-44.83 68.74,-44.83 68.74,-44.83 72.85,-40.16 65.36,-41.86 75.34,-37.31"/>
<text xml:space="preserve" text-anchor="middle" x="63.78" y="-133.2" font-family="Arial" font-size="9.00" fill="blue">rest&#45;template</text>
</g>
<!-- logging&#45;service -->
<g id="node8" class="node">
<title>logging&#45;service</title>
<path fill="lightgray" stroke="black" d="M950.03,-36C950.03,-36 892.78,-36 892.78,-36 886.78,-36 880.78,-30 880.78,-24 880.78,-24 880.78,-12 880.78,-12 880.78,-6 886.78,0 892.78,0 892.78,0 950.03,0 950.03,0 956.03,0 962.03,-6 962.03,-12 962.03,-12 962.03,-24 962.03,-24 962.03,-30 956.03,-36 950.03,-36"/>
<text xml:space="preserve" text-anchor="middle" x="921.41" y="-20.5" font-family="Arial" font-size="10.00">logging&#45;service</text>
<text xml:space="preserve" text-anchor="middle" x="921.41" y="-8.5" font-family="Arial" font-size="10.00">Port: 8088</text>
</g>
<!-- user&#45;service&#45;&gt;logging&#45;service -->
<g id="edge13" class="edge">
<title>user&#45;service&#45;&gt;logging&#45;service</title>
<path fill="none" stroke="blue" d="M561.46,-125.16C631.3,-104.56 788.1,-58.32 869.75,-34.23"/>
<polygon fill="blue" stroke="blue" points="879.12,-31.47 870.8,-38.62 875.49,-32.54 869.52,-34.3 869.52,-34.3 869.52,-34.3 875.49,-32.54 868.25,-29.99 879.12,-31.47"/>
<text xml:space="preserve" text-anchor="middle" x="762.38" y="-73.95" font-family="Arial" font-size="9.00" fill="blue">rest&#45;template</text>
</g>
<!-- user&#45;service&#45;&gt;email&#45;service -->
<g id="edge14" class="edge">
<title>user&#45;service&#45;&gt;email&#45;service</title>
<path fill="none" stroke="blue" d="M491.34,-126.06C414.11,-105.29 229.24,-55.55 141.37,-31.9"/>
<polygon fill="blue" stroke="blue" points="131.82,-29.33 142.64,-27.59 135.47,-30.32 141.47,-31.93 141.47,-31.93 141.47,-31.93 135.47,-30.32 140.31,-36.28 131.82,-29.33"/>
<text xml:space="preserve" text-anchor="middle" x="349.52" y="-73.95" font-family="Arial" font-size="9.00" fill="blue">rest&#45;template</text>
</g>
<!-- gateway&#45;service -->
<g id="node10" class="node">
<title>gateway&#45;service</title>
<path fill="lightgreen" stroke="black" d="M792.03,-628.5C792.03,-628.5 728.78,-628.5 728.78,-628.5 722.78,-628.5 716.78,-622.5 716.78,-616.5 716.78,-616.5 716.78,-604.5 716.78,-604.5 716.78,-598.5 722.78,-592.5 728.78,-592.5 728.78,-592.5 792.03,-592.5 792.03,-592.5 798.03,-592.5 804.03,-598.5 804.03,-604.5 804.03,-604.5 804.03,-616.5 804.03,-616.5 804.03,-622.5 798.03,-628.5 792.03,-628.5"/>
<text xml:space="preserve" text-anchor="middle" x="760.41" y="-613" font-family="Arial" font-size="10.00">gateway&#45;service</text>
<text xml:space="preserve" text-anchor="middle" x="760.41" y="-601" font-family="Arial" font-size="10.00">Port: 8080</text>
</g>
<!-- gateway&#45;service&#45;&gt;product&#45;service -->
<g id="edge15" class="edge">
<title>gateway&#45;service&#45;&gt;product&#45;service</title>
<path fill="none" stroke="darkgreen" d="M716.42,-607.28C593.97,-600.32 252.41,-575.37 164.41,-510 102.74,-464.19 75.75,-431.51 86.91,-355.5 98.03,-279.75 92.73,-253.38 136.41,-190.5 144.22,-179.25 155.17,-169.37 166.1,-161.28"/>
<polygon fill="darkgreen" stroke="darkgreen" points="174.2,-155.62 168.58,-165.04 171.1,-157.79 166,-161.35 166,-161.35 166,-161.35 171.1,-157.79 163.42,-157.66 174.2,-155.62"/>
<text xml:space="preserve" text-anchor="middle" x="104.16" y="-370.2" font-family="Arial" font-size="9.00" fill="darkgreen">gateway</text>
</g>
<!-- gateway&#45;service&#45;&gt;notification&#45;service -->
<g id="edge16" class="edge">
<title>gateway&#45;service&#45;&gt;notification&#45;service</title>
<path fill="none" stroke="darkgreen" d="M788.4,-592.05C803.42,-582.24 821.97,-569.4 837.41,-556.5 851.45,-544.77 865.91,-530.39 877.43,-518.28"/>
<polygon fill="darkgreen" stroke="darkgreen" points="884.06,-511.21 880.5,-521.58 881.47,-513.97 877.22,-518.5 877.22,-518.5 877.22,-518.5 881.47,-513.97 873.94,-515.42 884.06,-511.21"/>
<text xml:space="preserve" text-anchor="middle" x="865.67" y="-547.95" font-family="Arial" font-size="9.00" fill="darkgreen">gateway</text>
</g>
<!-- gateway&#45;service&#45;&gt;dependency&#45;analyzer&#45;enhanced -->
<g id="edge17" class="edge">
<title>gateway&#45;service&#45;&gt;dependency&#45;analyzer&#45;enhanced</title>
<path fill="none" stroke="darkgreen" d="M802.93,-592.06C853.37,-571.37 937.47,-536.87 991.92,-514.53"/>
<polygon fill="darkgreen" stroke="darkgreen" points="1000.94,-510.83 993.39,-518.79 997.44,-512.27 991.68,-514.63 991.68,-514.63 991.68,-514.63 997.44,-512.27 989.98,-510.46 1000.94,-510.83"/>
<text xml:space="preserve" text-anchor="middle" x="928.17" y="-547.95" font-family="Arial" font-size="9.00" fill="darkgreen">gateway</text>
</g>
<!-- gateway&#45;service&#45;&gt;payment&#45;service -->
<g id="edge18" class="edge">
<title>gateway&#45;service&#45;&gt;payment&#45;service</title>
<path fill="none" stroke="darkgreen" d="M716.56,-605.72C632.75,-597.27 445.31,-572.46 300.91,-510 249.14,-487.61 222.64,-487.93 196.41,-438 189.53,-424.91 196.68,-411.14 206.91,-399.78"/>
<polygon fill="darkgreen" stroke="darkgreen" points="213.89,-392.84 209.98,-403.08 211.21,-395.5 206.8,-399.89 206.8,-399.89 206.8,-399.89 211.21,-395.5 203.63,-396.7 213.89,-392.84"/>
<text xml:space="preserve" text-anchor="middle" x="318.16" y="-488.7" font-family="Arial" font-size="9.00" fill="darkgreen">gateway</text>
</g>
<!-- gateway&#45;service&#45;&gt;order&#45;service -->
<g id="edge20" class="edge">
<title>gateway&#45;service&#45;&gt;order&#45;service</title>
<path fill="none" stroke="darkgreen" d="M716.68,-605.46C603.6,-594.39 304.48,-560.94 220.41,-510 152.25,-468.7 113.33,-433.55 129.41,-355.5 133.95,-333.47 134.16,-325.54 149.41,-309 164.02,-293.15 184.47,-281.16 203.07,-272.62"/>
<polygon fill="darkgreen" stroke="darkgreen" points="212.05,-268.72 204.67,-276.83 208.58,-270.22 202.87,-272.7 202.87,-272.7 202.87,-272.7 208.58,-270.22 201.08,-268.58 212.05,-268.72"/>
<text xml:space="preserve" text-anchor="middle" x="155.06" y="-429.45" font-family="Arial" font-size="9.00" fill="darkgreen">gateway</text>
</g>
<!-- gateway&#45;service&#45;&gt;user&#45;service -->
<g id="edge24" class="edge">
<title>gateway&#45;service&#45;&gt;user&#45;service</title>
<path fill="none" stroke="darkgreen" d="M770.35,-592.17C793.36,-549.6 845.36,-437.41 805.41,-355.5 756.56,-255.33 636.96,-187.7 571.33,-156.77"/>
<polygon fill="darkgreen" stroke="darkgreen" points="562.39,-152.63 573.35,-152.74 565.82,-154.22 571.46,-156.83 571.46,-156.83 571.46,-156.83 565.82,-154.22 569.57,-160.91 562.39,-152.63"/>
<text xml:space="preserve" text-anchor="middle" x="834.01" y="-370.2" font-family="Arial" font-size="9.00" fill="darkgreen">gateway</text>
</g>
<!-- gateway&#45;service&#45;&gt;logging&#45;service -->
<g id="edge19" class="edge">
<title>gateway&#45;service&#45;&gt;logging&#45;service</title>
<path fill="none" stroke="darkgreen" d="M804.47,-594.61C807.48,-593.83 810.48,-593.11 813.41,-592.5 889.94,-576.47 1096.09,-596.27 1163.41,-556.5 1192.97,-539.03 1207.41,-527.34 1207.41,-493 1207.41,-493 1207.41,-493 1207.41,-135.5 1207.41,-101.16 1191.93,-91.11 1163.41,-72 1105.98,-33.53 1025.29,-22.47 973.17,-19.57"/>
<polygon fill="darkgreen" stroke="darkgreen" points="963.39,-19.12 973.59,-15.09 967.17,-19.29 973.38,-19.58 973.38,-19.58 973.38,-19.58 967.17,-19.29 973.17,-24.08 963.39,-19.12"/>
<text xml:space="preserve" text-anchor="middle" x="1224.66" y="-310.95" font-family="Arial" font-size="9.00" fill="darkgreen">gateway</text>
</g>
<!-- gateway&#45;service&#45;&gt;email&#45;service -->
<g id="edge22" class="edge">
<title>gateway&#45;service&#45;&gt;email&#45;service</title>
<path fill="none" stroke="darkgreen" d="M804.31,-595.21C807.38,-594.27 810.44,-593.36 813.41,-592.5 962.98,-549.09 1149.41,-648.74 1149.41,-493 1149.41,-493 1149.41,-493 1149.41,-135.5 1149.41,-32.71 348.75,-20.6 141.77,-19.18"/>
<polygon fill="darkgreen" stroke="darkgreen" points="131.9,-19.12 141.93,-14.69 135.68,-19.15 141.9,-19.19 141.9,-19.19 141.9,-19.19 135.68,-19.15 141.87,-23.68 131.9,-19.12"/>
<text xml:space="preserve" text-anchor="middle" x="1166.66" y="-310.95" font-family="Arial" font-size="9.00" fill="darkgreen">gateway</text>
</g>
<!-- analytics&#45;service -->
<g id="node11" class="node">
<title>analytics&#45;service</title>
<path fill="lightgray" stroke="black" d="M692.16,-510C692.16,-510 626.66,-510 626.66,-510 620.66,-510 614.66,-504 614.66,-498 614.66,-498 614.66,-486 614.66,-486 614.66,-480 620.66,-474 626.66,-474 626.66,-474 692.16,-474 692.16,-474 698.16,-474 704.16,-480 704.16,-486 704.16,-486 704.16,-498 704.16,-498 704.16,-504 698.16,-510 692.16,-510"/>
<text xml:space="preserve" text-anchor="middle" x="659.41" y="-494.5" font-family="Arial" font-size="10.00">analytics&#45;service</text>
<text xml:space="preserve" text-anchor="middle" x="659.41" y="-482.5" font-family="Arial" font-size="10.00">Port: 8090</text>
</g>
<!-- gateway&#45;service&#45;&gt;analytics&#45;service -->
<g id="edge21" class="edge">
<title>gateway&#45;service&#45;&gt;analytics&#45;service</title>
<path fill="none" stroke="darkgreen" d="M744.02,-592.03C734.51,-581.79 722.39,-568.54 711.91,-556.5 701.28,-544.29 689.79,-530.47 680.28,-518.84"/>
<polygon fill="darkgreen" stroke="darkgreen" points="674.21,-511.39 684.01,-516.3 676.6,-514.32 680.52,-519.14 680.52,-519.14 680.52,-519.14 676.6,-514.32 677.04,-521.98 674.21,-511.39"/>
<text xml:space="preserve" text-anchor="middle" x="729.16" y="-547.95" font-family="Arial" font-size="9.00" fill="darkgreen">gateway</text>
</g>
<!-- inventory&#45;service -->
<g id="node12" class="node">
<title>inventory&#45;service</title>
<path fill="lightcyan" stroke="black" d="M784.53,-391.5C784.53,-391.5 718.28,-391.5 718.28,-391.5 712.28,-391.5 706.28,-385.5 706.28,-379.5 706.28,-379.5 706.28,-367.5 706.28,-367.5 706.28,-361.5 712.28,-355.5 718.28,-355.5 718.28,-355.5 784.53,-355.5 784.53,-355.5 790.53,-355.5 796.53,-361.5 796.53,-367.5 796.53,-367.5 796.53,-379.5 796.53,-379.5 796.53,-385.5 790.53,-391.5 784.53,-391.5"/>
<text xml:space="preserve" text-anchor="middle" x="751.41" y="-376" font-family="Arial" font-size="10.00">inventory&#45;service</text>
<text xml:space="preserve" text-anchor="middle" x="751.41" y="-364" font-family="Arial" font-size="10.00">Port: 8085</text>
</g>
<!-- gateway&#45;service&#45;&gt;inventory&#45;service -->
<g id="edge25" class="edge">
<title>gateway&#45;service&#45;&gt;inventory&#45;service</title>
<path fill="none" stroke="darkgreen" d="M759.75,-592.22C758.21,-552.07 754.38,-452.17 752.5,-402.9"/>
<polygon fill="darkgreen" stroke="darkgreen" points="752.12,-393.02 757,-402.84 752.26,-396.8 752.5,-403.02 752.5,-403.02 752.5,-403.02 752.26,-396.8 748,-403.19 752.12,-393.02"/>
<text xml:space="preserve" text-anchor="middle" x="773.76" y="-488.7" font-family="Arial" font-size="9.00" fill="darkgreen">gateway</text>
</g>
<!-- reporting&#45;service -->
<g id="node13" class="node">
<title>reporting&#45;service</title>
<path fill="lightgray" stroke="black" d="M420.41,-510C420.41,-510 356.41,-510 356.41,-510 350.41,-510 344.41,-504 344.41,-498 344.41,-498 344.41,-486 344.41,-486 344.41,-480 350.41,-474 356.41,-474 356.41,-474 420.41,-474 420.41,-474 426.41,-474 432.41,-480 432.41,-486 432.41,-486 432.41,-498 432.41,-498 432.41,-504 426.41,-510 420.41,-510"/>
<text xml:space="preserve" text-anchor="middle" x="388.41" y="-494.5" font-family="Arial" font-size="10.00">reporting&#45;service</text>
<text xml:space="preserve" text-anchor="middle" x="388.41" y="-482.5" font-family="Arial" font-size="10.00">Port: 8089</text>
</g>
<!-- gateway&#45;service&#45;&gt;reporting&#45;service -->
<g id="edge23" class="edge">
<title>gateway&#45;service&#45;&gt;reporting&#45;service</title>
<path fill="none" stroke="darkgreen" d="M716.64,-595.79C648.63,-574.5 517.71,-533.49 443.41,-510.23"/>
<polygon fill="darkgreen" stroke="darkgreen" points="434.04,-507.29 444.93,-505.98 437.65,-508.42 443.58,-510.28 443.58,-510.28 443.58,-510.28 437.65,-508.42 442.24,-514.57 434.04,-507.29"/>
<text xml:space="preserve" text-anchor="middle" x="602.81" y="-547.95" font-family="Arial" font-size="9.00" fill="darkgreen">gateway</text>
</g>
<!-- analytics&#45;service&#45;&gt;payment&#45;service -->
<g id="edge28" class="edge">
<title>analytics&#45;service&#45;&gt;payment&#45;service</title>
<path fill="none" stroke="blue" d="M614.35,-478.53C536.62,-457.02 377.59,-413.01 293.44,-389.73"/>
<polygon fill="blue" stroke="blue" points="284,-387.12 294.83,-385.45 287.64,-388.12 293.63,-389.78 293.63,-389.78 293.63,-389.78 287.64,-388.12 292.43,-394.12 284,-387.12"/>
<text xml:space="preserve" text-anchor="middle" x="488.16" y="-429.45" font-family="Arial" font-size="9.00" fill="blue">rest&#45;template</text>
</g>
<!-- analytics&#45;service&#45;&gt;order&#45;service -->
<g id="edge27" class="edge">
<title>analytics&#45;service&#45;&gt;order&#45;service</title>
<path fill="none" stroke="blue" d="M648.55,-473.82C637,-454.59 619.32,-422.11 611.16,-391.5 606.42,-373.74 617.88,-322.49 605.41,-309 564.6,-264.87 384.11,-257.14 296.9,-256.02"/>
<polygon fill="blue" stroke="blue" points="286.96,-255.92 297,-251.52 290.74,-255.95 296.96,-256.02 296.96,-256.02 296.96,-256.02 290.74,-255.95 296.91,-260.52 286.96,-255.92"/>
<text xml:space="preserve" text-anchor="middle" x="637.78" y="-370.2" font-family="Arial" font-size="9.00" fill="blue">rest&#45;template</text>
</g>
<!-- analytics&#45;service&#45;&gt;user&#45;service -->
<g id="edge26" class="edge">
<title>analytics&#45;service&#45;&gt;user&#45;service</title>
<path fill="none" stroke="blue" d="M663.29,-473.93C668.49,-447.86 675.84,-396.79 664.41,-355.5 642.84,-277.64 583.17,-201.28 549.78,-162.96"/>
<polygon fill="blue" stroke="blue" points="543.5,-155.84 553.49,-160.36 546,-158.68 550.12,-163.34 550.12,-163.34 550.12,-163.34 546,-158.68 546.75,-166.32 543.5,-155.84"/>
<text xml:space="preserve" text-anchor="middle" x="677.65" y="-310.95" font-family="Arial" font-size="9.00" fill="blue">rest&#45;template</text>
</g>
<!-- analytics&#45;service&#45;&gt;inventory&#45;service -->
<g id="edge29" class="edge">
<title>analytics&#45;service&#45;&gt;inventory&#45;service</title>
<path fill="none" stroke="blue" d="M666.68,-473.6C672.7,-460.27 682.05,-441.8 693.16,-427.5 701.06,-417.33 711.03,-407.47 720.48,-399.07"/>
<polygon fill="blue" stroke="blue" points="728.01,-392.59 723.36,-402.53 725.14,-395.06 720.43,-399.11 720.43,-399.11 720.43,-399.11 725.14,-395.06 717.49,-395.7 728.01,-392.59"/>
<text xml:space="preserve" text-anchor="middle" x="719.78" y="-429.45" font-family="Arial" font-size="9.00" fill="blue">rest&#45;template</text>
</g>
<!-- reporting&#45;service&#45;&gt;payment&#45;service -->
<g id="edge32" class="edge">
<title>reporting&#45;service&#45;&gt;payment&#45;service</title>
<path fill="none" stroke="blue" d="M344.12,-482.07C317.01,-474.51 283.42,-461.09 261.41,-438 252.18,-428.32 246.61,-414.66 243.27,-402.48"/>
<polygon fill="blue" stroke="blue" points="241.06,-393.07 247.72,-401.78 241.92,-396.75 243.34,-402.8 243.34,-402.8 243.34,-402.8 241.92,-396.75 238.96,-403.83 241.06,-393.07"/>
<text xml:space="preserve" text-anchor="middle" x="283.91" y="-429.45" font-family="Arial" font-size="9.00" fill="blue">feign&#45;client</text>
</g>
<!-- reporting&#45;service&#45;&gt;payment&#45;service -->
<g id="edge33" class="edge">
<title>reporting&#45;service&#45;&gt;payment&#45;service</title>
<path fill="none" stroke="blue" d="M365.95,-473.56C340.29,-453.63 298.13,-420.88 269.36,-398.54"/>
<polygon fill="blue" stroke="blue" points="261.49,-392.43 272.15,-395.01 264.48,-394.75 269.39,-398.56 269.39,-398.56 269.39,-398.56 264.48,-394.75 266.63,-402.12 261.49,-392.43"/>
<text xml:space="preserve" text-anchor="middle" x="340.41" y="-429.45" font-family="Arial" font-size="9.00" fill="blue">feign&#45;client</text>
</g>
<!-- reporting&#45;service&#45;&gt;payment&#45;service -->
<g id="edge34" class="edge">
<title>reporting&#45;service&#45;&gt;payment&#45;service</title>
<path fill="none" stroke="blue" d="M344.08,-484.43C295.19,-476.16 221.2,-460.31 204.41,-438 195.63,-426.34 201.92,-412.12 211.36,-400.09"/>
<polygon fill="blue" stroke="blue" points="217.82,-392.71 214.63,-403.2 215.33,-395.55 211.24,-400.23 211.24,-400.23 211.24,-400.23 215.33,-395.55 207.85,-397.27 217.82,-392.71"/>
<text xml:space="preserve" text-anchor="middle" x="226.91" y="-429.45" font-family="Arial" font-size="9.00" fill="blue">feign&#45;client</text>
</g>
<!-- reporting&#45;service&#45;&gt;order&#45;service -->
<g id="edge35" class="edge">
<title>reporting&#45;service&#45;&gt;order&#45;service</title>
<path fill="none" stroke="blue" d="M343.92,-489.79C282.59,-485.31 175.65,-466.57 140.41,-391.5 124.28,-357.15 137.02,-337.21 162.41,-309 173.75,-296.4 188.8,-285.8 203.19,-277.47"/>
<polygon fill="blue" stroke="blue" points="211.92,-272.66 205.33,-281.43 208.61,-274.49 203.16,-277.49 203.16,-277.49 203.16,-277.49 208.61,-274.49 200.99,-273.55 211.92,-272.66"/>
<text xml:space="preserve" text-anchor="middle" x="162.91" y="-370.2" font-family="Arial" font-size="9.00" fill="blue">feign&#45;client</text>
</g>
<!-- reporting&#45;service&#45;&gt;order&#45;service -->
<g id="edge36" class="edge">
<title>reporting&#45;service&#45;&gt;order&#45;service</title>
<path fill="none" stroke="blue" d="M387.17,-473.65C383.9,-439.01 372.4,-360.21 333.41,-309 323.48,-295.96 309.34,-285.29 295.49,-277.04"/>
<polygon fill="blue" stroke="blue" points="287.06,-272.31 297.98,-273.28 290.36,-274.16 295.78,-277.2 295.78,-277.2 295.78,-277.2 290.36,-274.16 293.58,-281.13 287.06,-272.31"/>
<text xml:space="preserve" text-anchor="middle" x="394.5" y="-370.2" font-family="Arial" font-size="9.00" fill="blue">feign&#45;client</text>
</g>
<!-- reporting&#45;service&#45;&gt;order&#45;service -->
<g id="edge37" class="edge">
<title>reporting&#45;service&#45;&gt;order&#45;service</title>
<path fill="none" stroke="blue" d="M399.35,-473.74C414.81,-446.98 438.98,-394.5 418.41,-355.5 393.83,-308.92 337.26,-282.3 296.32,-268.53"/>
<polygon fill="blue" stroke="blue" points="286.92,-265.51 297.82,-264.29 290.52,-266.67 296.44,-268.57 296.44,-268.57 296.44,-268.57 290.52,-266.67 295.07,-272.85 286.92,-265.51"/>
<text xml:space="preserve" text-anchor="middle" x="448.84" y="-370.2" font-family="Arial" font-size="9.00" fill="blue">feign&#45;client</text>
</g>
<!-- reporting&#45;service&#45;&gt;user&#45;service -->
<g id="edge30" class="edge">
<title>reporting&#45;service&#45;&gt;user&#45;service</title>
<path fill="none" stroke="blue" d="M432.79,-482.12C457.24,-474.72 485.56,-461.45 500.41,-438 531.61,-388.71 467.24,-366.65 476.16,-309 483.86,-259.24 496.64,-249.44 510.41,-201 513.68,-189.47 516.97,-176.68 519.71,-165.61"/>
<polygon fill="blue" stroke="blue" points="522.05,-156.01 524.06,-166.79 521.16,-159.68 519.68,-165.72 519.68,-165.72 519.68,-165.72 521.16,-159.68 515.31,-164.66 522.05,-156.01"/>
<text xml:space="preserve" text-anchor="middle" x="502.78" y="-310.95" font-family="Arial" font-size="9.00" fill="blue">rest&#45;template</text>
</g>
<!-- reporting&#45;service&#45;&gt;user&#45;service -->
<g id="edge31" class="edge">
<title>reporting&#45;service&#45;&gt;user&#45;service</title>
<path fill="none" stroke="blue" d="M432.63,-484.67C461.5,-478.09 497.43,-464.78 517.41,-438 578.7,-355.83 551.24,-222.87 535.14,-165.41"/>
<polygon fill="blue" stroke="blue" points="532.44,-156.14 539.55,-164.48 533.49,-159.77 535.23,-165.74 535.23,-165.74 535.23,-165.74 533.49,-159.77 530.91,-167 532.44,-156.14"/>
<text xml:space="preserve" text-anchor="middle" x="581.93" y="-310.95" font-family="Arial" font-size="9.00" fill="blue">rest&#45;template</text>
</g>
<!-- legend_info -->
<g id="node14" class="node">
<title>legend_info</title>
<path fill="lightgrey" stroke="none" d="M1335.78,-628.5C1335.78,-628.5 929.03,-628.5 929.03,-628.5 923.03,-628.5 917.03,-622.5 917.03,-616.5 917.03,-616.5 917.03,-604.5 917.03,-604.5 917.03,-598.5 923.03,-592.5 929.03,-592.5 929.03,-592.5 1335.78,-592.5 1335.78,-592.5 1341.78,-592.5 1347.78,-598.5 1347.78,-604.5 1347.78,-604.5 1347.78,-616.5 1347.78,-616.5 1347.78,-622.5 1341.78,-628.5 1335.78,-628.5"/>
<text xml:space="preserve" text-anchor="middle" x="1132.41" y="-613" font-family="Arial" font-size="10.00">Service Types: Gateway=Green | Config=Yellow | Business=Blue | Support=Cyan | Other=Gray</text>
<text xml:space="preserve" text-anchor="middle" x="1132.41" y="-601" font-family="Arial" font-size="10.00">Connections: →Gateway(Green) →REST/Feign(Blue) →Messaging(Purple)</text>
</g>
</g>
</svg>
