<svg width="1200px" height="800px"
 viewBox="0.00 0.00 1790.00 555.00" xmlns="http://www.w3.org/2000/svg" xmlns:xlink="http://www.w3.org/1999/xlink">
<g id="graph0" class="graph" transform="scale(1.0 1.0) rotate(0.0) translate(4.0 550.5)">
<title>microservices</title>
<polygon fill="white" stroke="none" points="-4,4 -4,-550.5 1786,-550.5 1786,4 -4,4"/>
<text xml:space="preserve" text-anchor="middle" x="891" y="-531.1" font-family="Arial" font-size="12.00">Microservices Dependency Graph</text>
<text xml:space="preserve" text-anchor="middle" x="891" y="-516.85" font-family="Arial" font-size="12.00">(Generated with GraphViz Java &#45; Pure Maven)</text>
<!-- product&#45;service -->
<g id="node1" class="node">
<title>product&#45;service</title>
<path fill="lightblue" stroke="black" d="M182,-154.5C182,-154.5 123.25,-154.5 123.25,-154.5 117.25,-154.5 111.25,-148.5 111.25,-142.5 111.25,-142.5 111.25,-130.5 111.25,-130.5 111.25,-124.5 117.25,-118.5 123.25,-118.5 123.25,-118.5 182,-118.5 182,-118.5 188,-118.5 194,-124.5 194,-130.5 194,-130.5 194,-142.5 194,-142.5 194,-148.5 188,-154.5 182,-154.5"/>
<text xml:space="preserve" text-anchor="middle" x="152.62" y="-139" font-family="Arial" font-size="10.00">product&#45;service</text>
<text xml:space="preserve" text-anchor="middle" x="152.62" y="-127" font-family="Arial" font-size="10.00">Port: 8082</text>
</g>
<!-- config&#45;service -->
<g id="node2" class="node">
<title>config&#45;service</title>
<path fill="lightyellow" stroke="black" d="M503,-510C503,-510 450.25,-510 450.25,-510 444.25,-510 438.25,-504 438.25,-498 438.25,-498 438.25,-486 438.25,-486 438.25,-480 444.25,-474 450.25,-474 450.25,-474 503,-474 503,-474 509,-474 515,-480 515,-486 515,-486 515,-498 515,-498 515,-504 509,-510 503,-510"/>
<text xml:space="preserve" text-anchor="middle" x="476.62" y="-494.5" font-family="Arial" font-size="10.00">config&#45;service</text>
<text xml:space="preserve" text-anchor="middle" x="476.62" y="-482.5" font-family="Arial" font-size="10.00">Port: 8761</text>
</g>
<!-- notification&#45;service -->
<g id="node3" class="node">
<title>notification&#45;service</title>
<path fill="lightcyan" stroke="black" d="M636.5,-510C636.5,-510 562.75,-510 562.75,-510 556.75,-510 550.75,-504 550.75,-498 550.75,-498 550.75,-486 550.75,-486 550.75,-480 556.75,-474 562.75,-474 562.75,-474 636.5,-474 636.5,-474 642.5,-474 648.5,-480 648.5,-486 648.5,-486 648.5,-498 648.5,-498 648.5,-504 642.5,-510 636.5,-510"/>
<text xml:space="preserve" text-anchor="middle" x="599.62" y="-494.5" font-family="Arial" font-size="10.00">notification&#45;service</text>
<text xml:space="preserve" text-anchor="middle" x="599.62" y="-482.5" font-family="Arial" font-size="10.00">Port: 8086</text>
</g>
<!-- dependency&#45;analyzer&#45;enhanced -->
<g id="node4" class="node">
<title>dependency&#45;analyzer&#45;enhanced</title>
<path fill="lightgray" stroke="black" d="M826.25,-510C826.25,-510 697,-510 697,-510 691,-510 685,-504 685,-498 685,-498 685,-486 685,-486 685,-480 691,-474 697,-474 697,-474 826.25,-474 826.25,-474 832.25,-474 838.25,-480 838.25,-486 838.25,-486 838.25,-498 838.25,-498 838.25,-504 832.25,-510 826.25,-510"/>
<text xml:space="preserve" text-anchor="middle" x="761.62" y="-494.5" font-family="Arial" font-size="10.00">dependency&#45;analyzer&#45;enhanced</text>
<text xml:space="preserve" text-anchor="middle" x="761.62" y="-482.5" font-family="Arial" font-size="10.00">Port: null</text>
</g>
<!-- payment&#45;service -->
<g id="node5" class="node">
<title>payment&#45;service</title>
<path fill="lightcyan" stroke="black" d="M332.62,-391.5C332.62,-391.5 268.62,-391.5 268.62,-391.5 262.62,-391.5 256.62,-385.5 256.62,-379.5 256.62,-379.5 256.62,-367.5 256.62,-367.5 256.62,-361.5 262.62,-355.5 268.62,-355.5 268.62,-355.5 332.62,-355.5 332.62,-355.5 338.62,-355.5 344.62,-361.5 344.62,-367.5 344.62,-367.5 344.62,-379.5 344.62,-379.5 344.62,-385.5 338.62,-391.5 332.62,-391.5"/>
<text xml:space="preserve" text-anchor="middle" x="300.62" y="-376" font-family="Arial" font-size="10.00">payment&#45;service</text>
<text xml:space="preserve" text-anchor="middle" x="300.62" y="-364" font-family="Arial" font-size="10.00">Port: 8084</text>
</g>
<!-- order&#45;service -->
<g id="node6" class="node">
<title>order&#45;service</title>
<path fill="lightblue" stroke="black" d="M255.75,-273C255.75,-273 207.5,-273 207.5,-273 201.5,-273 195.5,-267 195.5,-261 195.5,-261 195.5,-249 195.5,-249 195.5,-243 201.5,-237 207.5,-237 207.5,-237 255.75,-237 255.75,-237 261.75,-237 267.75,-243 267.75,-249 267.75,-249 267.75,-261 267.75,-261 267.75,-267 261.75,-273 255.75,-273"/>
<text xml:space="preserve" text-anchor="middle" x="231.62" y="-257.5" font-family="Arial" font-size="10.00">order&#45;service</text>
<text xml:space="preserve" text-anchor="middle" x="231.62" y="-245.5" font-family="Arial" font-size="10.00">Port: 8083</text>
</g>
<!-- payment&#45;service&#45;&gt;order&#45;service -->
<g id="edge1" class="edge">
<title>payment&#45;service&#45;&gt;order&#45;service</title>
<path fill="none" stroke="blue" d="M290.3,-355.06C278.95,-335.9 260.6,-304.91 247.44,-282.7"/>
<polygon fill="blue" stroke="blue" points="242.42,-274.23 251.39,-280.54 244.35,-277.48 247.52,-282.83 247.52,-282.83 247.52,-282.83 244.35,-277.48 243.65,-285.13 242.42,-274.23"/>
<text xml:space="preserve" text-anchor="middle" x="290.69" y="-310.95" font-family="Arial" font-size="9.00" fill="blue">feign&#45;client</text>
</g>
<!-- email&#45;service -->
<g id="node9" class="node">
<title>email&#45;service</title>
<path fill="lightgray" stroke="black" d="M290.5,-36C290.5,-36 240.75,-36 240.75,-36 234.75,-36 228.75,-30 228.75,-24 228.75,-24 228.75,-12 228.75,-12 228.75,-6 234.75,0 240.75,0 240.75,0 290.5,0 290.5,0 296.5,0 302.5,-6 302.5,-12 302.5,-12 302.5,-24 302.5,-24 302.5,-30 296.5,-36 290.5,-36"/>
<text xml:space="preserve" text-anchor="middle" x="265.62" y="-20.5" font-family="Arial" font-size="10.00">email&#45;service</text>
<text xml:space="preserve" text-anchor="middle" x="265.62" y="-8.5" font-family="Arial" font-size="10.00">Port: 8087</text>
</g>
<!-- payment&#45;service&#45;&gt;email&#45;service -->
<g id="edge2" class="edge">
<title>payment&#45;service&#45;&gt;email&#45;service</title>
<path fill="none" stroke="blue" d="M309.76,-355.38C314.63,-345.26 320.13,-332.01 322.62,-319.5 340.09,-231.85 338.96,-205.04 316.62,-118.5 309.85,-92.25 295.29,-65.03 283.45,-45.71"/>
<polygon fill="blue" stroke="blue" points="278.22,-37.4 287.36,-43.46 280.23,-40.6 283.55,-45.86 283.55,-45.86 283.55,-45.86 280.23,-40.6 279.74,-48.26 278.22,-37.4"/>
<text xml:space="preserve" text-anchor="middle" x="359.9" y="-192.45" font-family="Arial" font-size="9.00" fill="blue">rest&#45;template</text>
</g>
<!-- order&#45;service&#45;&gt;product&#45;service -->
<g id="edge3" class="edge">
<title>order&#45;service&#45;&gt;product&#45;service</title>
<path fill="none" stroke="blue" d="M218.3,-236.56C210.61,-226.33 200.86,-213.08 192.62,-201 184.57,-189.18 176.06,-175.81 168.97,-164.4"/>
<polygon fill="blue" stroke="blue" points="163.8,-156 172.88,-162.16 165.78,-159.22 169.04,-164.52 169.04,-164.52 169.04,-164.52 165.78,-159.22 165.21,-166.88 163.8,-156"/>
<text xml:space="preserve" text-anchor="middle" x="215.12" y="-192.45" font-family="Arial" font-size="9.00" fill="blue">feign&#45;client</text>
</g>
<!-- user&#45;service -->
<g id="node7" class="node">
<title>user&#45;service</title>
<path fill="lightblue" stroke="black" d="M63.25,-154.5C63.25,-154.5 18,-154.5 18,-154.5 12,-154.5 6,-148.5 6,-142.5 6,-142.5 6,-130.5 6,-130.5 6,-124.5 12,-118.5 18,-118.5 18,-118.5 63.25,-118.5 63.25,-118.5 69.25,-118.5 75.25,-124.5 75.25,-130.5 75.25,-130.5 75.25,-142.5 75.25,-142.5 75.25,-148.5 69.25,-154.5 63.25,-154.5"/>
<text xml:space="preserve" text-anchor="middle" x="40.62" y="-139" font-family="Arial" font-size="10.00">user&#45;service</text>
<text xml:space="preserve" text-anchor="middle" x="40.62" y="-127" font-family="Arial" font-size="10.00">Port: 8081</text>
</g>
<!-- order&#45;service&#45;&gt;user&#45;service -->
<g id="edge4" class="edge">
<title>order&#45;service&#45;&gt;user&#45;service</title>
<path fill="none" stroke="blue" d="M195.12,-250.18C140.57,-243.63 41.88,-228.25 20.62,-201 12.46,-190.53 15.65,-176.68 21.64,-164.58"/>
<polygon fill="blue" stroke="blue" points="26.55,-156 25.49,-166.92 24.67,-159.29 21.58,-164.68 21.58,-164.68 21.58,-164.68 24.67,-159.29 17.68,-162.45 26.55,-156"/>
<text xml:space="preserve" text-anchor="middle" x="43.12" y="-192.45" font-family="Arial" font-size="9.00" fill="blue">feign&#45;client</text>
</g>
<!-- order&#45;service&#45;&gt;email&#45;service -->
<g id="edge5" class="edge">
<title>order&#45;service&#45;&gt;email&#45;service</title>
<path fill="none" stroke="blue" d="M235.54,-236.88C237.81,-226.53 240.62,-213.05 242.62,-201 251.63,-146.95 258.92,-83.34 262.73,-47.44"/>
<polygon fill="blue" stroke="blue" points="263.76,-37.59 267.2,-48.01 263.37,-41.35 262.72,-47.54 262.72,-47.54 262.72,-47.54 263.37,-41.35 258.25,-47.07 263.76,-37.59"/>
<text xml:space="preserve" text-anchor="middle" x="280.83" y="-133.2" font-family="Arial" font-size="9.00" fill="blue">rest&#45;template</text>
</g>
<!-- user&#45;service&#45;&gt;order&#45;service -->
<g id="edge6" class="edge">
<title>user&#45;service&#45;&gt;order&#45;service</title>
<path fill="none" stroke="blue" d="M63.67,-154.75C81.76,-168 107.79,-186.44 131.62,-201 149.15,-211.7 169.03,-222.5 186.42,-231.53"/>
<polygon fill="blue" stroke="blue" points="195.25,-236.07 184.3,-235.5 191.89,-234.34 186.36,-231.5 186.36,-231.5 186.36,-231.5 191.89,-234.34 188.41,-227.49 195.25,-236.07"/>
<text xml:space="preserve" text-anchor="middle" x="154.12" y="-192.45" font-family="Arial" font-size="9.00" fill="blue">feign&#45;client</text>
</g>
<!-- logging&#45;service -->
<g id="node8" class="node">
<title>logging&#45;service</title>
<path fill="lightgray" stroke="black" d="M69.25,-36C69.25,-36 12,-36 12,-36 6,-36 0,-30 0,-24 0,-24 0,-12 0,-12 0,-6 6,0 12,0 12,0 69.25,0 69.25,0 75.25,0 81.25,-6 81.25,-12 81.25,-12 81.25,-24 81.25,-24 81.25,-30 75.25,-36 69.25,-36"/>
<text xml:space="preserve" text-anchor="middle" x="40.62" y="-20.5" font-family="Arial" font-size="10.00">logging&#45;service</text>
<text xml:space="preserve" text-anchor="middle" x="40.62" y="-8.5" font-family="Arial" font-size="10.00">Port: 8088</text>
</g>
<!-- user&#45;service&#45;&gt;logging&#45;service -->
<g id="edge7" class="edge">
<title>user&#45;service&#45;&gt;logging&#45;service</title>
<path fill="none" stroke="blue" d="M40.62,-118.06C40.62,-99.33 40.62,-69.3 40.62,-47.21"/>
<polygon fill="blue" stroke="blue" points="40.63,-37.4 45.13,-47.4 40.63,-41.18 40.63,-47.4 40.63,-47.4 40.63,-47.4 40.63,-41.18 36.13,-47.4 40.63,-37.4"/>
<text xml:space="preserve" text-anchor="middle" x="67.25" y="-73.95" font-family="Arial" font-size="9.00" fill="blue">rest&#45;template</text>
</g>
<!-- user&#45;service&#45;&gt;email&#45;service -->
<g id="edge8" class="edge">
<title>user&#45;service&#45;&gt;email&#45;service</title>
<path fill="none" stroke="blue" d="M74.31,-118.06C113.69,-97.67 178.97,-63.87 222.15,-41.51"/>
<polygon fill="blue" stroke="blue" points="231,-36.93 224.18,-45.52 227.64,-38.67 222.12,-41.53 222.12,-41.53 222.12,-41.53 227.64,-38.67 220.05,-37.53 231,-36.93"/>
<text xml:space="preserve" text-anchor="middle" x="186.5" y="-73.95" font-family="Arial" font-size="9.00" fill="blue">rest&#45;template</text>
</g>
<!-- gateway&#45;service -->
<g id="node10" class="node">
<title>gateway&#45;service</title>
<path fill="lightgreen" stroke="black" d="M949.25,-510C949.25,-510 886,-510 886,-510 880,-510 874,-504 874,-498 874,-498 874,-486 874,-486 874,-480 880,-474 886,-474 886,-474 949.25,-474 949.25,-474 955.25,-474 961.25,-480 961.25,-486 961.25,-486 961.25,-498 961.25,-498 961.25,-504 955.25,-510 949.25,-510"/>
<text xml:space="preserve" text-anchor="middle" x="917.62" y="-494.5" font-family="Arial" font-size="10.00">gateway&#45;service</text>
<text xml:space="preserve" text-anchor="middle" x="917.62" y="-482.5" font-family="Arial" font-size="10.00">Port: 8080</text>
</g>
<!-- analytics&#45;service -->
<g id="node11" class="node">
<title>analytics&#45;service</title>
<path fill="lightgray" stroke="black" d="M1074.38,-510C1074.38,-510 1008.88,-510 1008.88,-510 1002.88,-510 996.88,-504 996.88,-498 996.88,-498 996.88,-486 996.88,-486 996.88,-480 1002.88,-474 1008.88,-474 1008.88,-474 1074.38,-474 1074.38,-474 1080.38,-474 1086.38,-480 1086.38,-486 1086.38,-486 1086.38,-498 1086.38,-498 1086.38,-504 1080.38,-510 1074.38,-510"/>
<text xml:space="preserve" text-anchor="middle" x="1041.62" y="-494.5" font-family="Arial" font-size="10.00">analytics&#45;service</text>
<text xml:space="preserve" text-anchor="middle" x="1041.62" y="-482.5" font-family="Arial" font-size="10.00">Port: 8090</text>
</g>
<!-- reporting&#45;service -->
<g id="node12" class="node">
<title>reporting&#45;service</title>
<path fill="lightgray" stroke="black" d="M390.62,-510C390.62,-510 326.62,-510 326.62,-510 320.62,-510 314.62,-504 314.62,-498 314.62,-498 314.62,-486 314.62,-486 314.62,-480 320.62,-474 326.62,-474 326.62,-474 390.62,-474 390.62,-474 396.62,-474 402.62,-480 402.62,-486 402.62,-486 402.62,-498 402.62,-498 402.62,-504 396.62,-510 390.62,-510"/>
<text xml:space="preserve" text-anchor="middle" x="358.62" y="-494.5" font-family="Arial" font-size="10.00">reporting&#45;service</text>
<text xml:space="preserve" text-anchor="middle" x="358.62" y="-482.5" font-family="Arial" font-size="10.00">Port: 8089</text>
</g>
<!-- reporting&#45;service&#45;&gt;payment&#45;service -->
<g id="edge9" class="edge">
<title>reporting&#45;service&#45;&gt;payment&#45;service</title>
<path fill="none" stroke="blue" d="M349.94,-473.56C340.45,-454.49 325.12,-423.69 314.07,-401.5"/>
<polygon fill="blue" stroke="blue" points="309.72,-392.77 318.21,-399.72 311.41,-396.16 314.18,-401.72 314.18,-401.72 314.18,-401.72 311.41,-396.16 310.15,-403.73 309.72,-392.77"/>
<text xml:space="preserve" text-anchor="middle" x="353.86" y="-429.45" font-family="Arial" font-size="9.00" fill="blue">feign&#45;client</text>
</g>
<!-- reporting&#45;service&#45;&gt;order&#45;service -->
<g id="edge10" class="edge">
<title>reporting&#45;service&#45;&gt;order&#45;service</title>
<path fill="none" stroke="blue" d="M370.09,-473.67C376,-463.69 382.59,-450.65 385.62,-438 392.61,-408.89 380.84,-388.09 362.62,-355.5 349.32,-331.71 343.58,-326.43 322.62,-309 308.9,-297.59 292.42,-287.17 277.27,-278.65"/>
<polygon fill="blue" stroke="blue" points="268.61,-273.92 279.55,-274.77 271.93,-275.73 277.39,-278.72 277.39,-278.72 277.39,-278.72 271.93,-275.73 275.23,-282.67 268.61,-273.92"/>
<text xml:space="preserve" text-anchor="middle" x="403.47" y="-370.2" font-family="Arial" font-size="9.00" fill="blue">feign&#45;client</text>
</g>
<!-- common&#45;lib -->
<g id="node13" class="node">
<title>common&#45;lib</title>
<path fill="lightgray" stroke="black" d="M1176.75,-510C1176.75,-510 1134.5,-510 1134.5,-510 1128.5,-510 1122.5,-504 1122.5,-498 1122.5,-498 1122.5,-486 1122.5,-486 1122.5,-480 1128.5,-474 1134.5,-474 1134.5,-474 1176.75,-474 1176.75,-474 1182.75,-474 1188.75,-480 1188.75,-486 1188.75,-486 1188.75,-498 1188.75,-498 1188.75,-504 1182.75,-510 1176.75,-510"/>
<text xml:space="preserve" text-anchor="middle" x="1155.62" y="-494.5" font-family="Arial" font-size="10.00">common&#45;lib</text>
<text xml:space="preserve" text-anchor="middle" x="1155.62" y="-482.5" font-family="Arial" font-size="10.00">Port: null</text>
</g>
<!-- inventory&#45;service -->
<g id="node14" class="node">
<title>inventory&#45;service</title>
<path fill="lightcyan" stroke="black" d="M1302.75,-510C1302.75,-510 1236.5,-510 1236.5,-510 1230.5,-510 1224.5,-504 1224.5,-498 1224.5,-498 1224.5,-486 1224.5,-486 1224.5,-480 1230.5,-474 1236.5,-474 1236.5,-474 1302.75,-474 1302.75,-474 1308.75,-474 1314.75,-480 1314.75,-486 1314.75,-486 1314.75,-498 1314.75,-498 1314.75,-504 1308.75,-510 1302.75,-510"/>
<text xml:space="preserve" text-anchor="middle" x="1269.62" y="-494.5" font-family="Arial" font-size="10.00">inventory&#45;service</text>
<text xml:space="preserve" text-anchor="middle" x="1269.62" y="-482.5" font-family="Arial" font-size="10.00">Port: 8085</text>
</g>
<!-- legend_info -->
<g id="node15" class="node">
<title>legend_info</title>
<path fill="lightgrey" stroke="none" d="M1770,-510C1770,-510 1363.25,-510 1363.25,-510 1357.25,-510 1351.25,-504 1351.25,-498 1351.25,-498 1351.25,-486 1351.25,-486 1351.25,-480 1357.25,-474 1363.25,-474 1363.25,-474 1770,-474 1770,-474 1776,-474 1782,-480 1782,-486 1782,-486 1782,-498 1782,-498 1782,-504 1776,-510 1770,-510"/>
<text xml:space="preserve" text-anchor="middle" x="1566.62" y="-494.5" font-family="Arial" font-size="10.00">Service Types: Gateway=Green | Config=Yellow | Business=Blue | Support=Cyan | Other=Gray</text>
<text xml:space="preserve" text-anchor="middle" x="1566.62" y="-482.5" font-family="Arial" font-size="10.00">Connections: &#160;&#45;&gt; Gateway(Green) &#160;&#45;&gt; REST/Feign(Blue) &#160;&#45;&gt; Messaging(Purple)</text>
</g>
</g>
</svg>
