<svg width="1200px" height="800px"
 viewBox="0.00 0.00 953.00 673.00" xmlns="http://www.w3.org/2000/svg" xmlns:xlink="http://www.w3.org/1999/xlink">
<g id="graph0" class="graph" transform="scale(1.0 1.0) rotate(0.0) translate(4.0 669.0)">
<title>microservices</title>
<polygon fill="white" stroke="none" points="-4,4 -4,-669 949.38,-669 949.38,4 -4,4"/>
<text xml:space="preserve" text-anchor="middle" x="472.69" y="-649.6" font-family="Arial" font-size="12.00">Microservices Dependency Graph</text>
<text xml:space="preserve" text-anchor="middle" x="472.69" y="-635.35" font-family="Arial" font-size="12.00">(Generated with GraphViz Java &#45; Pure Maven)</text>
<!-- product&#45;service -->
<g id="node1" class="node">
<title>product&#45;service</title>
<path fill="lightblue" stroke="black" d="M106.38,-154.5C106.38,-154.5 47.62,-154.5 47.62,-154.5 41.63,-154.5 35.62,-148.5 35.62,-142.5 35.62,-142.5 35.62,-130.5 35.62,-130.5 35.62,-124.5 41.62,-118.5 47.62,-118.5 47.62,-118.5 106.38,-118.5 106.38,-118.5 112.38,-118.5 118.38,-124.5 118.38,-130.5 118.38,-130.5 118.38,-142.5 118.38,-142.5 118.38,-148.5 112.38,-154.5 106.38,-154.5"/>
<text xml:space="preserve" text-anchor="middle" x="77" y="-139" font-family="Arial" font-size="10.00">product&#45;service</text>
<text xml:space="preserve" text-anchor="middle" x="77" y="-127" font-family="Arial" font-size="10.00">Port: 8082</text>
</g>
<!-- config&#45;service -->
<g id="node2" class="node">
<title>config&#45;service</title>
<path fill="lightyellow" stroke="black" d="M484.38,-628.5C484.38,-628.5 431.62,-628.5 431.62,-628.5 425.62,-628.5 419.62,-622.5 419.62,-616.5 419.62,-616.5 419.62,-604.5 419.62,-604.5 419.62,-598.5 425.62,-592.5 431.62,-592.5 431.62,-592.5 484.38,-592.5 484.38,-592.5 490.38,-592.5 496.38,-598.5 496.38,-604.5 496.38,-604.5 496.38,-616.5 496.38,-616.5 496.38,-622.5 490.38,-628.5 484.38,-628.5"/>
<text xml:space="preserve" text-anchor="middle" x="458" y="-613" font-family="Arial" font-size="10.00">config&#45;service</text>
<text xml:space="preserve" text-anchor="middle" x="458" y="-601" font-family="Arial" font-size="10.00">Port: 8761</text>
</g>
<!-- notification&#45;service -->
<g id="node3" class="node">
<title>notification&#45;service</title>
<path fill="lightcyan" stroke="black" d="M576.88,-510C576.88,-510 503.12,-510 503.12,-510 497.12,-510 491.12,-504 491.12,-498 491.12,-498 491.12,-486 491.12,-486 491.12,-480 497.12,-474 503.12,-474 503.12,-474 576.88,-474 576.88,-474 582.88,-474 588.88,-480 588.88,-486 588.88,-486 588.88,-498 588.88,-498 588.88,-504 582.88,-510 576.88,-510"/>
<text xml:space="preserve" text-anchor="middle" x="540" y="-494.5" font-family="Arial" font-size="10.00">notification&#45;service</text>
<text xml:space="preserve" text-anchor="middle" x="540" y="-482.5" font-family="Arial" font-size="10.00">Port: 8086</text>
</g>
<!-- dependency&#45;analyzer&#45;enhanced -->
<g id="node4" class="node">
<title>dependency&#45;analyzer&#45;enhanced</title>
<path fill="lightgray" stroke="black" d="M748.62,-510C748.62,-510 619.38,-510 619.38,-510 613.38,-510 607.38,-504 607.38,-498 607.38,-498 607.38,-486 607.38,-486 607.38,-480 613.38,-474 619.38,-474 619.38,-474 748.62,-474 748.62,-474 754.62,-474 760.62,-480 760.62,-486 760.62,-486 760.62,-498 760.62,-498 760.62,-504 754.62,-510 748.62,-510"/>
<text xml:space="preserve" text-anchor="middle" x="684" y="-494.5" font-family="Arial" font-size="10.00">dependency&#45;analyzer&#45;enhanced</text>
<text xml:space="preserve" text-anchor="middle" x="684" y="-482.5" font-family="Arial" font-size="10.00">Port: null</text>
</g>
<!-- payment&#45;service -->
<g id="node5" class="node">
<title>payment&#45;service</title>
<path fill="lightcyan" stroke="black" d="M298,-391.5C298,-391.5 234,-391.5 234,-391.5 228,-391.5 222,-385.5 222,-379.5 222,-379.5 222,-367.5 222,-367.5 222,-361.5 228,-355.5 234,-355.5 234,-355.5 298,-355.5 298,-355.5 304,-355.5 310,-361.5 310,-367.5 310,-367.5 310,-379.5 310,-379.5 310,-385.5 304,-391.5 298,-391.5"/>
<text xml:space="preserve" text-anchor="middle" x="266" y="-376" font-family="Arial" font-size="10.00">payment&#45;service</text>
<text xml:space="preserve" text-anchor="middle" x="266" y="-364" font-family="Arial" font-size="10.00">Port: 8084</text>
</g>
<!-- order&#45;service -->
<g id="node6" class="node">
<title>order&#45;service</title>
<path fill="lightblue" stroke="black" d="M189.12,-273C189.12,-273 140.88,-273 140.88,-273 134.88,-273 128.88,-267 128.88,-261 128.88,-261 128.88,-249 128.88,-249 128.88,-243 134.88,-237 140.88,-237 140.88,-237 189.12,-237 189.12,-237 195.12,-237 201.12,-243 201.12,-249 201.12,-249 201.12,-261 201.12,-261 201.12,-267 195.12,-273 189.12,-273"/>
<text xml:space="preserve" text-anchor="middle" x="165" y="-257.5" font-family="Arial" font-size="10.00">order&#45;service</text>
<text xml:space="preserve" text-anchor="middle" x="165" y="-245.5" font-family="Arial" font-size="10.00">Port: 8083</text>
</g>
<!-- payment&#45;service&#45;&gt;order&#45;service -->
<g id="edge1" class="edge">
<title>payment&#45;service&#45;&gt;order&#45;service</title>
<path fill="none" stroke="blue" d="M244.01,-355.07C232.34,-345.27 218.15,-332.43 207,-319.5 197.22,-308.16 187.87,-294.42 180.49,-282.63"/>
<polygon fill="blue" stroke="blue" points="175.42,-274.32 184.47,-280.51 177.39,-277.54 180.62,-282.85 180.62,-282.85 180.62,-282.85 177.39,-277.54 176.78,-285.2 175.42,-274.32"/>
<text xml:space="preserve" text-anchor="middle" x="229.5" y="-310.95" font-family="Arial" font-size="9.00" fill="blue">feign&#45;client</text>
</g>
<!-- email&#45;service -->
<g id="node9" class="node">
<title>email&#45;service</title>
<path fill="lightgray" stroke="black" d="M240.88,-36C240.88,-36 191.12,-36 191.12,-36 185.12,-36 179.12,-30 179.12,-24 179.12,-24 179.12,-12 179.12,-12 179.12,-6 185.12,0 191.12,0 191.12,0 240.88,0 240.88,0 246.88,0 252.88,-6 252.88,-12 252.88,-12 252.88,-24 252.88,-24 252.88,-30 246.88,-36 240.88,-36"/>
<text xml:space="preserve" text-anchor="middle" x="216" y="-20.5" font-family="Arial" font-size="10.00">email&#45;service</text>
<text xml:space="preserve" text-anchor="middle" x="216" y="-8.5" font-family="Arial" font-size="10.00">Port: 8087</text>
</g>
<!-- payment&#45;service&#45;&gt;email&#45;service -->
<g id="edge2" class="edge">
<title>payment&#45;service&#45;&gt;email&#45;service</title>
<path fill="none" stroke="blue" d="M266.63,-355.04C267.77,-313.55 268.61,-205.98 251,-118.5 245.96,-93.47 236.03,-66.2 228.03,-46.54"/>
<polygon fill="blue" stroke="blue" points="224.18,-37.32 232.19,-44.82 225.64,-40.81 228.03,-46.55 228.03,-46.55 228.03,-46.55 225.64,-40.81 223.88,-48.28 224.18,-37.32"/>
<text xml:space="preserve" text-anchor="middle" x="289.03" y="-192.45" font-family="Arial" font-size="9.00" fill="blue">rest&#45;template</text>
</g>
<!-- order&#45;service&#45;&gt;product&#45;service -->
<g id="edge3" class="edge">
<title>order&#45;service&#45;&gt;product&#45;service</title>
<path fill="none" stroke="blue" d="M141.31,-236.53C129.58,-227 115.86,-214.43 106,-201 98.03,-190.16 91.52,-176.78 86.7,-165.1"/>
<polygon fill="blue" stroke="blue" points="83.2,-156.11 91.02,-163.79 84.57,-159.63 86.83,-165.43 86.83,-165.43 86.83,-165.43 84.57,-159.63 82.64,-167.06 83.2,-156.11"/>
<text xml:space="preserve" text-anchor="middle" x="128.5" y="-192.45" font-family="Arial" font-size="9.00" fill="blue">feign&#45;client</text>
</g>
<!-- user&#45;service -->
<g id="node7" class="node">
<title>user&#45;service</title>
<path fill="lightblue" stroke="black" d="M449.62,-154.5C449.62,-154.5 404.38,-154.5 404.38,-154.5 398.38,-154.5 392.38,-148.5 392.38,-142.5 392.38,-142.5 392.38,-130.5 392.38,-130.5 392.38,-124.5 398.38,-118.5 404.38,-118.5 404.38,-118.5 449.62,-118.5 449.62,-118.5 455.62,-118.5 461.62,-124.5 461.62,-130.5 461.62,-130.5 461.62,-142.5 461.62,-142.5 461.62,-148.5 455.62,-154.5 449.62,-154.5"/>
<text xml:space="preserve" text-anchor="middle" x="427" y="-139" font-family="Arial" font-size="10.00">user&#45;service</text>
<text xml:space="preserve" text-anchor="middle" x="427" y="-127" font-family="Arial" font-size="10.00">Port: 8081</text>
</g>
<!-- order&#45;service&#45;&gt;user&#45;service -->
<g id="edge4" class="edge">
<title>order&#45;service&#45;&gt;user&#45;service</title>
<path fill="none" stroke="blue" d="M169.9,-236.51C174.88,-222.01 184.01,-201.98 199,-190.5 252.12,-149.8 331.24,-139.53 380.93,-137.38"/>
<polygon fill="blue" stroke="blue" points="390.77,-137.06 380.92,-141.89 386.99,-137.18 380.77,-137.39 380.77,-137.39 380.77,-137.39 386.99,-137.18 380.62,-132.89 390.77,-137.06"/>
<text xml:space="preserve" text-anchor="middle" x="221.5" y="-192.45" font-family="Arial" font-size="9.00" fill="blue">feign&#45;client</text>
</g>
<!-- order&#45;service&#45;&gt;email&#45;service -->
<g id="edge5" class="edge">
<title>order&#45;service&#45;&gt;email&#45;service</title>
<path fill="none" stroke="blue" d="M168.75,-236.72C177.48,-196.49 199.24,-96.25 209.9,-47.09"/>
<polygon fill="blue" stroke="blue" points="211.99,-37.5 214.26,-48.22 211.18,-41.19 209.87,-47.27 209.87,-47.27 209.87,-47.27 211.18,-41.19 205.47,-46.31 211.99,-37.5"/>
<text xml:space="preserve" text-anchor="middle" x="220.52" y="-133.2" font-family="Arial" font-size="9.00" fill="blue">rest&#45;template</text>
</g>
<!-- logging&#45;service -->
<g id="node8" class="node">
<title>logging&#45;service</title>
<path fill="lightgray" stroke="black" d="M693.62,-36C693.62,-36 636.38,-36 636.38,-36 630.38,-36 624.38,-30 624.38,-24 624.38,-24 624.38,-12 624.38,-12 624.38,-6 630.38,0 636.38,0 636.38,0 693.62,0 693.62,0 699.62,0 705.62,-6 705.62,-12 705.62,-12 705.62,-24 705.62,-24 705.62,-30 699.62,-36 693.62,-36"/>
<text xml:space="preserve" text-anchor="middle" x="665" y="-20.5" font-family="Arial" font-size="10.00">logging&#45;service</text>
<text xml:space="preserve" text-anchor="middle" x="665" y="-8.5" font-family="Arial" font-size="10.00">Port: 8088</text>
</g>
<!-- user&#45;service&#45;&gt;logging&#45;service -->
<g id="edge6" class="edge">
<title>user&#45;service&#45;&gt;logging&#45;service</title>
<path fill="none" stroke="blue" d="M462.12,-118.31C503.83,-97.89 573.52,-63.78 619.38,-41.33"/>
<polygon fill="blue" stroke="blue" points="628.25,-36.99 621.25,-45.43 624.86,-38.65 619.27,-41.38 619.27,-41.38 619.27,-41.38 624.86,-38.65 617.29,-37.34 628.25,-36.99"/>
<text xml:space="preserve" text-anchor="middle" x="579.76" y="-73.95" font-family="Arial" font-size="9.00" fill="blue">rest&#45;template</text>
</g>
<!-- user&#45;service&#45;&gt;email&#45;service -->
<g id="edge7" class="edge">
<title>user&#45;service&#45;&gt;email&#45;service</title>
<path fill="none" stroke="blue" d="M395.41,-118.06C358.56,-97.71 297.52,-64.01 257.03,-41.65"/>
<polygon fill="blue" stroke="blue" points="248.53,-36.96 259.46,-37.85 251.84,-38.79 257.28,-41.79 257.28,-41.79 257.28,-41.79 251.84,-38.79 255.11,-45.73 248.53,-36.96"/>
<text xml:space="preserve" text-anchor="middle" x="354.45" y="-73.95" font-family="Arial" font-size="9.00" fill="blue">rest&#45;template</text>
</g>
<!-- gateway&#45;service -->
<g id="node10" class="node">
<title>gateway&#45;service</title>
<path fill="lightgreen" stroke="black" d="M389.62,-628.5C389.62,-628.5 326.38,-628.5 326.38,-628.5 320.38,-628.5 314.38,-622.5 314.38,-616.5 314.38,-616.5 314.38,-604.5 314.38,-604.5 314.38,-598.5 320.38,-592.5 326.38,-592.5 326.38,-592.5 389.62,-592.5 389.62,-592.5 395.62,-592.5 401.62,-598.5 401.62,-604.5 401.62,-604.5 401.62,-616.5 401.62,-616.5 401.62,-622.5 395.62,-628.5 389.62,-628.5"/>
<text xml:space="preserve" text-anchor="middle" x="358" y="-613" font-family="Arial" font-size="10.00">gateway&#45;service</text>
<text xml:space="preserve" text-anchor="middle" x="358" y="-601" font-family="Arial" font-size="10.00">Port: 8080</text>
</g>
<!-- gateway&#45;service&#45;&gt;product&#45;service -->
<g id="edge8" class="edge">
<title>gateway&#45;service&#45;&gt;product&#45;service</title>
<path fill="none" stroke="darkgreen" d="M314.2,-602.36C229.16,-587.26 50,-548.81 50,-493 50,-493 50,-493 50,-254 50,-223.13 59.11,-188.83 66.74,-165.49"/>
<polygon fill="darkgreen" stroke="darkgreen" points="69.93,-156.12 70.97,-167.04 68.71,-159.7 66.71,-165.59 66.71,-165.59 66.71,-165.59 68.71,-159.7 62.45,-164.14 69.93,-156.12"/>
<text xml:space="preserve" text-anchor="middle" x="67.25" y="-370.2" font-family="Arial" font-size="9.00" fill="darkgreen">gateway</text>
</g>
<!-- gateway&#45;service&#45;&gt;notification&#45;service -->
<g id="edge9" class="edge">
<title>gateway&#45;service&#45;&gt;notification&#45;service</title>
<path fill="none" stroke="darkgreen" d="M391.55,-592.07C410.01,-582.17 433.12,-569.23 453,-556.5 472.13,-544.25 492.7,-529.32 509.03,-517.02"/>
<polygon fill="darkgreen" stroke="darkgreen" points="516.66,-511.22 511.42,-520.86 513.65,-513.51 508.7,-517.27 508.7,-517.27 508.7,-517.27 513.65,-513.51 505.98,-513.69 516.66,-511.22"/>
<text xml:space="preserve" text-anchor="middle" x="484.95" y="-547.95" font-family="Arial" font-size="9.00" fill="darkgreen">gateway</text>
</g>
<!-- gateway&#45;service&#45;&gt;dependency&#45;analyzer&#45;enhanced -->
<g id="edge10" class="edge">
<title>gateway&#45;service&#45;&gt;dependency&#45;analyzer&#45;enhanced</title>
<path fill="none" stroke="darkgreen" d="M401.97,-593.79C459.5,-573.23 560.56,-537.11 624.79,-514.16"/>
<polygon fill="darkgreen" stroke="darkgreen" points="634.01,-510.86 626.11,-518.47 630.45,-512.14 624.6,-514.23 624.6,-514.23 624.6,-514.23 630.45,-512.14 623.08,-509.99 634.01,-510.86"/>
<text xml:space="preserve" text-anchor="middle" x="548.02" y="-547.95" font-family="Arial" font-size="9.00" fill="darkgreen">gateway</text>
</g>
<!-- gateway&#45;service&#45;&gt;payment&#45;service -->
<g id="edge11" class="edge">
<title>gateway&#45;service&#45;&gt;payment&#45;service</title>
<path fill="none" stroke="darkgreen" d="M335.33,-592.19C313.88,-574.29 283.01,-544.19 269.5,-510 255.73,-475.15 257.73,-431.22 261.22,-403"/>
<polygon fill="darkgreen" stroke="darkgreen" points="262.59,-393.14 265.67,-403.67 262.07,-396.89 261.21,-403.05 261.21,-403.05 261.21,-403.05 262.07,-396.89 256.76,-402.43 262.59,-393.14"/>
<text xml:space="preserve" text-anchor="middle" x="286.75" y="-488.7" font-family="Arial" font-size="9.00" fill="darkgreen">gateway</text>
</g>
<!-- gateway&#45;service&#45;&gt;order&#45;service -->
<g id="edge13" class="edge">
<title>gateway&#45;service&#45;&gt;order&#45;service</title>
<path fill="none" stroke="darkgreen" d="M313.95,-605.94C257.98,-598.68 164.31,-576.67 128,-510 87.49,-435.62 127.52,-331.69 150.84,-283.07"/>
<polygon fill="darkgreen" stroke="darkgreen" points="155.12,-274.39 154.73,-285.35 153.45,-277.78 150.69,-283.36 150.69,-283.36 150.69,-283.36 153.45,-277.78 146.66,-281.37 155.12,-274.39"/>
<text xml:space="preserve" text-anchor="middle" x="127.98" y="-429.45" font-family="Arial" font-size="9.00" fill="darkgreen">gateway</text>
</g>
<!-- gateway&#45;service&#45;&gt;user&#45;service -->
<g id="edge17" class="edge">
<title>gateway&#45;service&#45;&gt;user&#45;service</title>
<path fill="none" stroke="darkgreen" d="M401.87,-595.11C404.95,-594.19 408.02,-593.32 411,-592.5 578.56,-546.63 789,-666.72 789,-493 789,-493 789,-493 789,-254 789,-188.35 570.53,-154.39 473.03,-142.51"/>
<polygon fill="darkgreen" stroke="darkgreen" points="463.25,-141.34 473.71,-138.06 467,-141.79 473.18,-142.52 473.18,-142.52 473.18,-142.52 467,-141.79 472.65,-146.99 463.25,-141.34"/>
<text xml:space="preserve" text-anchor="middle" x="806.25" y="-370.2" font-family="Arial" font-size="9.00" fill="darkgreen">gateway</text>
</g>
<!-- gateway&#45;service&#45;&gt;logging&#45;service -->
<g id="edge12" class="edge">
<title>gateway&#45;service&#45;&gt;logging&#45;service</title>
<path fill="none" stroke="darkgreen" d="M402.06,-594.58C405.06,-593.81 408.07,-593.1 411,-592.5 576.74,-558.46 637.35,-629.49 790,-556.5 825.58,-539.48 852,-532.44 852,-493 852,-493 852,-493 852,-135.5 852,-71.49 772.09,-41.38 716.75,-28.21"/>
<polygon fill="darkgreen" stroke="darkgreen" points="707.23,-26.06 717.97,-23.87 710.92,-26.89 716.98,-28.26 716.98,-28.26 716.98,-28.26 710.92,-26.89 715.99,-32.65 707.23,-26.06"/>
<text xml:space="preserve" text-anchor="middle" x="869.25" y="-310.95" font-family="Arial" font-size="9.00" fill="darkgreen">gateway</text>
</g>
<!-- gateway&#45;service&#45;&gt;email&#45;service -->
<g id="edge15" class="edge">
<title>gateway&#45;service&#45;&gt;email&#45;service</title>
<path fill="none" stroke="darkgreen" d="M314.1,-604.6C218.51,-592.7 0,-558.36 0,-493 0,-493 0,-493 0,-135.5 0,-59.74 104.22,-33.02 167.87,-23.76"/>
<polygon fill="darkgreen" stroke="darkgreen" points="177.66,-22.44 168.35,-28.24 173.91,-22.95 167.75,-23.78 167.75,-23.78 167.75,-23.78 173.91,-22.95 167.15,-19.32 177.66,-22.44"/>
<text xml:space="preserve" text-anchor="middle" x="17.25" y="-310.95" font-family="Arial" font-size="9.00" fill="darkgreen">gateway</text>
</g>
<!-- analytics&#45;service -->
<g id="node11" class="node">
<title>analytics&#45;service</title>
<path fill="lightgray" stroke="black" d="M390.75,-510C390.75,-510 325.25,-510 325.25,-510 319.25,-510 313.25,-504 313.25,-498 313.25,-498 313.25,-486 313.25,-486 313.25,-480 319.25,-474 325.25,-474 325.25,-474 390.75,-474 390.75,-474 396.75,-474 402.75,-480 402.75,-486 402.75,-486 402.75,-498 402.75,-498 402.75,-504 396.75,-510 390.75,-510"/>
<text xml:space="preserve" text-anchor="middle" x="358" y="-494.5" font-family="Arial" font-size="10.00">analytics&#45;service</text>
<text xml:space="preserve" text-anchor="middle" x="358" y="-482.5" font-family="Arial" font-size="10.00">Port: 8090</text>
</g>
<!-- gateway&#45;service&#45;&gt;analytics&#45;service -->
<g id="edge14" class="edge">
<title>gateway&#45;service&#45;&gt;analytics&#45;service</title>
<path fill="none" stroke="darkgreen" d="M358,-592.06C358,-573.33 358,-543.3 358,-521.21"/>
<polygon fill="darkgreen" stroke="darkgreen" points="358,-511.4 362.5,-521.4 358,-515.18 358,-521.4 358,-521.4 358,-521.4 358,-515.18 353.5,-521.4 358,-511.4"/>
<text xml:space="preserve" text-anchor="middle" x="375.25" y="-547.95" font-family="Arial" font-size="9.00" fill="darkgreen">gateway</text>
</g>
<!-- inventory&#45;service -->
<g id="node12" class="node">
<title>inventory&#45;service</title>
<path fill="lightcyan" stroke="black" d="M533.12,-391.5C533.12,-391.5 466.88,-391.5 466.88,-391.5 460.88,-391.5 454.88,-385.5 454.88,-379.5 454.88,-379.5 454.88,-367.5 454.88,-367.5 454.88,-361.5 460.88,-355.5 466.88,-355.5 466.88,-355.5 533.12,-355.5 533.12,-355.5 539.12,-355.5 545.12,-361.5 545.12,-367.5 545.12,-367.5 545.12,-379.5 545.12,-379.5 545.12,-385.5 539.12,-391.5 533.12,-391.5"/>
<text xml:space="preserve" text-anchor="middle" x="500" y="-376" font-family="Arial" font-size="10.00">inventory&#45;service</text>
<text xml:space="preserve" text-anchor="middle" x="500" y="-364" font-family="Arial" font-size="10.00">Port: 8085</text>
</g>
<!-- gateway&#45;service&#45;&gt;inventory&#45;service -->
<g id="edge18" class="edge">
<title>gateway&#45;service&#45;&gt;inventory&#45;service</title>
<path fill="none" stroke="darkgreen" d="M371.38,-592.1C379.09,-581.89 388.84,-568.64 397,-556.5 420.98,-520.82 422.31,-508.84 447.5,-474 459.79,-457.01 467.61,-456.22 478,-438 484.24,-427.05 489.13,-414.04 492.7,-402.66"/>
<polygon fill="darkgreen" stroke="darkgreen" points="495.49,-393.12 497,-403.98 494.43,-396.75 492.68,-402.72 492.68,-402.72 492.68,-402.72 494.43,-396.75 488.36,-401.45 495.49,-393.12"/>
<text xml:space="preserve" text-anchor="middle" x="464.75" y="-488.7" font-family="Arial" font-size="9.00" fill="darkgreen">gateway</text>
</g>
<!-- reporting&#45;service -->
<g id="node13" class="node">
<title>reporting&#45;service</title>
<path fill="lightgray" stroke="black" d="M213,-510C213,-510 149,-510 149,-510 143,-510 137,-504 137,-498 137,-498 137,-486 137,-486 137,-480 143,-474 149,-474 149,-474 213,-474 213,-474 219,-474 225,-480 225,-486 225,-486 225,-498 225,-498 225,-504 219,-510 213,-510"/>
<text xml:space="preserve" text-anchor="middle" x="181" y="-494.5" font-family="Arial" font-size="10.00">reporting&#45;service</text>
<text xml:space="preserve" text-anchor="middle" x="181" y="-482.5" font-family="Arial" font-size="10.00">Port: 8089</text>
</g>
<!-- gateway&#45;service&#45;&gt;reporting&#45;service -->
<g id="edge16" class="edge">
<title>gateway&#45;service&#45;&gt;reporting&#45;service</title>
<path fill="none" stroke="darkgreen" d="M314.06,-602.47C282.61,-595.48 240.95,-581.95 212.5,-556.5 201.86,-546.98 194.39,-533.05 189.41,-520.66"/>
<polygon fill="darkgreen" stroke="darkgreen" points="186.07,-511.46 193.71,-519.32 187.36,-515.01 189.48,-520.86 189.48,-520.86 189.48,-520.86 187.36,-515.01 185.25,-522.4 186.07,-511.46"/>
<text xml:space="preserve" text-anchor="middle" x="229.75" y="-547.95" font-family="Arial" font-size="9.00" fill="darkgreen">gateway</text>
</g>
<!-- analytics&#45;service&#45;&gt;payment&#45;service -->
<g id="edge21" class="edge">
<title>analytics&#45;service&#45;&gt;payment&#45;service</title>
<path fill="none" stroke="blue" d="M330.89,-473.65C318,-464.32 303.17,-451.89 292.75,-438 284.81,-427.41 278.73,-414.12 274.4,-402.43"/>
<polygon fill="blue" stroke="blue" points="271.16,-393.01 278.67,-401.01 272.39,-396.59 274.41,-402.47 274.41,-402.47 274.41,-402.47 272.39,-396.59 270.15,-403.93 271.16,-393.01"/>
<text xml:space="preserve" text-anchor="middle" x="319.38" y="-429.45" font-family="Arial" font-size="9.00" fill="blue">rest&#45;template</text>
</g>
<!-- analytics&#45;service&#45;&gt;order&#45;service -->
<g id="edge20" class="edge">
<title>analytics&#45;service&#45;&gt;order&#45;service</title>
<path fill="none" stroke="blue" d="M356.96,-473.85C354.51,-446.31 346.29,-391.64 319,-355.5 291.24,-318.74 245.65,-291.75 211.26,-275.22"/>
<polygon fill="blue" stroke="blue" points="202.54,-271.15 213.51,-271.3 205.97,-272.75 211.6,-275.38 211.6,-275.38 211.6,-275.38 205.97,-272.75 209.7,-279.46 202.54,-271.15"/>
<text xml:space="preserve" text-anchor="middle" x="364.99" y="-370.2" font-family="Arial" font-size="9.00" fill="blue">rest&#45;template</text>
</g>
<!-- analytics&#45;service&#45;&gt;user&#45;service -->
<g id="edge19" class="edge">
<title>analytics&#45;service&#45;&gt;user&#45;service</title>
<path fill="none" stroke="blue" d="M366.05,-473.8C374.83,-454.28 388.61,-421.29 396,-391.5 415.92,-311.18 423.27,-213.26 425.79,-165.88"/>
<polygon fill="blue" stroke="blue" points="426.28,-155.92 430.28,-166.13 426.09,-159.7 425.79,-165.91 425.79,-165.91 425.79,-165.91 426.09,-159.7 421.29,-165.68 426.28,-155.92"/>
<text xml:space="preserve" text-anchor="middle" x="438.43" y="-310.95" font-family="Arial" font-size="9.00" fill="blue">rest&#45;template</text>
</g>
<!-- analytics&#45;service&#45;&gt;inventory&#45;service -->
<g id="edge22" class="edge">
<title>analytics&#45;service&#45;&gt;inventory&#45;service</title>
<path fill="none" stroke="blue" d="M374.92,-473.56C388.05,-460.37 406.94,-442.11 424.75,-427.5 437.18,-417.31 451.46,-406.94 464.21,-398.11"/>
<polygon fill="blue" stroke="blue" points="472.18,-392.67 466.46,-402.03 469.06,-394.8 463.92,-398.31 463.92,-398.31 463.92,-398.31 469.06,-394.8 461.38,-394.59 472.18,-392.67"/>
<text xml:space="preserve" text-anchor="middle" x="451.38" y="-429.45" font-family="Arial" font-size="9.00" fill="blue">rest&#45;template</text>
</g>
<!-- reporting&#45;service&#45;&gt;payment&#45;service -->
<g id="edge23" class="edge">
<title>reporting&#45;service&#45;&gt;payment&#45;service</title>
<path fill="none" stroke="blue" d="M183.31,-473.62C185.76,-460.13 190.62,-441.44 200,-427.5 207.5,-416.36 218.06,-406.41 228.54,-398.24"/>
<polygon fill="blue" stroke="blue" points="236.27,-392.52 230.9,-402.08 233.23,-394.77 228.23,-398.46 228.23,-398.46 228.23,-398.46 233.23,-394.77 225.55,-394.84 236.27,-392.52"/>
<text xml:space="preserve" text-anchor="middle" x="222.5" y="-429.45" font-family="Arial" font-size="9.00" fill="blue">feign&#45;client</text>
</g>
<!-- reporting&#45;service&#45;&gt;order&#45;service -->
<g id="edge24" class="edge">
<title>reporting&#45;service&#45;&gt;order&#45;service</title>
<path fill="none" stroke="blue" d="M178.18,-473.8C175.07,-454.01 170.21,-420.51 168,-391.5 165.18,-354.51 164.7,-311.68 164.74,-284.24"/>
<polygon fill="blue" stroke="blue" points="164.78,-274.36 169.24,-284.38 164.77,-278.14 164.74,-284.36 164.74,-284.36 164.74,-284.36 164.77,-278.14 160.24,-284.34 164.78,-274.36"/>
<text xml:space="preserve" text-anchor="middle" x="190.5" y="-370.2" font-family="Arial" font-size="9.00" fill="blue">feign&#45;client</text>
</g>
<!-- legend_info -->
<g id="node14" class="node">
<title>legend_info</title>
<path fill="lightgrey" stroke="none" d="M933.38,-628.5C933.38,-628.5 526.62,-628.5 526.62,-628.5 520.62,-628.5 514.62,-622.5 514.62,-616.5 514.62,-616.5 514.62,-604.5 514.62,-604.5 514.62,-598.5 520.62,-592.5 526.62,-592.5 526.62,-592.5 933.38,-592.5 933.38,-592.5 939.38,-592.5 945.38,-598.5 945.38,-604.5 945.38,-604.5 945.38,-616.5 945.38,-616.5 945.38,-622.5 939.38,-628.5 933.38,-628.5"/>
<text xml:space="preserve" text-anchor="middle" x="730" y="-613" font-family="Arial" font-size="10.00">Service Types: Gateway=Green | Config=Yellow | Business=Blue | Support=Cyan | Other=Gray</text>
<text xml:space="preserve" text-anchor="middle" x="730" y="-601" font-family="Arial" font-size="10.00">Connections: →Gateway(Green) →REST/Feign(Blue) →Messaging(Purple)</text>
</g>
</g>
</svg>
