<svg width="1200px" height="800px"
 viewBox="0.00 0.00 1006.00 673.00" xmlns="http://www.w3.org/2000/svg" xmlns:xlink="http://www.w3.org/1999/xlink">
<g id="graph0" class="graph" transform="scale(1.0 1.0) rotate(0.0) translate(4.0 669.0)">
<title>microservices</title>
<polygon fill="white" stroke="none" points="-4,4 -4,-669 1001.79,-669 1001.79,4 -4,4"/>
<text xml:space="preserve" text-anchor="middle" x="498.9" y="-649.6" font-family="Arial" font-size="12.00">Microservices Dependency Graph</text>
<text xml:space="preserve" text-anchor="middle" x="498.9" y="-635.35" font-family="Arial" font-size="12.00">(Generated with GraphViz Java &#45; Pure Maven)</text>
<!-- product&#45;service -->
<g id="node1" class="node">
<title>product&#45;service</title>
<path fill="lightblue" stroke="black" d="M150.79,-154.5C150.79,-154.5 92.04,-154.5 92.04,-154.5 86.04,-154.5 80.04,-148.5 80.04,-142.5 80.04,-142.5 80.04,-130.5 80.04,-130.5 80.04,-124.5 86.04,-118.5 92.04,-118.5 92.04,-118.5 150.79,-118.5 150.79,-118.5 156.79,-118.5 162.79,-124.5 162.79,-130.5 162.79,-130.5 162.79,-142.5 162.79,-142.5 162.79,-148.5 156.79,-154.5 150.79,-154.5"/>
<text xml:space="preserve" text-anchor="middle" x="121.42" y="-139" font-family="Arial" font-size="10.00">product&#45;service</text>
<text xml:space="preserve" text-anchor="middle" x="121.42" y="-127" font-family="Arial" font-size="10.00">Port: 8082</text>
</g>
<!-- config&#45;service -->
<g id="node2" class="node">
<title>config&#45;service</title>
<path fill="lightyellow" stroke="black" d="M536.79,-628.5C536.79,-628.5 484.04,-628.5 484.04,-628.5 478.04,-628.5 472.04,-622.5 472.04,-616.5 472.04,-616.5 472.04,-604.5 472.04,-604.5 472.04,-598.5 478.04,-592.5 484.04,-592.5 484.04,-592.5 536.79,-592.5 536.79,-592.5 542.79,-592.5 548.79,-598.5 548.79,-604.5 548.79,-604.5 548.79,-616.5 548.79,-616.5 548.79,-622.5 542.79,-628.5 536.79,-628.5"/>
<text xml:space="preserve" text-anchor="middle" x="510.42" y="-613" font-family="Arial" font-size="10.00">config&#45;service</text>
<text xml:space="preserve" text-anchor="middle" x="510.42" y="-601" font-family="Arial" font-size="10.00">Port: 8761</text>
</g>
<!-- notification&#45;service -->
<g id="node3" class="node">
<title>notification&#45;service</title>
<path fill="lightcyan" stroke="black" d="M524.29,-510C524.29,-510 450.54,-510 450.54,-510 444.54,-510 438.54,-504 438.54,-498 438.54,-498 438.54,-486 438.54,-486 438.54,-480 444.54,-474 450.54,-474 450.54,-474 524.29,-474 524.29,-474 530.29,-474 536.29,-480 536.29,-486 536.29,-486 536.29,-498 536.29,-498 536.29,-504 530.29,-510 524.29,-510"/>
<text xml:space="preserve" text-anchor="middle" x="487.42" y="-494.5" font-family="Arial" font-size="10.00">notification&#45;service</text>
<text xml:space="preserve" text-anchor="middle" x="487.42" y="-482.5" font-family="Arial" font-size="10.00">Port: 8086</text>
</g>
<!-- dependency&#45;analyzer&#45;enhanced -->
<g id="node4" class="node">
<title>dependency&#45;analyzer&#45;enhanced</title>
<path fill="lightgray" stroke="black" d="M696.04,-510C696.04,-510 566.79,-510 566.79,-510 560.79,-510 554.79,-504 554.79,-498 554.79,-498 554.79,-486 554.79,-486 554.79,-480 560.79,-474 566.79,-474 566.79,-474 696.04,-474 696.04,-474 702.04,-474 708.04,-480 708.04,-486 708.04,-486 708.04,-498 708.04,-498 708.04,-504 702.04,-510 696.04,-510"/>
<text xml:space="preserve" text-anchor="middle" x="631.42" y="-494.5" font-family="Arial" font-size="10.00">dependency&#45;analyzer&#45;enhanced</text>
<text xml:space="preserve" text-anchor="middle" x="631.42" y="-482.5" font-family="Arial" font-size="10.00">Port: null</text>
</g>
<!-- payment&#45;service -->
<g id="node5" class="node">
<title>payment&#45;service</title>
<path fill="lightcyan" stroke="black" d="M201.42,-391.5C201.42,-391.5 137.42,-391.5 137.42,-391.5 131.42,-391.5 125.42,-385.5 125.42,-379.5 125.42,-379.5 125.42,-367.5 125.42,-367.5 125.42,-361.5 131.42,-355.5 137.42,-355.5 137.42,-355.5 201.42,-355.5 201.42,-355.5 207.42,-355.5 213.42,-361.5 213.42,-367.5 213.42,-367.5 213.42,-379.5 213.42,-379.5 213.42,-385.5 207.42,-391.5 201.42,-391.5"/>
<text xml:space="preserve" text-anchor="middle" x="169.42" y="-376" font-family="Arial" font-size="10.00">payment&#45;service</text>
<text xml:space="preserve" text-anchor="middle" x="169.42" y="-364" font-family="Arial" font-size="10.00">Port: 8084</text>
</g>
<!-- order&#45;service -->
<g id="node6" class="node">
<title>order&#45;service</title>
<path fill="lightblue" stroke="black" d="M267.54,-273C267.54,-273 219.29,-273 219.29,-273 213.29,-273 207.29,-267 207.29,-261 207.29,-261 207.29,-249 207.29,-249 207.29,-243 213.29,-237 219.29,-237 219.29,-237 267.54,-237 267.54,-237 273.54,-237 279.54,-243 279.54,-249 279.54,-249 279.54,-261 279.54,-261 279.54,-267 273.54,-273 267.54,-273"/>
<text xml:space="preserve" text-anchor="middle" x="243.42" y="-257.5" font-family="Arial" font-size="10.00">order&#45;service</text>
<text xml:space="preserve" text-anchor="middle" x="243.42" y="-245.5" font-family="Arial" font-size="10.00">Port: 8083</text>
</g>
<!-- payment&#45;service&#45;&gt;order&#45;service -->
<g id="edge1" class="edge">
<title>payment&#45;service&#45;&gt;order&#45;service</title>
<path fill="none" stroke="blue" d="M172.85,-355.12C176.02,-341.8 181.58,-323.33 190.42,-309 196.68,-298.84 205.25,-289.16 213.68,-280.92"/>
<polygon fill="blue" stroke="blue" points="220.75,-274.32 216.51,-284.44 217.98,-276.9 213.44,-281.15 213.44,-281.15 213.44,-281.15 217.98,-276.9 210.37,-277.86 220.75,-274.32"/>
<text xml:space="preserve" text-anchor="middle" x="212.92" y="-310.95" font-family="Arial" font-size="9.00" fill="blue">feign&#45;client</text>
</g>
<!-- email&#45;service -->
<g id="node9" class="node">
<title>email&#45;service</title>
<path fill="lightgray" stroke="black" d="M308.29,-36C308.29,-36 258.54,-36 258.54,-36 252.54,-36 246.54,-30 246.54,-24 246.54,-24 246.54,-12 246.54,-12 246.54,-6 252.54,0 258.54,0 258.54,0 308.29,0 308.29,0 314.29,0 320.29,-6 320.29,-12 320.29,-12 320.29,-24 320.29,-24 320.29,-30 314.29,-36 308.29,-36"/>
<text xml:space="preserve" text-anchor="middle" x="283.42" y="-20.5" font-family="Arial" font-size="10.00">email&#45;service</text>
<text xml:space="preserve" text-anchor="middle" x="283.42" y="-8.5" font-family="Arial" font-size="10.00">Port: 8087</text>
</g>
<!-- payment&#45;service&#45;&gt;email&#45;service -->
<g id="edge2" class="edge">
<title>payment&#45;service&#45;&gt;email&#45;service</title>
<path fill="none" stroke="blue" d="M131.92,-355.19C75.07,-326.24 -23.45,-263.86 5.17,-190.5 42.51,-94.78 166.22,-48.67 235.45,-29.88"/>
<polygon fill="blue" stroke="blue" points="244.89,-27.4 236.36,-34.29 241.23,-28.36 235.22,-29.94 235.22,-29.94 235.22,-29.94 241.23,-28.36 234.08,-25.58 244.89,-27.4"/>
<text xml:space="preserve" text-anchor="middle" x="31.79" y="-192.45" font-family="Arial" font-size="9.00" fill="blue">rest&#45;template</text>
</g>
<!-- order&#45;service&#45;&gt;product&#45;service -->
<g id="edge3" class="edge">
<title>order&#45;service&#45;&gt;product&#45;service</title>
<path fill="none" stroke="blue" d="M223.08,-236.7C211.31,-226.51 196.31,-213.26 183.42,-201 170.45,-188.66 156.48,-174.44 145.09,-162.59"/>
<polygon fill="blue" stroke="blue" points="138.5,-155.7 148.67,-159.82 141.12,-158.43 145.41,-162.93 145.41,-162.93 145.41,-162.93 141.12,-158.43 142.16,-166.04 138.5,-155.7"/>
<text xml:space="preserve" text-anchor="middle" x="205.92" y="-192.45" font-family="Arial" font-size="9.00" fill="blue">feign&#45;client</text>
</g>
<!-- user&#45;service -->
<g id="node7" class="node">
<title>user&#45;service</title>
<path fill="lightblue" stroke="black" d="M424.04,-154.5C424.04,-154.5 378.79,-154.5 378.79,-154.5 372.79,-154.5 366.79,-148.5 366.79,-142.5 366.79,-142.5 366.79,-130.5 366.79,-130.5 366.79,-124.5 372.79,-118.5 378.79,-118.5 378.79,-118.5 424.04,-118.5 424.04,-118.5 430.04,-118.5 436.04,-124.5 436.04,-130.5 436.04,-130.5 436.04,-142.5 436.04,-142.5 436.04,-148.5 430.04,-154.5 424.04,-154.5"/>
<text xml:space="preserve" text-anchor="middle" x="401.42" y="-139" font-family="Arial" font-size="10.00">user&#45;service</text>
<text xml:space="preserve" text-anchor="middle" x="401.42" y="-127" font-family="Arial" font-size="10.00">Port: 8081</text>
</g>
<!-- order&#45;service&#45;&gt;user&#45;service -->
<g id="edge4" class="edge">
<title>order&#45;service&#45;&gt;user&#45;service</title>
<path fill="none" stroke="blue" d="M267.07,-236.56C294.14,-216.6 338.64,-183.79 368.95,-161.44"/>
<polygon fill="blue" stroke="blue" points="376.88,-155.59 371.5,-165.15 373.84,-157.84 368.83,-161.53 368.83,-161.53 368.83,-161.53 373.84,-157.84 366.16,-157.91 376.88,-155.59"/>
<text xml:space="preserve" text-anchor="middle" x="349.65" y="-192.45" font-family="Arial" font-size="9.00" fill="blue">feign&#45;client</text>
</g>
<!-- order&#45;service&#45;&gt;email&#45;service -->
<g id="edge5" class="edge">
<title>order&#45;service&#45;&gt;email&#45;service</title>
<path fill="none" stroke="blue" d="M244.08,-236.76C245.29,-210.89 248.49,-160.57 256.17,-118.5 260.63,-94.05 268.26,-66.87 274.32,-47.11"/>
<polygon fill="blue" stroke="blue" points="277.3,-37.56 278.61,-48.45 276.17,-41.17 274.31,-47.11 274.31,-47.11 274.31,-47.11 276.17,-41.17 270.02,-45.77 277.3,-37.56"/>
<text xml:space="preserve" text-anchor="middle" x="282.79" y="-133.2" font-family="Arial" font-size="9.00" fill="blue">rest&#45;template</text>
</g>
<!-- logging&#45;service -->
<g id="node8" class="node">
<title>logging&#45;service</title>
<path fill="lightgray" stroke="black" d="M680.04,-36C680.04,-36 622.79,-36 622.79,-36 616.79,-36 610.79,-30 610.79,-24 610.79,-24 610.79,-12 610.79,-12 610.79,-6 616.79,0 622.79,0 622.79,0 680.04,0 680.04,0 686.04,0 692.04,-6 692.04,-12 692.04,-12 692.04,-24 692.04,-24 692.04,-30 686.04,-36 680.04,-36"/>
<text xml:space="preserve" text-anchor="middle" x="651.42" y="-20.5" font-family="Arial" font-size="10.00">logging&#45;service</text>
<text xml:space="preserve" text-anchor="middle" x="651.42" y="-8.5" font-family="Arial" font-size="10.00">Port: 8088</text>
</g>
<!-- user&#45;service&#45;&gt;logging&#45;service -->
<g id="edge6" class="edge">
<title>user&#45;service&#45;&gt;logging&#45;service</title>
<path fill="none" stroke="blue" d="M436.44,-119.18C480.23,-98.77 555.34,-63.77 604.18,-41.01"/>
<polygon fill="blue" stroke="blue" points="613.08,-36.86 605.92,-45.17 609.65,-38.46 604.02,-41.09 604.02,-41.09 604.02,-41.09 609.65,-38.46 602.12,-37.01 613.08,-36.86"/>
<text xml:space="preserve" text-anchor="middle" x="560.54" y="-73.95" font-family="Arial" font-size="9.00" fill="blue">rest&#45;template</text>
</g>
<!-- user&#45;service&#45;&gt;email&#45;service -->
<g id="edge7" class="edge">
<title>user&#45;service&#45;&gt;email&#45;service</title>
<path fill="none" stroke="blue" d="M384.06,-118.23C371.2,-105.44 353.24,-87.61 337.42,-72 328.11,-62.82 317.88,-52.76 308.85,-43.9"/>
<polygon fill="blue" stroke="blue" points="301.82,-37.01 312.11,-40.8 304.52,-39.66 308.96,-44.02 308.96,-44.02 308.96,-44.02 304.52,-39.66 305.81,-47.23 301.82,-37.01"/>
<text xml:space="preserve" text-anchor="middle" x="374.54" y="-73.95" font-family="Arial" font-size="9.00" fill="blue">rest&#45;template</text>
</g>
<!-- gateway&#45;service -->
<g id="node10" class="node">
<title>gateway&#45;service</title>
<path fill="lightgreen" stroke="black" d="M442.04,-628.5C442.04,-628.5 378.79,-628.5 378.79,-628.5 372.79,-628.5 366.79,-622.5 366.79,-616.5 366.79,-616.5 366.79,-604.5 366.79,-604.5 366.79,-598.5 372.79,-592.5 378.79,-592.5 378.79,-592.5 442.04,-592.5 442.04,-592.5 448.04,-592.5 454.04,-598.5 454.04,-604.5 454.04,-604.5 454.04,-616.5 454.04,-616.5 454.04,-622.5 448.04,-628.5 442.04,-628.5"/>
<text xml:space="preserve" text-anchor="middle" x="410.42" y="-613" font-family="Arial" font-size="10.00">gateway&#45;service</text>
<text xml:space="preserve" text-anchor="middle" x="410.42" y="-601" font-family="Arial" font-size="10.00">Port: 8080</text>
</g>
<!-- gateway&#45;service&#45;&gt;product&#45;service -->
<g id="edge8" class="edge">
<title>gateway&#45;service&#45;&gt;product&#45;service</title>
<path fill="none" stroke="darkgreen" d="M366.58,-603.78C275.12,-590.63 72.42,-554.53 72.42,-493 72.42,-493 72.42,-493 72.42,-254 72.42,-221.12 89.2,-186.83 103.12,-164.03"/>
<polygon fill="darkgreen" stroke="darkgreen" points="108.4,-155.74 106.83,-166.59 106.37,-158.93 103.03,-164.17 103.03,-164.17 103.03,-164.17 106.37,-158.93 99.23,-161.76 108.4,-155.74"/>
<text xml:space="preserve" text-anchor="middle" x="89.67" y="-370.2" font-family="Arial" font-size="9.00" fill="darkgreen">gateway</text>
</g>
<!-- gateway&#45;service&#45;&gt;notification&#45;service -->
<g id="edge9" class="edge">
<title>gateway&#45;service&#45;&gt;notification&#45;service</title>
<path fill="none" stroke="darkgreen" d="M421.94,-592.06C434.66,-572.82 455.27,-541.64 469.97,-519.4"/>
<polygon fill="darkgreen" stroke="darkgreen" points="475.39,-511.2 473.63,-522.02 473.3,-514.35 469.88,-519.54 469.88,-519.54 469.88,-519.54 473.3,-514.35 466.12,-517.06 475.39,-511.2"/>
<text xml:space="preserve" text-anchor="middle" x="468.48" y="-547.95" font-family="Arial" font-size="9.00" fill="darkgreen">gateway</text>
</g>
<!-- gateway&#45;service&#45;&gt;dependency&#45;analyzer&#45;enhanced -->
<g id="edge10" class="edge">
<title>gateway&#45;service&#45;&gt;dependency&#45;analyzer&#45;enhanced</title>
<path fill="none" stroke="darkgreen" d="M443.5,-592.06C482.19,-571.67 546.3,-537.87 588.71,-515.51"/>
<polygon fill="darkgreen" stroke="darkgreen" points="597.39,-510.94 590.64,-519.58 594.04,-512.7 588.54,-515.6 588.54,-515.6 588.54,-515.6 594.04,-512.7 586.44,-511.62 597.39,-510.94"/>
<text xml:space="preserve" text-anchor="middle" x="544.79" y="-547.95" font-family="Arial" font-size="9.00" fill="darkgreen">gateway</text>
</g>
<!-- gateway&#45;service&#45;&gt;payment&#45;service -->
<g id="edge11" class="edge">
<title>gateway&#45;service&#45;&gt;payment&#45;service</title>
<path fill="none" stroke="darkgreen" d="M366.33,-606.62C307.82,-600.13 206.81,-578.96 162.92,-510 142.28,-477.58 150.59,-431.45 159.33,-402.25"/>
<polygon fill="darkgreen" stroke="darkgreen" points="162.27,-393.11 163.49,-404.01 161.11,-396.71 159.21,-402.63 159.21,-402.63 159.21,-402.63 161.11,-396.71 154.92,-401.25 162.27,-393.11"/>
<text xml:space="preserve" text-anchor="middle" x="180.17" y="-488.7" font-family="Arial" font-size="9.00" fill="darkgreen">gateway</text>
</g>
<!-- gateway&#45;service&#45;&gt;order&#45;service -->
<g id="edge13" class="edge">
<title>gateway&#45;service&#45;&gt;order&#45;service</title>
<path fill="none" stroke="darkgreen" d="M388.95,-592.01C378.46,-582.47 366.4,-569.9 358.42,-556.5 310.55,-476.2 332.33,-441.81 296.42,-355.5 285.85,-330.11 270.92,-302.62 259.59,-282.98"/>
<polygon fill="darkgreen" stroke="darkgreen" points="254.66,-274.53 263.59,-280.89 256.57,-277.79 259.7,-283.16 259.7,-283.16 259.7,-283.16 256.57,-277.79 255.82,-285.43 254.66,-274.53"/>
<text xml:space="preserve" text-anchor="middle" x="336.75" y="-429.45" font-family="Arial" font-size="9.00" fill="darkgreen">gateway</text>
</g>
<!-- gateway&#45;service&#45;&gt;user&#45;service -->
<g id="edge17" class="edge">
<title>gateway&#45;service&#45;&gt;user&#45;service</title>
<path fill="none" stroke="darkgreen" d="M410.09,-592.14C408.74,-521.3 403.63,-253.65 401.95,-165.7"/>
<polygon fill="darkgreen" stroke="darkgreen" points="401.76,-155.74 406.45,-165.65 401.84,-159.52 401.96,-165.73 401.96,-165.73 401.96,-165.73 401.84,-159.52 397.46,-165.82 401.76,-155.74"/>
<text xml:space="preserve" text-anchor="middle" x="423.48" y="-370.2" font-family="Arial" font-size="9.00" fill="darkgreen">gateway</text>
</g>
<!-- gateway&#45;service&#45;&gt;logging&#45;service -->
<g id="edge12" class="edge">
<title>gateway&#45;service&#45;&gt;logging&#45;service</title>
<path fill="none" stroke="darkgreen" d="M454.22,-595.43C538.33,-568.4 714.46,-511.7 717.42,-510 727.24,-504.35 736.42,-504.33 736.42,-493 736.42,-493 736.42,-493 736.42,-135.5 736.42,-98.1 707.47,-64.68 683.36,-43.33"/>
<polygon fill="darkgreen" stroke="darkgreen" points="676.02,-37.08 686.56,-40.13 678.9,-39.53 683.64,-43.56 683.64,-43.56 683.64,-43.56 678.9,-39.53 680.72,-46.99 676.02,-37.08"/>
<text xml:space="preserve" text-anchor="middle" x="753.67" y="-310.95" font-family="Arial" font-size="9.00" fill="darkgreen">gateway</text>
</g>
<!-- gateway&#45;service&#45;&gt;email&#45;service -->
<g id="edge15" class="edge">
<title>gateway&#45;service&#45;&gt;email&#45;service</title>
<path fill="none" stroke="darkgreen" d="M407.17,-592.03C395.26,-528.37 352.43,-302.83 309.42,-118.5 303.75,-94.23 296.54,-66.84 291.14,-46.95"/>
<polygon fill="darkgreen" stroke="darkgreen" points="288.52,-37.36 295.5,-45.82 289.52,-41.01 291.16,-47.01 291.16,-47.01 291.16,-47.01 289.52,-41.01 286.82,-48.2 288.52,-37.36"/>
<text xml:space="preserve" text-anchor="middle" x="370.15" y="-310.95" font-family="Arial" font-size="9.00" fill="darkgreen">gateway</text>
</g>
<!-- analytics&#45;service -->
<g id="node11" class="node">
<title>analytics&#45;service</title>
<path fill="lightgray" stroke="black" d="M842.17,-510C842.17,-510 776.67,-510 776.67,-510 770.67,-510 764.67,-504 764.67,-498 764.67,-498 764.67,-486 764.67,-486 764.67,-480 770.67,-474 776.67,-474 776.67,-474 842.17,-474 842.17,-474 848.17,-474 854.17,-480 854.17,-486 854.17,-486 854.17,-498 854.17,-498 854.17,-504 848.17,-510 842.17,-510"/>
<text xml:space="preserve" text-anchor="middle" x="809.42" y="-494.5" font-family="Arial" font-size="10.00">analytics&#45;service</text>
<text xml:space="preserve" text-anchor="middle" x="809.42" y="-482.5" font-family="Arial" font-size="10.00">Port: 8090</text>
</g>
<!-- gateway&#45;service&#45;&gt;analytics&#45;service -->
<g id="edge14" class="edge">
<title>gateway&#45;service&#45;&gt;analytics&#45;service</title>
<path fill="none" stroke="darkgreen" d="M454.5,-594.69C457.5,-593.89 460.49,-593.15 463.42,-592.5 588.94,-564.75 636,-615.12 750.42,-556.5 767.07,-547.97 781.46,-532.75 791.86,-519.35"/>
<polygon fill="darkgreen" stroke="darkgreen" points="797.68,-511.45 795.37,-522.17 795.44,-514.49 791.75,-519.5 791.75,-519.5 791.75,-519.5 795.44,-514.49 788.13,-516.83 797.68,-511.45"/>
<text xml:space="preserve" text-anchor="middle" x="783.33" y="-547.95" font-family="Arial" font-size="9.00" fill="darkgreen">gateway</text>
</g>
<!-- reporting&#45;service -->
<g id="node12" class="node">
<title>reporting&#45;service</title>
<path fill="lightgray" stroke="black" d="M282.42,-510C282.42,-510 218.42,-510 218.42,-510 212.42,-510 206.42,-504 206.42,-498 206.42,-498 206.42,-486 206.42,-486 206.42,-480 212.42,-474 218.42,-474 218.42,-474 282.42,-474 282.42,-474 288.42,-474 294.42,-480 294.42,-486 294.42,-486 294.42,-498 294.42,-498 294.42,-504 288.42,-510 282.42,-510"/>
<text xml:space="preserve" text-anchor="middle" x="250.42" y="-494.5" font-family="Arial" font-size="10.00">reporting&#45;service</text>
<text xml:space="preserve" text-anchor="middle" x="250.42" y="-482.5" font-family="Arial" font-size="10.00">Port: 8089</text>
</g>
<!-- gateway&#45;service&#45;&gt;reporting&#45;service -->
<g id="edge16" class="edge">
<title>gateway&#45;service&#45;&gt;reporting&#45;service</title>
<path fill="none" stroke="darkgreen" d="M366.48,-602.19C336.82,-595.15 298.7,-581.68 273.92,-556.5 264.51,-546.94 258.82,-533.29 255.4,-521.1"/>
<polygon fill="darkgreen" stroke="darkgreen" points="253.15,-511.65 259.85,-520.33 254.02,-515.33 255.47,-521.38 255.47,-521.38 255.47,-521.38 254.02,-515.33 251.09,-522.42 253.15,-511.65"/>
<text xml:space="preserve" text-anchor="middle" x="291.17" y="-547.95" font-family="Arial" font-size="9.00" fill="darkgreen">gateway</text>
</g>
<!-- inventory&#45;service -->
<g id="node13" class="node">
<title>inventory&#45;service</title>
<path fill="lightcyan" stroke="black" d="M950.54,-510C950.54,-510 884.29,-510 884.29,-510 878.29,-510 872.29,-504 872.29,-498 872.29,-498 872.29,-486 872.29,-486 872.29,-480 878.29,-474 884.29,-474 884.29,-474 950.54,-474 950.54,-474 956.54,-474 962.54,-480 962.54,-486 962.54,-486 962.54,-498 962.54,-498 962.54,-504 956.54,-510 950.54,-510"/>
<text xml:space="preserve" text-anchor="middle" x="917.42" y="-494.5" font-family="Arial" font-size="10.00">inventory&#45;service</text>
<text xml:space="preserve" text-anchor="middle" x="917.42" y="-482.5" font-family="Arial" font-size="10.00">Port: 8085</text>
</g>
<!-- gateway&#45;service&#45;&gt;inventory&#45;service -->
<g id="edge18" class="edge">
<title>gateway&#45;service&#45;&gt;inventory&#45;service</title>
<path fill="none" stroke="darkgreen" d="M454.48,-594.62C457.49,-593.84 460.49,-593.12 463.42,-592.5 612.54,-561.06 659.22,-602.78 804.42,-556.5 832.99,-547.39 862.44,-530.56 884.11,-516.51"/>
<polygon fill="darkgreen" stroke="darkgreen" points="892.17,-511.16 886.33,-520.44 889.02,-513.25 883.84,-516.69 883.84,-516.69 883.84,-516.69 889.02,-513.25 881.35,-512.94 892.17,-511.16"/>
<text xml:space="preserve" text-anchor="middle" x="848.01" y="-547.95" font-family="Arial" font-size="9.00" fill="darkgreen">gateway</text>
</g>
<!-- reporting&#45;service&#45;&gt;payment&#45;service -->
<g id="edge19" class="edge">
<title>reporting&#45;service&#45;&gt;payment&#45;service</title>
<path fill="none" stroke="blue" d="M225.09,-473.57C213.13,-464.23 199.53,-451.8 190.42,-438 183.34,-427.28 178.46,-413.96 175.2,-402.3"/>
<polygon fill="blue" stroke="blue" points="172.84,-392.94 179.65,-401.54 173.76,-396.61 175.28,-402.64 175.28,-402.64 175.28,-402.64 173.76,-396.61 170.92,-403.74 172.84,-392.94"/>
<text xml:space="preserve" text-anchor="middle" x="212.92" y="-429.45" font-family="Arial" font-size="9.00" fill="blue">feign&#45;client</text>
</g>
<!-- reporting&#45;service&#45;&gt;order&#45;service -->
<g id="edge20" class="edge">
<title>reporting&#45;service&#45;&gt;order&#45;service</title>
<path fill="none" stroke="blue" d="M249.9,-473.72C248.71,-433.57 245.73,-333.67 244.26,-284.4"/>
<polygon fill="blue" stroke="blue" points="243.97,-274.52 248.76,-284.38 244.08,-278.3 244.27,-284.52 244.27,-284.52 244.27,-284.52 244.08,-278.3 239.77,-284.65 243.97,-274.52"/>
<text xml:space="preserve" text-anchor="middle" x="269.88" y="-370.2" font-family="Arial" font-size="9.00" fill="blue">feign&#45;client</text>
</g>
<!-- legend_info -->
<g id="node14" class="node">
<title>legend_info</title>
<path fill="lightgrey" stroke="none" d="M985.79,-628.5C985.79,-628.5 579.04,-628.5 579.04,-628.5 573.04,-628.5 567.04,-622.5 567.04,-616.5 567.04,-616.5 567.04,-604.5 567.04,-604.5 567.04,-598.5 573.04,-592.5 579.04,-592.5 579.04,-592.5 985.79,-592.5 985.79,-592.5 991.79,-592.5 997.79,-598.5 997.79,-604.5 997.79,-604.5 997.79,-616.5 997.79,-616.5 997.79,-622.5 991.79,-628.5 985.79,-628.5"/>
<text xml:space="preserve" text-anchor="middle" x="782.42" y="-613" font-family="Arial" font-size="10.00">Service Types: Gateway=Green | Config=Yellow | Business=Blue | Support=Cyan | Other=Gray</text>
<text xml:space="preserve" text-anchor="middle" x="782.42" y="-601" font-family="Arial" font-size="10.00">Connections: →Gateway(Green) →REST/Feign(Blue) →Messaging(Purple)</text>
</g>
</g>
</svg>
